<svg xmlns="http://www.w3.org/2000/svg" viewBox="0 0 47.69 29.78"><title>icon-mail</title><g id="Capa_2" data-name="Capa 2"><g id="CreateAccount"><path d="M46.84,27.94c-.57.36-.36.71-.78.92a.35.35,0,0,0-.21.07.25.25,0,0,1-.14.07,1.24,1.24,0,0,0-.64-.07c-.14,0-.21.14-.36.14a6,6,0,0,1-1.35.21c-.36,0-.71.07-.92.07-.5,0-1.07-.07-1.63-.07-.28,0-.5.07-.78.07s-.28-.07-.57-.07H39.3c-.07.07-.5,0-.78,0a9.16,9.16,0,0,0-2-.07c-.14,0-.21.07-.28.07-.28,0-.64-.21-1.07-.21a12.16,12.16,0,0,0-2.27,0,3.19,3.19,0,0,0-.78.07c-.14,0-.21.07-.36.07a8.6,8.6,0,0,0-1.35-.07.07.07,0,0,1-.07.07c-.78,0-1.78-.07-2.56,0a2,2,0,0,0-.64.07,28.16,28.16,0,0,1-3.41-.07h-.28c-.07-.14-.07,0-.28,0h-.71c-.43,0-.78.14-1.21.14H19.47c-.43,0-.71.07-1.21.07s-1.35.07-2.06.14a4.37,4.37,0,0,0-1,.07.07.07,0,0,1-.07.07c-.07,0-.43-.07-.43,0v.07c-.21,0-.5-.07-.71-.07a1.52,1.52,0,0,0-.57,0c-.07,0-.07.07-.14.07-.5,0-1-.07-1.49-.07a9.49,9.49,0,0,1-1.42,0c-.43,0-.92-.14-1.35-.14-.71-.07-1.49,0-2.27-.07-.21,0-.5-.07-.71-.07s-.14.07-.28.07a4,4,0,0,1-.92,0,9.14,9.14,0,0,1-1.35-.28H3.33v-.07H3.19v-.07H3L3,28.93c-.07-.07-.28-.14-.36-.28a.71.71,0,0,1-.36-.28c-.07-.07-.07-.14-.14-.21S2,28.08,1.91,28s-.14-.36-.28-.57a1,1,0,0,1-.21-.28c0-.07-.07-.07-.14-.14v-.14c-.07-.07-.07-.21-.14-.5S.92,25.52.85,25a4.66,4.66,0,0,1,0-1c0-.28-.07-.64-.07-.92C.7,22.46.77,22,.7,21.32a13.16,13.16,0,0,1-.07-1.78v-.28c0-.14-.07-.43-.07-.78V17.06A4.39,4.39,0,0,1,.49,16c0-.21-.07-.43-.07-.71a13.16,13.16,0,0,1-.07-1.78v-.28c0-.07-.07-.14-.07-.21,0-.36.07-.64.07-1a3.08,3.08,0,0,1-.07-.36c0-.07.07-.36.07-.57,0-.43-.21-.92-.21-1.35V7.82A8.52,8.52,0,0,0,.06,5.9,3.37,3.37,0,0,1,.06,5V4.12a7.33,7.33,0,0,1,0-1.78l.07-.07a1.89,1.89,0,0,1,.43-.71,1.73,1.73,0,0,1,1-.71c.07,0,.21.07.28,0a.83.83,0,0,1,.5-.14A.07.07,0,0,1,2.41.64,1.06,1.06,0,0,0,2.84.57C3,.57,3.19.5,3.48.5S3.69.5,4,.5,5.11.57,5.68.57C5.82.57,5.89.5,6,.5h.92A8.52,8.52,0,0,1,8.81.43H9.87c1.21,0,2.42.07,3.77.07a3.43,3.43,0,0,1,.85,0c.28,0,.57.07.85.07S16.13.5,16.63.5h1.28c.85,0,1.71,0,2.56-.07A11.47,11.47,0,0,0,22,.43h.14V.36h3.55c.07,0,.07-.07.21-.07s.07.07.21.07c.64.07,1.49,0,2.13,0,.28,0,.57.07.78.07S29.78.36,30.2.36h1c.07,0,.14-.07.28-.07h.21a3.26,3.26,0,0,0,.71-.07.07.07,0,0,1,.07-.07H33A.07.07,0,0,1,33,.07h.43c1,0,1.92-.07,2.91,0,.14,0,.36.07.5,0A5.77,5.77,0,0,1,38.09,0h.64c.43.07,1.14.07,1.56.14s.78,0,1.14.07c.14,0,.21.07.36.07s.64-.07.85-.07H44a.07.07,0,0,0,.07.07c.07,0,.14.07.21.07s.21.07.28.07a.07.07,0,0,0,.07.07s.5-.14.57-.07.14.07.28.14l.21.07V.71c.14.07.28,0,.28.07s.07.14.14.21.14.07.21.14v.14l.14.07c.07.07,0,.14.07.28a1,1,0,0,1,.14.43c.07.07.07.21.14.28l.07.07c.07.21,0,.71.14.92a.76.76,0,0,1,.14.43v.14c.07.07.07.21.07.43s.07.36.07.57V5c.07.07,0,.14.07.28.14.64,0,1.71.07,2.56l.07.07v.28c.07.78-.14,2.06-.07,3.13v.28c0,.07.07.07.07.21a3.43,3.43,0,0,0,0,.85,2.83,2.83,0,0,1,0,.78.07.07,0,0,0-.07.07c0,.21-.07.21-.07.43s.07.5.07.78a2.92,2.92,0,0,0,.07.78,6.9,6.9,0,0,0,.07,1.21c0,.14.07.28.07.57a1.06,1.06,0,0,1-.07.43c0,.07-.07.07-.07.21s.07.57.07.85v.5c0,.14-.14.21-.14.36a12.69,12.69,0,0,1-.14,1.63,4.45,4.45,0,0,0-.14,1.14c0,.36-.07.64-.07.92a3,3,0,0,0-.14.78c-.14,1-.07,1.92-.14,2.91A3.37,3.37,0,0,0,46.84,27.94ZM39.37,3.48c-.57,0-1.14-.07-1.63-.07-.07,0-.07.07-.21.07-.43,0-1.71-.21-1.85,0s-.36,0-.36,0a1.22,1.22,0,0,0-.57.07h-.14c-.85,0-1.63.07-2.49.07l-1.71.21a49.44,49.44,0,0,1-5.62-.21H23.45c-.14,0-.28.07-.43.07s-.5-.07-.71-.07-.21.07-.28.07h-.36c-.85.07-1.85.07-2.63.07a2.21,2.21,0,0,0-.78.07c-.14.07-.36,0-.43,0a.07.07,0,0,0-.07.07H16.7L16.63,4a3.44,3.44,0,0,1-1.21,0c-.21,0-.5-.14-.71-.14-.5-.07-1.07,0-1.56-.07S12,3.63,11.58,3.63c-.21,0-.57.07-.71.07a.26.26,0,0,0-.21.07h-.14a6.07,6.07,0,0,1-1.14,0c-.14,0-.21.07-.28.07-.43,0-.78-.21-1.21-.07-.07.14.07.21.14.28l.21.21c.14,0,.14.14.21.14s0,.07.07.07a1.25,1.25,0,0,1,.36.28,1.88,1.88,0,0,0,.43.36c.07.07.14.07.21.21s.21.28.36.43.14.07.21.14a.22.22,0,0,0,.07.14c.07.07.14,0,.21.07a11.8,11.8,0,0,0,1,.92.26.26,0,0,1,.21.07q.21.11.21.21h.14c.07.07.14.21.21.28s.28.43.5.57.14,0,.21.07.07.14.14.21.21.14.28.21.43.36.64.5.14.21.21.21,0,.07.07.07a4,4,0,0,1,.57.36h.14c.07,0,.07.07.14.14s.07.07.14.07.07.07.14.14a3.5,3.5,0,0,0,1.07.71c.07.21.21.28.36.43s.14.28.21.28.14,0,.21.07l.14.14h.14c.14.07.21.28.28.36s.14.14.21.14a.32.32,0,0,1,.21.21h.14c.07,0,.07.14.14.14s.21.07.21.14a2.88,2.88,0,0,0,.64.36c.07,0,0,.07.07.07l.43.21v.07H20l.14.14a5.16,5.16,0,0,1,.64.36l.14.14c.07.07.14.07.21.14s.21.21.28.21,0,.07.07.07.21.07.21.14.07.07.14.14.28.14.28.21h.14l.14.14.21.21c.07,0,0,.07.07.07a.26.26,0,0,1,.21.07c.14.07.21.28.28.36s.21.21.28.21a1,1,0,0,1,.36.21c.28.14.43.28.64.28a1.21,1.21,0,0,0,.71-.43c.21-.14.43-.36.64-.5s.28-.28.43-.36a6.49,6.49,0,0,1,.92-.57,3.94,3.94,0,0,0,.57-.43h.14a.25.25,0,0,0,.07-.14c.07-.07.14,0,.21-.07l.21-.21.14-.14h.14l.21-.21c.07-.07.21-.07.28-.14l.21-.21.21-.21a5,5,0,0,0,.64-.43h.14v-.07h.14v-.07h.14v-.07h.14V12.3h.14v-.07h.14c.07,0,.07-.07.14-.14h.07c.14,0,.14-.14.28-.14s.14-.07.21-.14a7.75,7.75,0,0,0,.78-.43c.07-.07.21-.21.28-.21s.36-.28.36-.28a3.94,3.94,0,0,0,.57-.43h.14l.21-.21c.07-.07.21-.07.28-.14l.21-.21c.14-.14.21-.28.36-.36a4.35,4.35,0,0,1,.43-.28A4.6,4.6,0,0,0,36,8.6a.38.38,0,0,1,.28-.21V8.25c0-.07.07-.07.14-.14a1,1,0,0,1,.21-.28c.07-.07.21-.14.28-.21s.14-.21.21-.21h.14c.07-.07.14-.21.28-.28s.14,0,.21-.07a.25.25,0,0,0,.07-.14H38c.07-.07.14-.21.28-.28s.14,0,.21-.07.07-.14.14-.21.14-.21.28-.28S39,6,39.09,6s.07-.14.14-.21.14-.07.28-.14l.07-.14a1.64,1.64,0,0,0,.5-.5h.14c.07-.07.14-.21.28-.28s.14,0,.21-.07.07-.14.14-.21.14-.07.28-.14l.07-.14c.21-.14.64-.28.5-.64ZM43,25.09h0c.14-.85.14-1.71.28-2.42a6.22,6.22,0,0,0,.14-1.14,51.73,51.73,0,0,0-.14-7.46v-3.7a.07.07,0,1,0,0-.14,7.45,7.45,0,0,1,.07-1.78,3.76,3.76,0,0,0,.07-.92c0-.07-.07-.07-.07-.21s0-.28-.14-.36,0-.07-.07-.07-.28.07-.36.14l-.43.43c-.14.14-.36.14-.43.21l-.14.14c-.28.28-.5.78-.71,1L40.94,9c-.21.14-.57.14-.78.28L40,9.38a3.56,3.56,0,0,0-.5.57c-.07.07-.14,0-.21.07s-.14.21-.28.28a5.43,5.43,0,0,0-.64.64c-.07.07-.07.14-.14.21a13.65,13.65,0,0,1-1.07,1l-.36.36c-.14.07-.21.21-.28.21-.28.14-.57.57-.85.71l-.14.14a4.28,4.28,0,0,1-.92.64c-.21.14-.36.14-.43.21a.26.26,0,0,0-.21.07l-.14.14h-.14a1.16,1.16,0,0,0-.43.21h-.14c-.07,0-.07.07-.14.14a.26.26,0,0,0-.21.07c-.07,0-.07.07-.14.14s-.21.07-.28.14a1,1,0,0,1-.28.21H32c-.07,0,0,.07-.07.07s-.28.21-.43.28-.07.07-.14.14-.21.14-.28.14-.07.07-.14.14a.54.54,0,0,1-.28.14c-.07,0-.07.07-.14.14s-.14,0-.21.07a1,1,0,0,1-.28.21c-.07.07-.14,0-.21.07s-.07.07-.14.14a1,1,0,0,1-.28.21l-.14.14c-.07.07-.14,0-.21.07a1,1,0,0,1-.28.21c-.07.07-.21.07-.28.14a1,1,0,0,1-.28.21l-.14.14c-.07.07-.14,0-.21.07a1,1,0,0,1-.28.21.54.54,0,0,1-.28.14v.07h-.14c-.07,0-.07.07-.14.14a.54.54,0,0,1-.28.14c-.07.07-.14.21-.28.21a.26.26,0,0,0-.21.07l-.14.14c-.14.07-.21.14-.28.14s-.07.07-.14.14-.14,0-.21.07a3.2,3.2,0,0,1-.78.21c-.21,0-.36-.07-.5-.07s-.14-.07-.21-.07-.36,0-.43-.07h-.14a6.71,6.71,0,0,1-.64-.21c-.28-.07-.85-.14-.92-.28H21.6l-.14-.14c-.14-.07-.28-.07-.36-.14V19H21c-.07,0-.07-.07-.14-.14s-.57-.36-.71-.43a1,1,0,0,1-.28-.21,1,1,0,0,1-.28-.21l-.14-.14a1.49,1.49,0,0,0-.43-.28c-.07,0-.07-.07-.14-.14a1.49,1.49,0,0,0-.43-.28c-.07,0-.07-.07-.14-.14a1.49,1.49,0,0,0-.43-.28c-.07,0-.07-.07-.14-.14s-.57-.36-.71-.43-.07-.07-.14-.14-.14,0-.21-.07l-.14-.14a2.21,2.21,0,0,1-.43-.28c-.07-.07-.14-.07-.21-.14H15.7c-.07,0-.07-.07-.14-.14l-.64-.43c-.07-.07-.14,0-.21-.07l-.14-.14h-.07c-.07,0,0-.07-.07-.07a1,1,0,0,1-.28-.21,1,1,0,0,1-.28-.21c-.07,0-.07-.07-.14-.14a2.21,2.21,0,0,1-.43-.28c-.07,0-.07-.07-.14-.14s-.21-.14-.28-.21-.07-.07-.14-.14-.14,0-.21-.07-.14-.21-.21-.28-.07-.07-.14-.07-.07-.07-.14-.14-.21-.14-.28-.21a.22.22,0,0,0-.07-.14c-.07-.07-.14,0-.21-.07s-.14-.21-.21-.28a4.35,4.35,0,0,0-.43-.28l-.14-.14c-.07-.07-.21-.14-.28-.21s-.07-.07-.14-.14-.14,0-.21-.07a.22.22,0,0,0-.07-.14c-.07-.07-.14,0-.21-.07s-.14-.21-.21-.28c-.36-.28-.64-.64-1-.92S8.1,9.1,7.88,9l-.14-.14c-.07-.07-.21-.14-.28-.21V8.6H7.31c-.07,0-.07-.07-.14-.14S7,8.17,6.89,8.17s0-.07-.07-.07a1,1,0,0,1-.28-.21c-.14-.14-.28-.21-.43-.36a1,1,0,0,1-.21-.28,3.09,3.09,0,0,0-.5-.43c-.07-.07-.14-.21-.21-.28S5,6.33,5,6.26A1.49,1.49,0,0,0,4.54,6c-.07,0-.07-.07-.14-.14a.26.26,0,0,0-.21-.07c-.14-.07-.36-.28-.57-.21a16,16,0,0,0,0,1.85c0,.36-.14.71-.14,1.07V9.6a7,7,0,0,0,.07,1.78v.21h.07c.07.07-.07.21-.07.21a2,2,0,0,0,.07.71v.21c0,.07.07.14.07.28s-.07.21-.07.28a8.16,8.16,0,0,0-.07,1.28,3.57,3.57,0,0,0,.14.85.9.9,0,0,0,.07.43,1,1,0,0,0,.14.43v.43c0,.43.07.78.07,1.21,0,.07-.07.07-.07.14-.07.28.07.43.07.64v.64c0,.07.07.14.07.21.07.78,0,1.71.14,2.42,0,.07.07.07.07.14v.28a7.69,7.69,0,0,1,0,1.28c0,.21.07.21.07.28a3.52,3.52,0,0,0,.14,1.21c1.56.21,3.13.14,4.69.28a5.52,5.52,0,0,0,1.14.14h2a17.59,17.59,0,0,0,2.77-.07c.07,0,.14-.07.21-.07a10.52,10.52,0,0,1,1.42-.07c.57,0,1-.07,1.49-.07s.92-.07,1.35-.07c.21,0,.36-.07.5-.07.64-.07,1.28-.07,1.92-.14,1.28-.07,2.56.07,3.77,0,.14,0,.21-.07.28-.07,1.35-.07,2.77.07,4.12.07h.92c1.07,0,2,0,3.06.07,1.35.14,2.7.07,4.05.14.28,0,.5.07.71.07s.21-.07.28-.07a22,22,0,0,0,3.06.07C43.07,25.8,43,25.31,43,25.09Z"/></g></g></svg>