<svg xmlns="http://www.w3.org/2000/svg" viewBox="0 0 54.27 64.24"><title>icon-user</title><g id="Capa_2" data-name="Capa 2"><g id="main"><path d="M49.87,40.94c-.1.4.4.8.4,1.2l.1.3c.1.1.3.2.3.4s.1.3.2.5.1,0,.1.1.2.3.3.5v.2c.2.1.3.6.4.9,0,.1.1,0,.1.1s0,.2.1.3c.1.4.3.8.4,1.2v.2h.1c.1.3.1.6.2.8s.1,0,.1.1l.1.3a14.55,14.55,0,0,1,.4,2.5l.3,2.4c0,.1.1.2.1.3a1.27,1.27,0,0,0,.1.6V54c.2.2.1.8.2,1.3a4.25,4.25,0,0,0,.2,1.1.1.1,0,0,1,.1.1,2.13,2.13,0,0,0,0,.8c0,.1.1.1.1.2a2.35,2.35,0,0,1-.2.8c0,.1.1.6,0,.7s-.2.8-.3,1.1v.2a3.39,3.39,0,0,0-.3.8.1.1,0,0,0-.1.1,2,2,0,0,1-.8,1.4c-.2.2-.6.2-.9.3s-.6,0-1,.1a.1.1,0,0,1-.1.1h-.5a.1.1,0,0,1-.1.1,4.48,4.48,0,0,0-1.2-.1c-.5.1-1.6.2-2.2.3-.2.1-.6.1-.8.2a1.09,1.09,0,0,0-.5.1,1.09,1.09,0,0,0-.5.1c-.1,0-.2.1-.3.1a32.42,32.42,0,0,0-4.5-.2c-.8,0-1.5.1-2.3.1-.2,0-.5-.1-.7,0s-.5.1-1,.1c-.1,0-.4-.1-.5,0s-.1,0-.5,0h-.6a.1.1,0,0,0-.1-.1h-.8a4.33,4.33,0,0,1-.5.1c-.1,0-.2-.1-.4-.1s-.6.1-.9.1-.7-.1-1.1-.1a.1.1,0,0,1-.1.1c-.5,0-1.1.1-1.7.1h-.6c-.2,0-.2.1-.3.1-1.8,0-3.5-.2-5.2-.1-.8,0-1.8.2-2.7.2a18.84,18.84,0,0,1-3.3-.2h-.2c-.2-.1-.1-.1-.6,0a19.44,19.44,0,0,1-4.7-.2,2.15,2.15,0,0,0-.8,0c-.7.1-1.6-.3-2.5-.3h-.2c.1,0-.7.3-.8.1s-.7-.1-1.2-.2h-.2v-.1a11.93,11.93,0,0,1-2.9-.4.1.1,0,0,0-.1-.1h-.1a6.72,6.72,0,0,1-1.2-.6c-.4-.3-.6-.3-.9-.7,0-.1-.2-.2-.2-.2-.2-.5.1-1.3.1-1.9,0-.1.1-.5,0-.6-.3-.2,0-2.4.1-2.8s.3-1,.4-1.5c.2-.7.2-2,.4-2.8,0-.1.1-.2.1-.3a26.64,26.64,0,0,1,1-3.8.1.1,0,0,1,.1-.1c.1-.3.1-.6.3-.8s.2-.3.3-.4.2-.5.3-.7.2-.2.2-.2a.37.37,0,0,0,.1-.3,1,1,0,0,1,.1-.3l.2-.1a.37.37,0,0,0,.1-.3,9.22,9.22,0,0,1,.5-.8c.1-.1.2-.1.2-.2a7.7,7.7,0,0,1,.9-1.3,1,1,0,0,1,.5-.4c.2-.2.2-.4.4-.5s.2-.1.2-.2.1-.1.1-.2.2-.2.2-.2v-.9c0-.1.2-.2.2-.2a.37.37,0,0,0,.1-.3c.1-.1.2-.1.2-.2a9.22,9.22,0,0,1,.5-.8,2.18,2.18,0,0,1,.5-.4c.3-.3.5-.6.9-1,.1-.1.3-.1.4-.3s.7-.6,1-.9a6.47,6.47,0,0,0,.8-.9,10.91,10.91,0,0,1,1.1-.6l.1-.2h.2c.2-.1.4-.4.6-.5.6-.4,1.2-1.1,1.8-1.6a2.65,2.65,0,0,1,.6-.5h.2a1.08,1.08,0,0,0,.4-.5c.1-.3-.1-.5-.3-.7H16a2.19,2.19,0,0,1-.3-.5c-.2-.2-.4-.3-.5-.5l-.3-.6c-.2-.2-.4-.3-.5-.5l-1-1-.2-.2c-.1-.2-.2-.3-.3-.5s-.1-.2-.2-.4a.1.1,0,0,0-.1-.1c-.1-.2,0-.3-.1-.5s-.2-.2-.2-.2c-.2-.4-.4-.9-.6-1.4a1.09,1.09,0,0,0-.1-.5c0-.1-.2-.2-.2-.2-.1-.2-.1-.5-.2-.8,0-.1-.1,0-.1-.1,0-.4-.4-.9-.5-1.3s.1-.6.1-1-.1-1-.1-1.5V17a.1.1,0,0,1-.1-.1c0-.2-.1-.5-.1-.9a15.82,15.82,0,0,1,.9-3.6c.1-.4.2-.8.3-1.1a.1.1,0,0,0,.1-.1c0-.2.2-.2.3-.4s.2-.2.3-.4.2-.2.3-.4l.1-.2c.3-.5.7-1,1-1.5,0-.1.1,0,.1-.1s.2-.2.3-.4.2-.2.3-.4.2-.1.2-.2V7l.2-.1v-.2h.1v-.2c.1-.1.2-.1.2-.2s.2-.3.4-.5l.2-.1v-.2c.1-.1.2-.1.4-.2l.2-.2.6-.3c.2-.2.3-.4.5-.5a3.13,3.13,0,0,1,1.1-.8l.6-.3.1-.2c.2-.1.3-.1.5-.2l.2-.2.2-.2h.2v-.1h.2v-.1h.2v-.1h.2a1.07,1.07,0,0,1,.5-.3.35.35,0,0,0,.2-.1l.3-.1v-.1h.2a7.25,7.25,0,0,1,1.2-.5,7.43,7.43,0,0,1,1.8-.3c.8-.1,1.7-.3,2.5-.4a2.77,2.77,0,0,0,.9-.1.1.1,0,0,1,.1-.1h.3a3.44,3.44,0,0,0,.9-.1,17,17,0,0,1,3.1.1,22.82,22.82,0,0,1,2.7.2.1.1,0,0,0,.1.1h.5a.1.1,0,0,0,.1.1c.2,0,.6.4,1,.5l.9.3a13.39,13.39,0,0,1,2.3,1.3A1.76,1.76,0,0,1,41,3l.1.1c.1.1.3,0,.4.1l.1.2c.2.1.3.1.4.3a4.31,4.31,0,0,1,.7,1c0,.1.1,0,.1.1s.3.4.3.6c.2.2.5.2.5.5.4.5.7.8,1,1.2a2.65,2.65,0,0,1,.5.6c.1.1.1.2.2.4s.2.2.2.2c.1.2.1.5.2.8a.1.1,0,0,1,.1.1v.1c0,.1.1.2.1.3a.1.1,0,0,0,.1.1c.1.2,0,.3.1.5s.2.1.2.2a2.57,2.57,0,0,1,.2.5,5.39,5.39,0,0,0,.3,1v.2a6.89,6.89,0,0,1,.3.8v.2c.1.1.1.3.2.7a.1.1,0,0,1,.1.1c0,.2.1.2.1.3s0,.4.1.6a.1.1,0,0,1,.1.1v.3h.1a8.53,8.53,0,0,1,0,1.6v.3a10,10,0,0,1-.2,3.4c-.1.4-.1.8-.2,1.1a.1.1,0,0,0-.1.1v.5c-.1.3-.1.4-.2.8v.2c-.1.1,0,.3-.1.4a3.36,3.36,0,0,0-.4,1c-.1.1-.2.3-.3.4a.76.76,0,0,0-.1.4c0,.1-.1,0-.1.1s-.2.2-.3.4a.35.35,0,0,1-.1.2.6.6,0,0,0-.1.4l-.2.1c-.1.2-.1.4-.3.6s-.5.4-.7.6a5.72,5.72,0,0,0-.7.8c-.1.1-.2.1-.2.2V29c-.2.1-.2.2-.4.4l-.1.3h-.1v.2h-.1c-.1.1,0,.3-.1.4s-.6.3-.7.5V31a.67.67,0,0,0-.2,1l.1.2h.2c.1.1.2.3.3.4h.2l.1.2h.2a2.76,2.76,0,0,0,.8.6c.1,0,0,.1.1.1s.1.2.2.2h.2a2.19,2.19,0,0,1,.3.5,5.47,5.47,0,0,1,1,1.1c.2.4.8.8,1.1,1.3,0,.1.1,0,.1.1s.2.3.3.5a5.72,5.72,0,0,0,.7.8l.6.9A8.73,8.73,0,0,0,49.87,40.94ZM26,5.44a4,4,0,0,0-1.3.4h-.2a8.34,8.34,0,0,0-1.2.4.35.35,0,0,0-.2.1c-.2.1-.4.3-.5.3a.35.35,0,0,0-.2.1c-.1.1-.3.3-.4.3h-.2l-.1.2c-.1.1-.3.1-.5.2l-.1.2h-.2c-.1.1-.3.3-.4.3l-.2.2v.2h-.1v.2c0,.1-.2.1-.2.2v.1c0,.1-.1,0-.1.1a.37.37,0,0,0-.1.3l-.2.1a.49.49,0,0,0-.1.3h-.1v.2c-.1.1-.3.1-.4.2v.2c-.1.2-.4.2-.5.3s-.1.2-.2.3V11c0,.1-.2.1-.2.2s-.1.4-.1.4a.37.37,0,0,0-.1.3.1.1,0,0,1-.1.1c-.2.6-.3,1.5-.5,2.2h-.1v.2c0,.2,0,.2-.1.3v.2a10.35,10.35,0,0,0-.1,3,.1.1,0,0,0,.1.1c.1.5,0,1.2.1,1.7l.1.1a3.39,3.39,0,0,0,.3.8c.2.3.2.7.3.8a1.69,1.69,0,0,1,.2.5.1.1,0,0,0,.1.1c.1.2,0,.3.1.5l.2.1v.2h.1V23c0,.1.2.2.2.2a2.18,2.18,0,0,1,.4.5c.3.3.6.7.9,1a8.12,8.12,0,0,1,1,.9,4.35,4.35,0,0,0,.6.7,3,3,0,0,0,.7.5c.1,0,.2.1.3.1a.77.77,0,0,1,.3.2h.2c.1,0,.1.2.2.2l.2.1c.1,0,0,.1.1.1a1.71,1.71,0,0,0,1.7.1,14.45,14.45,0,0,1,2.9-.4c1.3,0,2.9.1,4.2.2a12.44,12.44,0,0,0,1.6.4h.5a2.35,2.35,0,0,0,.8.2,3.32,3.32,0,0,0,1.1-.8,1,1,0,0,1,.4-.5c.1-.1.2-.1.2-.2l.1-.2c0-.1.1,0,.1-.1.3-.4.5-.8.8-1.2a.37.37,0,0,0,.1-.3c0-.1.2-.1.2-.2a.37.37,0,0,0,.1-.3,3.33,3.33,0,0,0,.3-.6c.1-.3.5-.8.5-1a.1.1,0,0,1,.1-.1,17.6,17.6,0,0,0,1-3,12.44,12.44,0,0,0,.4-1.6c.1-.5,0-1,.1-1.5a6.75,6.75,0,0,0,.2-1.4,9.4,9.4,0,0,0-.3-3.4A14.19,14.19,0,0,0,39.07,9c-.1-.2-.3-.3-.4-.5s-.6-1.2-1-1.2-.5-.6-.6-.7h-.2l-.1-.2a.49.49,0,0,0-.3-.1c-.1-.1-.2-.2-.3-.2-.3-.2-.5-.2-.8-.4a13.35,13.35,0,0,0-1.2-.6h-.1A.1.1,0,0,1,34,5c-.3-.1-.6-.1-1-.2a19.53,19.53,0,0,0-3.4-.3.1.1,0,0,0-.1.1A19,19,0,0,1,26,5.44Zm20.7,51c-.1-.3.1-.7.1-.9s-.1-.2-.1-.3c-.2-2-.4-4.1-.7-5.7a.1.1,0,0,0-.1-.1,6.47,6.47,0,0,0-.4-1.3,1.69,1.69,0,0,1-.2-.5c0-.1-.1-.2-.1-.3v-.2c0-.1-.2-.2-.2-.2-.1-.2-.1-.4-.2-.6a9.08,9.08,0,0,0-.7-1.4c-.1-.1,0-.2-.1-.3l-.2-.1c-.1-.1,0-.2-.1-.3s-.3-.3-.4-.5c-.2-.4-.5-.7-.7-1.1-.4-.5-.9-.9-1.2-1.3l-.3-.6a3.45,3.45,0,0,0-.9-.8,2.18,2.18,0,0,1-.4-.5,3.11,3.11,0,0,0-.9-.7l-.2-.2h-.2c-.1-.1-.2-.3-.3-.4a3,3,0,0,0-.3-.4c-.1-.1-.2-.2-.3-.2s0-.1-.1-.1a1.38,1.38,0,0,1-.4-.3c-.2-.1-.2-.2-.3-.3s-.3-.1-.4-.3v-.1h-.2c-.1,0-.1-.2-.2-.2a4.88,4.88,0,0,0-.7-.3,3.55,3.55,0,0,0-.9-.4c-.5-.1-.9-.4-1.3-.5-1.6-.7-3.7-1.8-5.7-1.4-.5.2-1.3.3-1.5.4h-.3a.1.1,0,0,0-.1.1c-.3.1-.7,0-1,.1v.1c-.1.1-.3,0-.5.1,0,.1-.7.1-.7.1-.2,0-.3.1-.5.1s-.6.2-.8.2,0,0-.1,0-.5.1-.7.2-.9.3-.9.4h-.2v.1h-.2v.1h-.2c-.1,0-.1.2-.2.2s-.3.2-.5.3a.35.35,0,0,0-.2.1c-.1,0-.2.2-.2.2l-.6.3c-.1,0-.1.2-.1.2s-.3,0-.3.1c-.2.1-.3.3-.5.4a.35.35,0,0,0-.2.1c-.1,0-.2.2-.2.2-.4.2-.7.3-.8.5a.37.37,0,0,0-.1.3,2.09,2.09,0,0,1-.6.4,4.37,4.37,0,0,0-.7.8c-.2.2-.3.4-.5.5a3.19,3.19,0,0,1-.7.6V41c-.1.1-.2.1-.2.2s-.2.2-.2.3a1.38,1.38,0,0,1-.3.4l-.2.1c-.2.2-.2.3-.3.4l-.2.1a.37.37,0,0,0-.1.3c-.1.1-.3.1-.4.2a.37.37,0,0,0-.1.3l-.2.1v.2c0,.1-.2.1-.2.2l-.1.2c0,.1-.1,0-.1.1a2.51,2.51,0,0,1-.4.7c0,.1-.2.1-.2.2v.2l-.2.1a.37.37,0,0,0-.1.3.35.35,0,0,1-.1.2c0,.2-.2.3-.3.4a3.33,3.33,0,0,0-.3.6.1.1,0,0,1-.1.1,8.4,8.4,0,0,0-.4,1.2,7.49,7.49,0,0,0-.5,1.6c-.1.3-.1.6-.2.9a10.46,10.46,0,0,0-.4,1.7c-.2.7-.3,1.5-.7,1.8v.2c-.2.4-.3,1.7-.6,1.9v.2a2.92,2.92,0,0,0-.2.9,9.36,9.36,0,0,0,1.6.4c.1,0,.2-.1.3-.1.3,0,.4-.1.6-.1h.2a21.3,21.3,0,0,1,2.5.3c.7,0,1.7-.1,2.2-.1s.7.1,1,.1a4.33,4.33,0,0,0,.5-.1,26.62,26.62,0,0,0,4,0c.5-.1.8,0,1-.1h.3a.1.1,0,0,0,.1-.1h1.9l.1-.1h.2c1.2,0,2.3.1,3.5.1s2.4-.1,3.6-.1,2.6.1,4,.1c.6,0,1.1-.1,1.7-.1,1.1-.1,2.3,0,3.3,0a4.33,4.33,0,0,0,.5-.1,10.17,10.17,0,0,1,2.6.2c.7.1,1,.1,1.6.2a1.88,1.88,0,0,1,.8.2c.5,0,1.1-.1,1.6-.1s1.1.2,1.6-.1C46.87,57.64,46.67,56.74,46.67,56.44Z"/></g></g></svg>