<svg xmlns="http://www.w3.org/2000/svg" viewBox="0 0 59.78 63"><title>icon-happy</title><g id="Capa_2" data-name="Capa 2"><g id="main"><path d="M59.78,29V27.5h0l-.1-.6c0-.2-.1-.5-.1-.8v-.4a4.87,4.87,0,0,0-.1-1.2,3.75,3.75,0,0,0-.1-1.1c0-.1,0-.1-.1-.2h-.1l-.2-.6a1.27,1.27,0,0,1-.1-.6h0l-.1-.6a2.2,2.2,0,0,1-.1-.8v-.4a.37.37,0,0,0-.1-.3v-.2a.37.37,0,0,0-.1-.3.52.52,0,0,1-.2-.4c-.1,0-.1-.2-.2-.4s-.1-.2-.2-.4-.1-.2-.2-.3a2.19,2.19,0,0,1-.3-.5,6.31,6.31,0,0,1-.4-.9c0-.1-.1-.2-.1-.3s-.1-.2-.2-.3-.1-.2-.2-.3h0l-.2-.5c0-.1-.1-.2-.1-.3a.85.85,0,0,1-.3-.5c-.1,0-.1-.1-.2-.2h-.1l-.2-.5a.6.6,0,0,1-.1-.4c-.1-.1-.2-.2-.2-.3s-.1-.3-.2-.5-.1-.2-.2-.3l-.1-.1-1-1.5a15.05,15.05,0,0,1-1-1.7h-.1l-.3-.5a1.42,1.42,0,0,1-.2-.6l-.1-.1a1.54,1.54,0,0,1-.4-.6l-.3-.3c-.1-.1-.1-.2-.2-.3s-.2-.1-.3-.2l-.2-.2c-.3-.3-.5-.6-.8-.9l-.2-.2-.3-.3-.3-.3-.2-.2V3.8l-.2-.2a.1.1,0,0,1-.1-.1,1.33,1.33,0,0,1-.5-.3.1.1,0,0,1-.1-.1h-.1a4.88,4.88,0,0,1-.7-.3c-.1,0-.2-.1-.3-.1s-.3-.1-.5-.2a.31.31,0,0,0-.2-.1c-.1,0-.3-.1-.4-.1s-.2-.1-.4-.1-.2-.1-.4-.1-.2-.1-.4-.1-.2-.1-.4-.1-.2-.1-.4-.1-.2-.1-.4-.1-.2-.1-.4-.1-.2-.1-.3-.1h-.3a7.57,7.57,0,0,0-1.5-.1h-1.1A8.75,8.75,0,0,1,38,1.2c-.5-.1-.9-.1-1.2-.2s-.3-.1-.5-.1h-.1a1.42,1.42,0,0,1-.6-.2h-.1a3,3,0,0,1-1-.2h-.2a1.09,1.09,0,0,1-.5-.1h-.1a1.42,1.42,0,0,1-.6-.2,5.28,5.28,0,0,0-1.3-.1h-.7a.6.6,0,0,1-.4-.1l-.8.1a18.32,18.32,0,0,1-2.1.2h-.1c-.3,0-.5.1-.7.1-.4,0-.8.1-1.1.1s-.5.2-.7.3l-.6.3c-.1.1-.3.1-.5.2s-.2.1-.3.1a.1.1,0,0,0-.1.1h-.5c-.1.1-.3.1-.5.2h-.1a1.38,1.38,0,0,1-.4.3.76.76,0,0,1-.4.1l-.2.2c-.1.1-.3.1-.4.2s-.2.2-.3.2-.1.1-.2.1-.1.1-.2.1-.2.1-.4.2a.35.35,0,0,0-.2.1l-.2.2-.2.2-.1.1c-.1.1-.3.2-.4.3a.1.1,0,0,0-.1.1l-.3.3c-.1.1-.2.1-.3.2a4.62,4.62,0,0,0-.7.7A10.7,10.7,0,0,1,16,6.7a6.12,6.12,0,0,1-1.2.5,4.88,4.88,0,0,0-.7.3l-.2.2c-.1.1-.3.2-.4.3l-.4.4c-.2.1-.4.4-.6.6l-.6.6c-.2.2-.4.2-.6.3l-.2.2a1.38,1.38,0,0,0-.3.4c-.1.1-.3.2-.4.3l-.3.3-.3.3-.4.4-.3.3c-.1,0-.1.1-.2.1a2.19,2.19,0,0,1-.3.5c-.1.1-.1.2-.2.3v.1a2.15,2.15,0,0,1-.4.7c-.1.1-.1.2-.2.3s-.1.1-.1.2a.76.76,0,0,0-.2.4l-.1.2a1.69,1.69,0,0,1-.2.5c-.1.2-.3.3-.4.5s-.1.1-.1.2-.1.1-.1.2a2.09,2.09,0,0,1-.4.6c0,.1-.1.2-.1.3l-.3.3a1.38,1.38,0,0,0-.3.4c-.1.1-.1.2-.2.2l-.3.3a.76.76,0,0,1-.2.4c-.1.1-.2.2-.2.3s-.1.1-.1.2-.1.2-.1.3l-.3.3c0,.1-.2.2-.2.2a.52.52,0,0,1-.2.4c0,.1-.1.2-.1.4l-.2.3-.2-.5a1.42,1.42,0,0,1-.2.4,1.07,1.07,0,0,1-.2.6v.1a1.42,1.42,0,0,1-.2.6l-.4,1v.4c-.2.9-.5,1.7-.7,2.5-.1.3-.2.7-.3,1a27.05,27.05,0,0,0-.9,6.1.76.76,0,0,1-.2.5,19.29,19.29,0,0,0,0,3.4h.1l.1.7c0,.3.1.6.1.9h0l.1.6v.2l.1.3a12.43,12.43,0,0,0,.6,2,1.85,1.85,0,0,1,.2.7v.1c0,.1.1.3.1.4h0l.2.5a4.18,4.18,0,0,1,.3.9.35.35,0,0,0,.1.2c.1.1.1.3.2.3a2.57,2.57,0,0,1,.2.5h0l.2.5c.1.2.1.4.2.6s.1.3.2.4c.2.4.3.7.5,1.1l.3.6a.76.76,0,0,0,.2.4,3.33,3.33,0,0,0,.3.6.52.52,0,0,1,.2.4.37.37,0,0,1,.1.3.37.37,0,0,1,.1.3,1.76,1.76,0,0,1,.5.4c.1.1.2.3.4.5a.35.35,0,0,0,.1.2,2.71,2.71,0,0,1,1.1.9.1.1,0,0,0-.1-.1l.1.1h0c.1.1.1.2.2.4l.2.2a.86.86,0,0,1,.6.3l.6.6.6.6.5.5.4.4.4.4a.35.35,0,0,0,.2.1c.1.1.2.2.3.2s.3.3.4.3.3.2.5.3H12l.3.2.3.3c.2.1.5.3.7.4l.2.1c.6.3,1.2.6,1.7.8a2.19,2.19,0,0,1,.5.3h.2l.2.1c.1,0,.1.1.2.1h.3a.52.52,0,0,1,.4.2h.3a1,1,0,0,1,.5.4h0c.1.1.3.1.4.2a5.74,5.74,0,0,0,.7.4H19c.2,0,.3.1.5.2l1,.3h0c.1,0,.1,0,.2.1a1,1,0,0,1,.3.1,1.45,1.45,0,0,1,.7.2.37.37,0,0,1,.3.1,3.92,3.92,0,0,1,1.4.4h.1a.9.9,0,0,1,.5.1h.2c.2,0,.3.1.5.1s.4.1.6.1.4.1.6.2c.5.1,1.1.1,1.7.2a9,9,0,0,1,1.8.2h.8a1.48,1.48,0,0,1,.7.1h.7a6.8,6.8,0,0,0,1.5-.2c.3,0,.5-.1.8-.1s.9-.1,1.3-.2c0,0,3.2-.7,3.3-.7h0l.6-.2c.2,0,.3-.1.4-.1s.3-.1.5-.1a18.49,18.49,0,0,0,2.3-.9v-.1l.5-.2a.76.76,0,0,1,.4-.1,1.38,1.38,0,0,1,.4-.3,1.09,1.09,0,0,1,.5-.1h0a2.93,2.93,0,0,1,.8-.4c.1,0,.2-.1.4-.2s.3-.1.4-.2.2-.1.4-.2a.76.76,0,0,0,.4-.2,4.37,4.37,0,0,0,.8-.7c.2-.1.3-.3.5-.4a1.79,1.79,0,0,1,.7-.5,2.85,2.85,0,0,0,.8-.7,2,2,0,0,1,.8-.8h.1a.76.76,0,0,1,.2-.4c0-.1.1-.2.1-.3l.3-.3c.2-.2.4-.5.7-.8a.76.76,0,0,1,.2-.4l.3-.3a.1.1,0,0,1,.1-.1c0-.1.1-.2.2-.4l.3-.3c0-.1.1-.1.1-.2h0c0-.1,0-.1.1-.2s.1-.2.2-.3a.76.76,0,0,1,.2-.4c0-.1.1-.2.2-.3s.2-.2.2-.3a.35.35,0,0,1,.1-.2c.1-.1.2-.2.2-.3s.1-.1.1-.2.1-.2.1-.3.2-.2.2-.3.1-.2.2-.3l.2-.2c0-.1.1-.2.1-.3s.2-.2.2-.3v-.2a.91.91,0,0,1,.3-.5c.1-.3.2-.5.3-.8a5.64,5.64,0,0,1,.4-1.2,3.79,3.79,0,0,1,.6-1.2V44a.76.76,0,0,1,.2-.5c0-.1.1-.1.1-.2a.76.76,0,0,1,.2-.4v-.2a1.85,1.85,0,0,1,.2-.7,4.87,4.87,0,0,1,.3-.7v-.1a.76.76,0,0,1,.2-.5c0-.1.1-.1.1-.2a1.69,1.69,0,0,1,.2-.5,1.7,1.7,0,0,0,.1-.7c0-.2.1-.5.1-.7a.76.76,0,0,1,.2-.4c.1-.4.2-.9.3-1.3s.1-.9.2-1.4c.1-.7.2-1.4.3-1.9v-.2c0-.1,0-.3.1-.3l.1-.3a.37.37,0,0,1,.1-.3V32a2.79,2.79,0,0,0,.1-1v-.3a2.2,2.2,0,0,1,.1-.8v-.4c-.1-.1-.1-.4-.1-.6,0,.6,0,.4.1.1Zm-5.5,1.5c0,.2-.1.5-.1.7s-.1.6-.1.9v.7a4.48,4.48,0,0,1-.1,1.1h0a1.54,1.54,0,0,1-.2,1.1,1.85,1.85,0,0,1-.2.7v.1c-.1.2-.1.5-.2.8s-.1.6-.1.9a6.75,6.75,0,0,1-.2,1.4,8.92,8.92,0,0,1-.7,1.9l-.2.5-.1.3c0,.1-.1.2-.1.3s-.1.1-.1.2v.1c0,.2-.1.3-.1.5l-.2.1a1.69,1.69,0,0,1-.2.5c0,.1-.1.2-.1.3s-.1.1-.1.2v.1c0,.2-.1.3-.2.5s0,.1-.1.2-.1.4-.2.5l-.1.1a1.09,1.09,0,0,1-.1.5,1.38,1.38,0,0,1-.3.4c0,.1-.1.2-.1.3a4.35,4.35,0,0,0-.4.7q-.15.3-.3.3c-.1.1-.7,1.1-.7,1.1l-.1.1a2.09,2.09,0,0,1-.4.6.35.35,0,0,0-.1.2c-.1.1-.1.2-.2.3s-.1.2-.2.3-.1.2-.1.3l-.3.5h-.1c-.1.1-.2.2-.3.2a.92.92,0,0,1-.4.6c-.3.3-.7.6-1.1,1a6.47,6.47,0,0,1-.9.8c-.1.1-.2.4-.5.5-.1.1-.2.1-.3.2l-.3.3c0,.4-.1.4-.3.4a2.18,2.18,0,0,1-.5.4l-.3.2h-.1l-.1.1A2.5,2.5,0,0,1,41,56c-.1,0-.1.1-.2.1s-.3.2-.5.2a1,1,0,0,0-.3.1,5.56,5.56,0,0,1-.8.4V57l-.3.1a2,2,0,0,1-.7.1h0a.37.37,0,0,1-.3.1,4.33,4.33,0,0,1-.5.1c-.3.1-.6.1-1,.2-.2,0-.5.1-.7.1a1.42,1.42,0,0,0-.6.2,2.92,2.92,0,0,1-.9.2h-.3a5.9,5.9,0,0,1-1.4.2h-.8a26.35,26.35,0,0,1-2.8-.2L28,58c-.5-.1-1-.1-1.6-.2h-.6a11.63,11.63,0,0,1-1.8-.4c-.1,0-.2-.1-.4-.2h-.3a4.4,4.4,0,0,1-1-.2c-.1,0-.2-.1-.4-.1s-.2-.1-.4-.1-.7-.2-1.5-.5h-.2l-.2-.1a1.38,1.38,0,0,1-.4-.3H19c-.3-.1-.6-.1-.8-.3-.1,0-.1-.1-.2-.1h-.3l-.3-.4c-.1,0-.2-.1-.3-.2l-.3-.3h0l-.1-.1a.35.35,0,0,1-.2-.1,1.69,1.69,0,0,0-.5-.2,1.69,1.69,0,0,0-.5-.2,1.69,1.69,0,0,0-.5-.2c-.6-.1-1.1-.7-1.7-1.3l-.4-.4-.3-.3c-.1-.1-.2-.2-.3-.2a3.7,3.7,0,0,1-1.4-1.4c-.1-.1-.3-.2-.4-.4a.76.76,0,0,1-.2-.4c-.1-.1-.2-.2-.2-.3s-.2-.3-.2-.5h0l-.3-.3a.6.6,0,0,1-.1-.4,3.55,3.55,0,0,1-.4-.9c0-.1,0-.1-.1-.2a2.18,2.18,0,0,1-.4-.5v-.1h0l-.3-.7a1.27,1.27,0,0,1-.1-.6v-.1h0a6.25,6.25,0,0,1-.5-1.1.6.6,0,0,1-.1-.4.76.76,0,0,1-.1-.4h0a.85.85,0,0,1-.3-.5c0-.1-.1-.3-.1-.4s-.1-.2-.1-.3a1,1,0,0,1-.2-.7h0a2.19,2.19,0,0,1-.3-.5.45.45,0,0,1,0-.5h0a1.69,1.69,0,0,1-.2-.5,2.77,2.77,0,0,1-.1-.9v-.1c-.1-.2-.2-.3-.2-.5v-.3a20.58,20.58,0,0,1,0-4.3c0-.2.1-.3.1-.4s.1-.4.1-.6a2,2,0,0,0,.1-.7c0-.3.1-.8.1-1.3.1-.3.1-.5.2-.8s.1-.4.2-.6v-.3a3.75,3.75,0,0,1,.1-1l.1-.2a3.18,3.18,0,0,1,.2-1.3c0-.1.1-.2.1-.3a.6.6,0,0,1,.1-.4,5.16,5.16,0,0,1,.2-1.1l.2-.6h.1c0-.1.1-.2.1-.3s.2-.3.3-.3.1-.2.1-.3.1-.2.2-.3a1.69,1.69,0,0,1,.2-.5c.1-.1.1-.2.2-.3s.1-.2.2-.4a.78.78,0,0,1,.4-.4c0-.1.1-.2.1-.3s.1-.2.2-.2.1-.2.2-.4a.78.78,0,0,1,.4-.4,1.69,1.69,0,0,1,.2-.5c0-.1.1-.1.1-.2a.92.92,0,0,1,.4-.6h0c0-.1.1-.2.1-.3s.2-.3.3-.3a.92.92,0,0,1,.4-.6h0c0-.1.1-.1.1-.2s.1-.2.2-.2a.76.76,0,0,1,.2-.4c.1-.2.2-.3.4-.3,0-.1.1-.2.1-.3s.1-.2.2-.2a.76.76,0,0,1,.2-.4c.2-.2.3-.4.4-.5a.1.1,0,0,0,.1-.1.35.35,0,0,0,.1-.2,1.84,1.84,0,0,1,1-1,1.9,1.9,0,0,1,.8-.7,1.63,1.63,0,0,1,.6-.3c.1,0,.1-.1.2-.1l.1-.1a10.63,10.63,0,0,1,1.1-.9l.1-.1.1-.1a2.17,2.17,0,0,1,1-.2h.1a5.9,5.9,0,0,0,.8-.4,1.38,1.38,0,0,0,.4-.3,1.2,1.2,0,0,1,.8-.4c.1,0,.2-.1.3-.1a4.05,4.05,0,0,1,.9-.5l.1-.1V9l.5-.2H23l.1-.1a.35.35,0,0,0,.2-.1l.7-.3h0l.2-.1h0l.8-.3c.1-.1.2-.1.4-.1l.4-.2a.1.1,0,0,0,.1-.1l.4-.2a.75.75,0,0,1,.5-.1c.1,0,.2-.1.3-.1l.6-.3c.1,0,.2-.1.3-.1a3.08,3.08,0,0,1,.9-.1h.5c.4,0,1.1-.1,1.8-.1h.5a4.15,4.15,0,0,1,1.6.3c.2,0,.4.1.7.1a.76.76,0,0,1,.4.1h.7l.7.1h0a.37.37,0,0,1,.3.1,2,2,0,0,0,.5.1h.2c.2,0,.3,0,.4.1h.4a5.64,5.64,0,0,1,.7.1,2.92,2.92,0,0,1,.9.2c.3.1.6.1.9.2h1.8a7.08,7.08,0,0,1,1.4.1l.3.1H44l.1.1h.1l.3.4.1.1a3.55,3.55,0,0,1,.9.4,2.19,2.19,0,0,0,.5.3c.1.1.2.1.3.2a5.7,5.7,0,0,1,1.1,1.1,4.43,4.43,0,0,0,.7.9l.1.2.2.2c.2.1.3.3.4.4s.1.2.2.3a.35.35,0,0,1,.1.2,2.19,2.19,0,0,1,.3.5v.1a.86.86,0,0,1,.3.6c0,.1.1.1.2.2l.3.3c0,.1.1.1.1.2a.35.35,0,0,1,.1.2c0,.1.1.1.1.2s.1.1.1.2a2.19,2.19,0,0,0,.3.5h0a.86.86,0,0,1,.3.6v.1l.1.1.1.2a.76.76,0,0,1,.1.4,1.38,1.38,0,0,1,.3.4c.1.2.1.4.2.6s.2.5.3.7a1.63,1.63,0,0,1,.3.6c0,.1.1.1.1.2s.1.3.2.5.1.2.1.3a1.63,1.63,0,0,1,.3.6,3,3,0,0,1,.2,1l.1.3a3.54,3.54,0,0,1,.1.6v.5c0,.2.1.3.1.5s.1.4.1.6a25.82,25.82,0,0,1,.3,2.9l.1.6a3.54,3.54,0,0,1,.1.6C54.37,28.4,54.37,29.6,54.28,30.5Z"/><path d="M18.28,22.9a.37.37,0,0,0,.1.3c0,.2.1.4.1.6a1.38,1.38,0,0,0,.3.4,3,3,0,0,0,1,.4h0a3.92,3.92,0,0,0,.9.4h.7a.37.37,0,0,0,.3-.1,2.54,2.54,0,0,0,.7-.2c.1-.1.2-.1.3-.2s.3-.2.3-.3l.1-.1.1-.1c.1,0,.2-.1.3-.2a.35.35,0,0,0,.1-.2l.1-.1a.6.6,0,0,0,.1-.4,1.93,1.93,0,0,0-.1-1.5v-.1c0-.1-.1-.2-.1-.3v-.1c0-.1,0-.1-.1-.2s-.1-.2-.2-.3-.1-.2-.2-.3l-.2-.2c-.1-.1-.2-.2-.3-.2h-.1c-.1,0-.2-.1-.3-.1h0a.52.52,0,0,0-.4-.2l-.1-.1c-.1-.1-.4-.2-1.2-.2a2,2,0,0,0-.8.1c-.3,0-.5.2-.5.3h-.1c-.1.1-.2.1-.3.2l-.1.1c-.1,0-.1.1-.2.1a2.18,2.18,0,0,0-.5.8,4.62,4.62,0,0,0,0,1.7Z"/><path d="M36.48,23.8c0,.2.1.3.3.4a10.93,10.93,0,0,0,1.5.8,2.2,2.2,0,0,0,.8.1h.5a1.49,1.49,0,0,0,.6-.1h.2a4.05,4.05,0,0,0,.9-.5l.1-.1a2.18,2.18,0,0,0,.5-.4.76.76,0,0,0,.2-.4l.2-.2a.49.49,0,0,0,.1-.3V21.8c0-.2,0-.3-.1-.4a4.35,4.35,0,0,1-.4-.7c-.1-.1-.1-.2-.2-.3l-.3-.3h0c-.1-.1-.2-.2-.3-.2s-.1-.1-.2-.1l-.1-.1a.1.1,0,0,1-.1-.1h-.1a.37.37,0,0,0-.3-.1c-.1,0-.1-.1-.2-.1a4.59,4.59,0,0,0-1-.1h-.2a2.14,2.14,0,0,0-.6.1H38c-.1,0-.2.1-.3.1s-.1,0-.2.1a3980596590304.82,3980596590304.82,0,0,1-.2.2c-.1.1-.2.2-.2.3a.1.1,0,0,1-.1.1l-.1.1a1.08,1.08,0,0,0-.4.5v.1c0,.1-.1.2-.1.3a.35.35,0,0,1-.1.2,2.29,2.29,0,0,0,.2,1.5C36.28,23,36.38,23.4,36.48,23.8Z"/><path d="M43.87,36.7l-.3-.3a.37.37,0,0,0-.3-.1c-.1-.1-.2-.3-.3-.4a1.49,1.49,0,0,0-.9-.2h-1.4a2.16,2.16,0,0,0-1,.8c0,.1-.1.1-.2.2l-.2.2V37c-.1.1-.1.2-.2.3h0c-.1.1-.2.2-.2.3s-.1.2-.1.4a2.2,2.2,0,0,0-.1.8h0a.37.37,0,0,0-.1.3.1.1,0,0,1-.1.1c-.1.1-.1.3-.2.4a3.29,3.29,0,0,0-.3.6.52.52,0,0,0-.2.4h0c-.1.1-.1.2-.2.2s-.2.2-.2.3l-.2.2-.1.1a1.76,1.76,0,0,1-.4.5c-.1.1-.1.2-.2.3s-.5.4-.7.6l-.3.3-.1.1h-.1a.31.31,0,0,0-.2.1.76.76,0,0,0-.4.2c-.1,0-.1.1-.2.1s-.2.1-.2.2h0c-.1,0-.1.1-.2.1a.1.1,0,0,0-.1.1c-.1,0-.1,0-.2.1s-.1.1-.2.2-.2.1-.3.2-.1,0-.1.1h-1l-.3.2a4.12,4.12,0,0,1-.8.3,5.9,5.9,0,0,1-1.4.2c-.1,0-.2-.1-.3-.1h-.3a3.55,3.55,0,0,1-1-.2H28l-.1-.1c-.1-.1-.2-.1-.4-.1s-.4-.2-.5-.2-.2-.1-.2-.2a2828341.31,2828341.31,0,0,0-.3-.3l-.1-.1c-.1-.1-.1-.1-.2-.1s-.2-.2-.3-.2h-.2a.37.37,0,0,0-.3-.1h0a.52.52,0,0,0-.4-.2c0-.1-.1-.1-.2-.2s-.1-.1-.2-.1a.35.35,0,0,0-.2-.1h0a.52.52,0,0,0-.4-.2c-.1-.1-.1-.2-.2-.3s-.1-.2-.2-.3-.3-.3-.4-.5,0-.1-.1-.2a.1.1,0,0,0-.1-.1c0-.1,0-.1-.1-.2s-.1-.1-.1-.2a.22.22,0,0,0-.2-.2v-.1c0-.1-.1-.1-.1-.2v-.1c0-.1,0-.1-.1-.2a.22.22,0,0,0-.2-.2v-.1c0-.1-.1-.1-.2-.2v-.2c0-.1-.1-.1-.2-.2a2653731060203.13,2653731060203.13,0,0,1-.2-.2,2828338.53,2828338.53,0,0,1-.2-.2h0q-.15-.3-.3-.3c0-.1-.1-.1-.1-.2a1.38,1.38,0,0,0-.3-.4l-.1-.1a1.21,1.21,0,0,0-.5-.5l-.1-.1c-.1-.1-.1-.1-.2-.1a5.85,5.85,0,0,0-1.3-.2,2,2,0,0,0-.8.1,2.21,2.21,0,0,0-1.3,1.2c0,.1-.1.2-.1.3s-.1.1-.1.2v.5c0,.1-.1.2-.1.4a1.7,1.7,0,0,0,.1.7c.1.2.2.5.3.7l.1.1h0a.35.35,0,0,0,.1.2c0,.1.1.1.1.2v.1c0,.1.1.2.1.3a3980596590305,3980596590305,0,0,0,.2.2.1.1,0,0,0,.1.1v.2c0,.1,0,.2.1.2s.1.1.1.2.1.2.1.3v.2a.22.22,0,0,0,.2.2v.1a.1.1,0,0,0,.1.1c0,.1.1.1.1.2s0,.1.1.2.1.1.1.2a2828342.55,2828342.55,0,0,0,.2.2l.2.2.1.1c.1.1.2.2.2.3a.31.31,0,0,0,.1.2c0,.1.1.2.1.3v.2c0,.1.1.2.2.3s.1.2.2.3.1.2.2.3.2.2.3.2.1.1.1.2l.3.3.2.2a.1.1,0,0,1,.1.1,4.23,4.23,0,0,0,.7.5l.1.1.1.1.1.1.1.1.1.1a.52.52,0,0,0,.4.2h.1l.2.2c.1.1.3.1.4.2s.3.1.3.2.2.2.3.2l.1.1c.1,0,.1.1.2.1a.37.37,0,0,0,.3.1l.1.1a.35.35,0,0,1,.2.1h.1l.2.1c.2.1.3.2.5.2l.2.1c.1,0,.2.1.3.1a.76.76,0,0,1,.4.1h.2a.6.6,0,0,0,.4.1,2.77,2.77,0,0,0,.9.1c.2,0,.4.1.6.1h1.9a2.48,2.48,0,0,0,.9-.1h.2c.4,0,.7-.1.9-.1l.3-.1a4.33,4.33,0,0,0,.5-.1c.2-.1.4-.1.5-.2s.1,0,.2-.1.2,0,.2-.1c.3-.1.6-.3.9-.4.1,0,.2-.1.3-.1a.37.37,0,0,0,.3-.1.1.1,0,0,0,.1-.1h0c.1,0,.1-.1.2-.1s.1,0,.2-.1a.35.35,0,0,0,.2-.1h0a.35.35,0,0,0,.2-.1.37.37,0,0,0,.3-.1c.1,0,.1-.1.2-.1a.35.35,0,0,0,.2-.1l.2-.2c.1,0,.1-.1.2-.1l.1-.1h0c.1,0,.1-.1.2-.1h0c.1-.1.2-.1.3-.2a.22.22,0,0,0,.2-.2l.1-.1c.2-.2.5-.3.7-.5l.4-.4c.1-.1.2-.3.4-.4s.2-.1.3-.2l.3-.3.1-.2.1-.1.1-.1a1.21,1.21,0,0,0,.5-.5l.1-.1a.1.1,0,0,1,.1-.1.35.35,0,0,1,.1-.2v-.1c.1,0,.1-.1.2-.2s.1-.1.1-.2h0a.52.52,0,0,0,.2-.4l.1-.1a.35.35,0,0,0,.1-.2l.1-.1c.1-.1.2-.2.2-.3h0c.1,0,.1-.1.2-.3s.1-.1.1-.2v-.1l.1-.1a.31.31,0,0,0,.1-.2l.1-.1a.35.35,0,0,0,.1-.2.9.9,0,0,0,.1-.5v-.1a.77.77,0,0,0,.1-.3.59.59,0,0,0,.2-.5,7,7,0,0,0,.6-2.9.37.37,0,0,0-.1-.3C44.28,37,44.08,36.8,43.87,36.7Z"/></g></g></svg>