<svg xmlns="http://www.w3.org/2000/svg" viewBox="0 0 47.45 40.81"><title>icon-edit</title><g id="Capa_2" data-name="Capa 2"><g id="main"><path d="M3.32,29.93v-.1c0-.05-.1,0-.26-.1s-.15-.05-.26-.1a.47.47,0,0,0,.15.26A.32.32,0,0,0,3.32,29.93Z" transform="translate(-0.05)"/><path d="M3.22,29.42h.2c0,.05-.05.05-.05.1s.26,0,.36-.15c-.2.05-.15-.05-.36.05-.05,0-.1,0-.1-.05a.18.18,0,0,1-.1-.05c-.1.05-.26.2-.15.31C3.06,29.47,3.12,29.42,3.22,29.42Z" transform="translate(-0.05)"/><path d="M7.56,35.85h0C7.51,35.9,7.56,35.9,7.56,35.85Z" transform="translate(-0.05)"/><path d="M5.82,33.5v.1C5.87,33.55,5.82,33.55,5.82,33.5Z" transform="translate(-0.05)"/><path d="M4.09,29.77h0Z" transform="translate(-0.05)"/><path d="M5,32.53Z" transform="translate(-0.05)"/><polygon points="3.06 30.03 3.06 30.03 3.12 30.08 3.06 30.03"/><path d="M8.17,37.18Z" transform="translate(-0.05)"/><path d="M6,39.48c.1.15-.15.15,0,.31C6,39.73,6.13,39.58,6,39.48Z" transform="translate(-0.05)"/><path d="M9.91,39.17h0C9.91,39.22,9.86,39.22,9.91,39.17Z" transform="translate(-0.05)"/><path d="M10,39.58Z" transform="translate(-0.05)"/><path d="M1.43,33.4h.15C1.48,33.4,1.48,33.25,1.43,33.4Z" transform="translate(-0.05)"/><path d="M4.09,29.83Z" transform="translate(-0.05)"/><path d="M11.08,39.12l.05.26A.56.56,0,0,0,11.08,39.12Z" transform="translate(-0.05)"/><path d="M11.29,40c-.05,0-.05.05-.1.05l.05.05Z" transform="translate(-0.05)"/><path d="M0,40.55Z" transform="translate(-0.05)"/><path d="M.05,40.55Z" transform="translate(-0.05)"/><path d="M11,39.68c.26.1.1-.36-.05-.46.1.05.05-.1.15-.05-.05-.15-.15-.31-.26-.26.1-.41-.41-.36-.15-.61a8.89,8.89,0,0,1-.71-.61c.2-.1.2.26.41.1-.26-.15-.46-.15-.61-.41,0-.05.1-.05.15-.05-.26-.15-.31-.41-.56-.51h.1c-.05-.05-.05-.1-.1-.05H9.4c-.05.15-.36.05-.41.1.26-.15-.1-.2.31-.36a.19.19,0,0,0-.15.05c0-.05,0-.1.1-.1-.15-.1-.2.05-.31-.1.05-.05.05,0,.1-.05-.1,0-.26,0-.31-.1s.05-.05.05,0c-.15-.15-.41-.1-.51-.36.2-.1,0-.1.15-.26l-.1-.05-.05.1c-.05-.1-.26-.05-.26-.15h.1L8,35.34v.15c-.15,0-.2.15-.2,0,.05,0-.05-.1,0-.2h0c-.1,0-.15,0-.15-.1s.15-.1.2-.15c-.15.05-.2-.15-.36-.1.05,0,.1-.05.15-.1l-.15.05c0-.05,0-.1.1-.1-.05-.15-.15.2-.2,0h.05c-.05-.15-.26-.2-.31-.41.1-.15.1.1.2-.05-.15-.15-.46-.26-.56-.46v.05c-.26.15,0-.2-.15-.2.05,0,.15-.05.1-.05-.05-.15-.26-.2-.46-.36h.05c0-.1-.1-.2-.15-.31S6,32.94,6,33c.15-.46-.51-.36-.41-.77,0,.05.1.05.1,0l-.15-.15c-.1.1-.05.05-.1.15a.31.31,0,0,1-.2-.05c.1.05.15-.1.2-.2,0,.05-.05.05-.1.05.1-.2-.2.1-.2-.1l.05-.05c-.05-.05-.15-.05-.2-.1.1-.1.1,0,.2-.05-.05-.05-.31,0-.26-.15.05,0,.1.05.15.05.1-.15.05-.15,0-.2h0L5,31.31v.05c-.36.1-.2-.15-.46-.15.26,0,.1-.05.26-.15,0-.05,0-.15.05-.15-.15,0,0-.15-.2-.15.05-.05-.05-.05.05-.1-.1-.05-.05.05-.1.1-.2-.05,0-.41-.36-.46-.2-.1-.36-.05-.51-.15a.11.11,0,0,1,.15-.05c0-.1-.05-.15-.15-.2.05,0,.05-.05.1-.1s-.15.05-.15-.05.15-.05.2-.05c-.1-.05-.2-.05-.31-.1a.31.31,0,0,1,.2-.05c-.1-.05-.2-.15-.36-.1v.1c0-.05.1-.1.1-.05.15,0,0,.1,0,.15l-.05-.05c-.2.2.15.2.2.31l-.2.05h.2c-.05.05-.1.15-.2.1-.05.15.1,0,.05.15H3.47l.1.05c-.05,0-.1.1-.1.05,0,.2.26.1.15.26h0c.2.15.15-.05.41-.05l-.26.31.15-.05a.16.16,0,0,1-.05.1c.15,0,.05-.05.15-.05-.05.15.2.2.05.36.1-.05,0-.15.15-.1-.2.15.1.1.05.26s-.1-.05-.15.1c.2-.1.05.2.15.2s.1-.05.1,0h-.1a.18.18,0,0,1-.1.05.73.73,0,0,0,.2-.1c.05.05.1.15.2.2-.05.05.05.26.1.41H4.65c.15-.1.2.05.31.1a.39.39,0,0,1-.2.05l.05.05H5l-.1.05c.1.1.26.1.31.31.1-.05.2-.31.41-.26a.39.39,0,0,1-.2.1s.1,0,.05.05H5.26c0,.1.1-.05.1,0s-.05.05-.1.1a.05.05,0,0,0-.05-.05.31.31,0,0,1-.05.2c.05-.05.1-.1.15-.05s-.05.1-.05.2.05.1.2,0c0,.05-.05.05-.05.1s.2.2.26.05h0c.26.05.2.41.36.51L6,33.76c.1.05.2.2.31.2s0,.1-.1.15c.1.05.15,0,.15.2-.1,0-.05.05-.1-.05.05.1,0,.2.2.2-.15.05-.05.15,0,.2v-.1c.05.05.1.1.1.15l-.15.1c0,.31.56.15.41.51.15,0,0-.15.1-.2.05.1-.05.36-.05.36,0,.2.31-.05.36.1.05-.05.15-.15.26-.1s-.1.26-.2.26V35.7c-.05,0-.1-.05-.1.05l.05-.05c0,.1.1.2,0,.26.1.05.1-.05.1-.1,0,.15.15.15.2.36a.18.18,0,0,1,.05-.1c.1.2.15,0,.26.1s-.2.1-.05.2c0,.1-.1.1-.15.1.15.05.1.26.15.31h-.1c.05,0,.05.05.1.05l.05-.1c0,.05.05.05,0,.1.1,0,.15-.15.26-.15s.15.1.05.2c-.05-.15-.1.1-.2,0C8,36.92,8,37,8,37H7.92c0,.2.2-.05.31.1-.1.05-.1.15-.05.15s.1-.1.2-.1c0,.15.1.05.15.1v-.05c.1-.05.1,0,.2.05a.07.07,0,0,1-.1,0c.15-.05,0,.26.15.26,0,.1-.15.1-.15.15.15.05,0,.2.15.26.05-.1.05-.1.2-.1l-.2-.15H9c-.05-.05-.15-.05-.15-.1s.1,0,.15-.1c-.1.2.2.1.15.26l-.26.15c0,.2.31.15.36.36v-.1c.1-.05.1.1.15.15-.1.05-.1.1-.15.15s.05.15.26.05l-.05.15c0,.15.36.05.36.15s-.15.05-.26.05a.05.05,0,0,0,.05.05c-.05,0,.15.05.1.1s.15,0,.15.05H9.81c.05,0,.1.05.2.05-.15.05-.15.1-.1.2s.05.2-.1.1l.05.05H9.81a.16.16,0,0,0-.1.05c0-.05-.05-.05,0-.05-.15-.1.2.31-.05.2s0-.1-.05-.15-.15-.15-.15-.1-.05.05-.15,0h0c-.1-.1-.1.15-.2.1v-.05a.52.52,0,0,1-.41.26c.05-.15.05-.05.05-.2-.05,0,0,.2-.1.26a.43.43,0,0,1-.15-.26h.1c-.05-.2-.15,0-.2,0v-.1c.05.15.05.36-.15.36v.05c-.1.2-.1-.1-.2.05L8,39.68a2.16,2.16,0,0,1-.36.26c.05-.15.2-.2.31-.31-.05,0-.26,0-.26.1s.05-.05.1-.05c-.1.15-.2.26-.36.26,0-.41-.36-.1-.46-.41-.26.15-.51-.05-.77-.05.1.31-.1,0-.05.31H6l-.2-.2c-.05-.1.05-.05.05-.15-.15,0-.05-.15-.15-.2,0,.1-.05.15-.15.1l.1.15c-.2.15-.15-.26-.41-.1l.05-.1c-.1.05-.41,0-.51.26,0-.05-.05-.1,0-.15-.26-.05-.56.26-.77.1v-.05c-.05,0-.1.15-.15.05v-.1c-.05.05-.15.15-.2.1l.05-.1c-.26-.1-.41.2-.61.26,0-.2-.2-.31-.31-.36v-.05c-.31-.05-.51.15-.77.26a.46.46,0,0,0-.36-.15H1.53s-.05-.05,0-.05a.39.39,0,0,1-.1.2c0-.05-.15.15-.05-.05h0c.26-.2.2-.15.2-.15l-.31.26.1-.1.05-.05v-.05c-.05-.05-.05-.1.1-.15-.05,0-.05,0-.1-.1l.15.05a1.22,1.22,0,0,0,.1-.46l.1.05c.05-.1-.41-.2-.36-.36h.2c.05-.2.26-.41.1-.61a.18.18,0,0,1,.1.05c0-.1.2-.36-.1-.36.2.05.05-.2,0-.36l.05.05c-.15-.15-.2-.15-.26-.31s.1,0,.05.05c.1-.1-.1-.1,0-.2l.1.05c.05-.1,0-.1-.1-.2s.1-.2.2-.2c-.05-.05-.15-.1-.1-.15s.1,0,.1.05c.15-.15-.1-.31.05-.41h.1a.89.89,0,0,0-.05.26c.15.05.15-.1.36.05C2.2,36,2,35.8,2.09,35.7h.05v-.05c.05-.05.05-.05.05-.1s.1-.1.1-.15c-.15-.05-.1-.1-.26-.05v.1H2v.15c-.05-.05-.1-.1,0-.15-.15-.15-.26-.2-.26-.26A4.7,4.7,0,0,1,2.25,35c-.05-.2.05-.41-.2-.61,0-.05.1-.05.15-.05s0,.05.05.1c-.05-.1.05-.31-.15-.36.1-.1.15.1.15-.05H2.3c.36-.26-.31-.66.15-1,0,.05,0,.05-.05.05.31-.36.1-.92.46-1.28.1-.1,0-.15-.1-.26h.15l-.1-.15c-.05-.2.46-.2.31-.51H3c.05-.05,0-.26.15-.2,0,0-.1-.05-.05-.05h.1l-.05-.26c.1-.15.31.1.41-.1S3.42,30,3.37,30s-.05.05-.15.05V30a.76.76,0,0,0-.66-.1l.1.15h-.1l.05-.1c-.1.05-.05.1,0,.15H2.45l.15.2c-.1,0-.15-.1-.26-.05.1.1.2,0,.26.15-.1.05-.2,0-.15.1a.18.18,0,0,1-.1-.05c-.05.15-.1.26,0,.31-.15,0-.05.26-.26.15.05.05.15.15.1.26-.2-.2-.1.2-.36.1.2.15,0,.31.1.51l-.05-.05a.27.27,0,0,1-.2.1c.2.05.2.2.31.31-.2.05-.2-.1-.41-.15.15.05.1.2.26.2-.15.05-.05.05-.26.05.26.1,0,.1.15.2-.15.1-.26-.05-.2.1-.1.05-.15-.1-.15-.1s.15.1.26.15-.15.05-.26.05.15.2.15.31h-.1c.1.15-.05.31.1.46H1.48a2.21,2.21,0,0,1,.26.05c0,.05.1.15-.05.1a.05.05,0,0,0-.05-.05l.05.05c-.2,0-.05-.1-.15-.15,0,.15.15.31.05.36s0-.2-.2-.15l.1-.1c-.2.1.1,0-.2,0-.1.15.05.2-.05.41.1.05.15,0,.2.1.1.31-.46.1-.31.36.1.05.31.15.15.26l-.2-.1c0,.15.31.15.15.26a.25.25,0,0,1-.05-.15c-.2.1.1.1.05.2H1.07c0,.2.05.41.05.61-.05,0-.1-.05-.15-.05a1.13,1.13,0,0,1-.31.77l.1.2a.07.07,0,0,1-.1,0c-.05.1.1,0,.15.1s-.1.05-.15,0c.1.2.15.56,0,.72l-.05-.05c-.1.15.26.2.1.31v-.05c-.1.31-.05.66-.31.87.2.1-.15.31.15.36a.7.7,0,0,0-.2.15l-.05.05-.05.05A.18.18,0,0,0,.2,39c-.05.1.15.2.15.31H.2l.15.15c-.05.05-.15.1-.2.15v.1a.23.23,0,0,1,.15-.15c.05.15-.2.51-.26.61l.05.2c0,.05,0,.05.05.1h.1a.19.19,0,0,1-.15.05H.15v.05c-.05.05-.05.1.15,0,0-.05.1-.1.15-.1s.31.1.56.1l-.1.1H2c-.1-.05-.05-.26,0-.26v.15c.05-.1-.05-.05.05-.2.1,0,.05.2,0,.26l.1-.05c0,.05,0,.05-.05.15.05-.1.2.15.26,0v.05c.26,0,.36-.05.56-.05,0-.15.1-.1.15-.2a1.62,1.62,0,0,0,.46.15c.1-.05.05-.1.1-.2,0,.15.15.1.1.2a1,1,0,0,0,.51-.1.16.16,0,0,1-.05-.1.11.11,0,0,1,.1.1h0c.31-.2.66.41.92.1h0l.26-.15c.1,0-.05.1,0,.2.26-.2.41.05.61-.1.15.41.61,0,.82.2v-.1c.05-.1.05.05.1.05s-.05-.1-.05-.15a5.27,5.27,0,0,1,1.53.2c.2,0,.1-.46.36-.26l-.15.26a1.1,1.1,0,0,1,.56-.1h.41a1,1,0,0,0,.41-.1c0,.05,0,.1-.05.1.15.1.46,0,.41-.1.1,0,.1.1.15.1.2.05.2-.2.36-.1s0,.05,0,.05.41-.05.15-.15h.2a.19.19,0,0,0-.05-.15.56.56,0,0,1-.05-.26C11,39.94,11.24,39.78,11,39.68ZM2.2,35.44c0,.05-.05.05,0,0s-.05,0,0,0l-.05-.05C2.14,35.44,2.14,35.44,2.2,35.44Zm-1,0v.05h0Zm-.05.31c0-.05,0-.05.05-.1s.1,0,.1.05S1.12,35.7,1.12,35.75Z" transform="translate(-0.05)"/><path d="M0,40.55Z" transform="translate(-0.05)"/><path d="M2,35.34Z" transform="translate(-0.05)"/><path d="M5.82,33.45Z" transform="translate(-0.05)"/><polygon points="0.1 39.33 0.15 39.33 0.1 39.27 0.1 39.33"/><path d="M4.9,31.15a.05.05,0,0,0-.05.05h0Z" transform="translate(-0.05)"/><path d="M9.45,36.77h0C9.5,36.82,9.5,36.77,9.45,36.77Z" transform="translate(-0.05)"/><path d="M7.81,35.34h.1C7.86,35.29,7.86,35.29,7.81,35.34Z" transform="translate(-0.05)"/><path d="M11.08,39.12Z" transform="translate(-0.05)"/><path d="M8,35.44c0-.05-.05-.05-.05-.1S7.92,35.39,8,35.44Z" transform="translate(-0.05)"/><path d="M3.88,29.42Z" transform="translate(-0.05)"/><path d="M3.73,29.42a.05.05,0,0,1,.05.05C3.78,29.42,3.78,29.37,3.73,29.42Z" transform="translate(-0.05)"/><path d="M4.24,30.13c0-.05.05-.15-.05-.2H4.14C4.24,29.93,4.14,30.13,4.24,30.13Z" transform="translate(-0.05)"/><path d="M4.14,31.15,4.09,31c-.05.05-.05.1-.1.05C3.93,31.31,4,30.95,4.14,31.15Z" transform="translate(-0.05)"/><path d="M4.34,31.56c-.05-.05-.05.05-.1.05C4.34,31.66,4.34,31.66,4.34,31.56Z" transform="translate(-0.05)"/><path d="M6.38,34.42l-.1.05C6.33,34.52,6.33,34.42,6.38,34.42Z" transform="translate(-0.05)"/><polygon points="7.25 34.52 7.3 34.42 7.2 34.47 7.25 34.52"/><polygon points="6.74 35.39 6.84 35.44 6.79 35.39 6.74 35.39"/><path d="M9.86,39.43l.2.1C10,39.48,9.75,39.38,9.86,39.43Z" transform="translate(-0.05)"/><path d="M8.27,39.68c-.05-.1-.1-.15-.15-.05S8.22,39.73,8.27,39.68Z" transform="translate(-0.05)"/><path d="M1.48,39.32l.05-.05a.05.05,0,0,0-.05.05Z" transform="translate(-0.05)"/><path d="M34.32,3.12l-.1-.1a.1.1,0,0,0-.05.15Z" transform="translate(-0.05)"/><path d="M34.22,3.27a.34.34,0,0,0,.26.36c0,.05-.05.05-.1.05a.32.32,0,0,0,.41-.1c-.2,0-.15-.05-.41,0-.1-.05-.05-.15,0-.2S34.32,3.27,34.22,3.27Z" transform="translate(-0.05)"/><path d="M41.16,14.61l.05-.05C41.16,14.56,41.11,14.61,41.16,14.61Z" transform="translate(-0.05)"/><path d="M40.24,15.07A.05.05,0,0,0,40.3,15Z" transform="translate(-0.05)"/><path d="M40.19,10.93l.05.15C40.35,11,40.24,11,40.19,10.93Z" transform="translate(-0.05)"/><path d="M35.55,4.39c-.05,0-.05-.05-.1-.05s.05.05.1.05Z" transform="translate(-0.05)"/><path d="M38.46,9.09h0c-.05-.05-.1-.05-.1,0Z" transform="translate(-0.05)"/><path d="M37.38,7.56h-.15a.18.18,0,0,0-.05.1A.75.75,0,0,1,37.38,7.56Z" transform="translate(-0.05)"/><path d="M38.76,16Z" transform="translate(-0.05)"/><path d="M26,26.51c.2,0-.15.31.15.26C26.15,26.71,26.25,26.4,26,26.51Z" transform="translate(-0.05)"/><path d="M35.65,18.69h0Z" transform="translate(-0.05)"/><path d="M34.47,19.82c-.05,0-.05,0-.1.05h0A.16.16,0,0,0,34.47,19.82Z" transform="translate(-0.05)"/><path d="M33.15,20.89h0l.1-.05Z" transform="translate(-0.05)"/><path d="M9.19,34.32c0-.05.05-.1.05-.15C9.19,34.27,9,34.12,9.19,34.32Z" transform="translate(-0.05)"/><path d="M35.55,4.44h0a.07.07,0,0,0-.1,0Z" transform="translate(-0.05)"/><path d="M34.27,21.4h-.15v.05Z" transform="translate(-0.05)"/><path d="M43.26,13.69a5.84,5.84,0,0,1-.77-.87c.05-.2.26.26.31.05l-.15-.15-.15-.1-.31-.2a2.42,2.42,0,0,1-.51-.51l.05.1c-.26.15-.1-.36-.36-.41.05.05.15-.05.15-.05-.15-.26-.46-.41-.82-.71h.1a3.9,3.9,0,0,0-.41-.56c-.1,0-.15-.1-.2.05-.1-.71-.92-.71-1-1.33.05.05.15.05.1.05L39,8.63c-.05.1,0,.1,0,.2a.44.44,0,0,1-.31-.15c.2.1.15-.1.15-.26,0,.05-.05.05-.1.05,0-.31-.2.1-.31-.2l.05-.05c-.1-.05-.26-.1-.31-.2s.15.05.2,0c-.1-.15-.41-.1-.46-.31.1.05.15.1.26.15a.49.49,0,0,0-.1-.36h0l-.15-.31v.1c-.41.05-.36-.31-.72-.41.36.1.15-.05.26-.15s-.05-.2,0-.2c-.2-.05-.1-.26-.36-.31.05-.05-.1-.1,0-.15-.15-.1-.05.1-.1.1-.31-.1-.31-.66-.77-.82-.31-.2-.46-.15-.77-.36,0-.15.2-.05.2-.05a.45.45,0,0,0-.31-.36c.05,0,.05-.05.05-.15s-.2.05-.26-.15c.05,0,.15-.05.26,0-.15-.1-.31-.15-.46-.26.05-.1.15,0,.26,0-.15-.1-.36-.31-.51-.26l.05.1c-.05-.05.05-.1.1-.1.2.05.1.2.1.26L34.83,4c-.15.31.36.36.51.51l-.2.05.31.05c0,.05-.05.2-.15.1.05.2.15.05.15.26h-.05l.15.1c-.05,0-.1.1-.15,0,.1.31.46.26.41.46h-.05c.31.26.15-.05.51.05L36.11,6l.15-.05c0,.05.05.1,0,.15.2.05.05-.05.15-.05.05.26.41.41.26.61.15,0-.05-.2.15-.1-.15.2.2.15.26.41-.15.05-.2-.15-.15.1.26-.05.2.31.36.41.15-.1.31.2.51.41-.05.05.26.46.36.71H38.1c.15-.1.31.15.46.26a.23.23,0,0,1-.26,0l.1.15a.2.2,0,0,1,.2.1l-.15.05c.15.15.46.26.56.56.1-.05.1-.41.41-.26-.05.05-.15.15-.2.1s.1.05.1.1h-.15c.05.15.1,0,.2.1-.1.05,0,.1-.05.15s-.05-.1-.1-.1a1,1,0,0,1,.1.36c.05-.05.1-.1.15-.05s-.05.15,0,.26.15.15.26.05c.05.05,0,.1,0,.15.15.05.41.41.41.2v-.05h0c.36.2.46.71.77,1l-.05.05a4.45,4.45,0,0,0,.56.46c.05.05.05.2-.05.2a.55.55,0,0,1,.31.36c-.05-.05.1.15-.05-.05.1.2.1.31.36.41-.1,0-.1.05-.05.15s.05.1.1.1v-.1l.15.15a.31.31,0,0,0-.2.05c-.05.1.05.1.15.15s0,.2-.2.15c.05.1.15,0,.26.1a.23.23,0,0,1-.26,0h-.26c-.31.1-.05.36-.36.51.05,0,.2.1.05.31s-.36-.05-.31-.15.05-.05.1,0,.1-.15,0-.15v.05c-.1,0-.36.2-.36.1-.1.15,0,.1.1.05a4.26,4.26,0,0,0-.61.41c.05,0,.15.05.1.05-.41.2-.1.2-.31.41-.2.05-.1-.2-.26.05-.2.05-.15-.1-.1-.2-.15.26-.46.26-.56.31l.1-.1-.15.15.15.05c-.1.05-.15.1-.2.05,0,.1.15.1.1.31-.1,0-.2.26-.36.15.31-.15-.15-.1.1-.31l-.15.15V16c-.36.1,0,.26-.26.46,0-.1-.15-.1-.2-.05.1-.1.15.1.1.2-.2.1-.15.2-.26.26l.1-.05c0,.1-.05.15-.15.26-.05-.05.1-.1,0-.1-.05.26-.41.1-.51.36-.1,0-.1-.1-.2-.1-.15.26-.31.1-.46.36.15.05.15,0,.05.2l.31-.36-.1.31c.1-.1.2-.26.26-.26-.05.15-.05.15.05.15-.26,0-.26.31-.46.36l-.26-.2c-.36.1-.36.51-.77.72l.15-.05c.05.15-.2.2-.26.31-.05-.1-.15-.05-.26-.05.05.05-.26.2-.15.36h-.26c-.31.15-.15.46-.41.66,0-.15-.15-.1-.05-.31q-.15.08-.15.15c-.1,0-.15.31-.31.31,0,.05.05.15-.05.2l-.05-.05c.05.05-.1.15.05.2-.46-.05-.72.61-1.12.61a1.77,1.77,0,0,1-.56.51c0-.05-.05-.05,0-.05-.31.1.05.36-.31.46s.1-.2-.05-.15c-.26-.2-.31.31-.61.31l.05-.05c-.2,0-.26.36-.51.56a.05.05,0,0,0-.05-.05,1.84,1.84,0,0,1-.51.77c0-.15.05-.15-.05-.2-.1.1.15.15,0,.31-.1,0-.31.05-.41-.05l.2-.15c-.2-.05-.26.2-.36.26l-.05-.05c-.26.26-.15.41-.46.66h.05c-.05.31-.2.05-.31.26l-.15-.1c-.1.1-.26.46-.41.66,0-.2.2-.46.31-.66-.1.1-.36.31-.36.46.05-.05.05-.15.1-.15a1,1,0,0,1-.36.61c-.2-.36-.61.41-1,.26-.31.41-.82.56-1.23,1,.36.1-.1.1.1.31-.1.1-.1.1-.15.1h0l-.41.1c-.15,0,.05-.15,0-.2-.26.15-.2,0-.36.05.1.05,0,.2-.15.26l.26-.05c-.2.41-.46,0-.66.41l.05-.15c-.1.2-.61.51-.61.82-.05,0-.15-.05-.1-.1-.41.31-.72.92-1.07,1.07v-.1c-.05.1-.05.2-.15.26s0-.1-.05-.05a.46.46,0,0,1-.26.31l.05-.15c-.46.26-.46.66-.72,1-.15-.15-.51,0-.66.1v-.05a7,7,0,0,0-1,1.17c-.41,0-.92.66-1.43.87.1,0,.1.15.05.2s-.15.36-.26.15l.05-.05c-.2-.1-.36.1-.51.26l.15.2c-.66.05-1,1-1.38.92a2.22,2.22,0,0,1-.2.36l-.15.1a4,4,0,0,0-.77.61v-.15c-.2.15.05.51-.15.66l-.2-.1c-.31.26-.77.41-1,.82,0-.05-.05-.1,0-.15-.15.1-.66.41-.46.56-.15-.15-.36.26-.46.51l-.05-.15c-.05.26,0,.31-.15.51-.05.05-.1-.05-.05-.1-.1.05-.1.1-.15.15s0,.1-.1.1v-.1c-.1.05-.05.1-.1.26s-.2.15-.2-.05c0,.1-.1.2-.15.05a.18.18,0,0,1,.05-.1c-.05-.26-.26-.05-.31-.41.15.05.15.05.15,0s.1.1.1.15a368863.23,368863.23,0,0,0,.1.1c.05-.15.05-.2.2-.31l-.05.05h-.05l-.1-.05c-.1-.05-.26-.15-.26-.26v-.05h.05a.11.11,0,0,0-.1-.1c-.05-.05-.05-.1-.1-.15s-.1-.26-.15-.36c-.1.1-.2-.05-.2.15a.16.16,0,0,1,.1.05l.05.05h0a1.12,1.12,0,0,1,.15.26c-.1-.05-.2-.05-.26-.2H11.7c.05-.26,0-.56.05-.66-.26-.26-.51-.66-.87-.66-.1-.05,0-.15,0-.2s.1.1.15.1c-.15-.1-.36-.46-.56-.41-.05-.26.2,0,0-.26h.05c-.15-.72-1-.66-1.12-1.53V33C9,32.23,8.27,31.61,8,30.74c-.1-.26-.2-.2-.36-.26l.1-.1-.31-.1c-.31-.26,0-.72-.46-1l-.05.1c-.05-.15-.31-.41-.2-.46s-.1,0-.1-.05l.05-.05-.31-.36c-.1-.26.15-.15.15-.36h.05l-.05-.26c.1.05.1.15.2.15s-.2-.1-.15-.26c.1.05.15.1.15,0,.05.05.05.05.05.1,0-.1.1-.15.05-.26.15.05.15-.2.31-.05,0-.05-.05-.2,0-.26.1.31.2-.15.36.05-.1-.26.15-.31.2-.51v.05c.1-.05.15,0,.2-.05-.15-.15-.05-.31-.1-.41.2.05.1.2.26.31-.1-.1.05-.26-.1-.31a.46.46,0,0,1,.26.05c-.15-.2.05-.1-.05-.26.15,0,.2.15.26,0,.1,0,.05.15.05.15s-.1-.2-.15-.26c.1-.15.15.05.26.05s0-.31.05-.36.05,0,.05.05c0-.2.26-.26.2-.46h.05a.71.71,0,0,1-.2-.15c.05-.05,0-.15.1-.1-.05,0,0,.05,0,.1v-.1c.15.1,0,.1.05.2.05-.15.05-.36.15-.36s-.1.2.05.2l-.15.05c.26.1-.1.05.2.2.2-.1.1-.2.31-.31-.05-.1-.1-.1-.15-.2.1-.31.46.15.46-.15-.05-.1-.15-.31,0-.31l.1.15c.15-.1-.1-.31.1-.31a.11.11,0,0,1-.05.15c.2,0,0-.15.05-.2l.15.1c.15-.15.2-.41.36-.61.05.05.05.1.1.1a1.37,1.37,0,0,1,.77-.51v-.2s.1,0,.1.05-.05-.05-.05-.15.1,0,.1.05c.05-.2.2-.56.46-.61v.05c.15-.05-.1-.36.1-.36v.05c.31-.2.46-.56.82-.56-.1-.2.31-.15.1-.41.26-.05.26.05.51-.05.05-.05-.05-.2,0-.31l.1.1v-.2l.15.1.05-.1a.19.19,0,0,1-.15-.05c.05-.15.31-.15.36-.1l.15-.31c.05.05,0,.1,0,.15,0-.26.15.1.15-.1-.05,0-.05-.05-.05-.1a.42.42,0,0,0,.31-.2l.05.1a5.59,5.59,0,0,0,.51-.56c-.1.05-.2-.1-.15-.2l.15.1c-.05-.1-.1,0-.1-.15s.15.1.15.15l.05-.1c.05.05.05.05.05.1-.05-.1.26,0,.2-.2l.05.05a3.3,3.3,0,0,0,.41-.46c-.1-.1,0-.15-.05-.26a1.2,1.2,0,0,0,.51-.26c.05-.15-.05-.1-.05-.2.1.1.2-.05.2.1a1.46,1.46,0,0,0,.36-.51c-.05,0-.1,0-.1-.05s.1-.05.15,0h0c.1-.36.82-.2.82-.61h0l.1-.31c.1-.05,0,.1.15.1.05-.36.36-.31.46-.56.41.15.46-.46.82-.46l-.05-.05c0-.1.1,0,.15-.05s-.1,0-.1-.1a5.18,5.18,0,0,1,1.38-1c.15-.1-.2-.41.1-.46l.05.15c.15-.41.61-.56.82-1,0,.05.05.1,0,.1.15.05.26-.2.15-.26.05-.05.05.05.15.05s.05-.26.15-.2v.05c0-.1.2-.15.05-.26.15-.05.15-.26.31-.26-.05-.15.26-.1.1-.31.15.2.31-.05.31-.2,0,.05.1,0,.15.1.1-.05.15-.15.05-.26.36.05.15-.41.46-.26.15-.31.36-.56.51-.82.15.2-.2.2-.05.41.15-.26.15-.51.41-.66.05,0,.05.1.05.15.15-.26.41-.36.51-.61v.1c.05-.05.1-.05.05-.1v.05c-.15-.05-.05-.36-.1-.41.15.31.26-.1.36.26a.19.19,0,0,0-.05-.15c.05,0,.1,0,.1.1.1-.15,0-.2.1-.31.05.05,0,.05.05.15,0-.1,0-.26.1-.31s.05.05,0,.05c.15-.15.1-.46.36-.56.1.2.1,0,.26.15l.05-.15L26.15,9c.1-.05.1-.26.2-.26v.1l.15-.15-.15.05c.05-.15-.15-.15,0-.26,0,.05.1-.05.2-.05h0c0-.1,0-.15.1-.2s.1.15.15.2c-.05-.15.2-.2.15-.41,0,.05.05.1.1.15L27,8.07a.19.19,0,0,1,.15.05c.15-.1-.2-.15,0-.2V8c.2-.1.26-.31.41-.36.15.1-.1.15.05.2.15-.2.26-.51.51-.66h-.05c-.15-.26.26,0,.26-.2,0,.05.05.15.05.1.15-.1.2-.26.36-.51v.05c.1,0,.2-.15.36-.2,0-.05.05-.1-.05-.15.51.1.36-.56.82-.51-.05,0-.05.1,0,.1l.15-.2c-.1-.1-.05-.05-.15-.05a.31.31,0,0,1,.05-.2c.15.72.36.72.41.72S30.29,6,30.29,6c.26.1-.15-.2.1-.2l.05.05c.05-.05.05-.15.1-.2.1.1,0,.1.05.2.05-.05,0-.31.15-.31,0,.05-.05.1-.05.15.2.05.15,0,.26,0h0l.2-.05H31.1c-.1-.36.15-.2.15-.51,0,.26.05.1.15.26.05,0,.15,0,.15.05,0-.15.15,0,.15-.2.05.05.05-.05.15.05.05-.1-.05-.05-.1-.1,0-.26.41-.1.46-.41s0-.36.1-.56c.1,0,.05.15.05.15s.15-.05.2-.15c0,.05.05.05.1.1s-.05-.15.05-.2.05.15.05.2c.05-.1.05-.2.1-.31a.31.31,0,0,1,.05.2c.05-.1.15-.26.1-.36h-.1c.05-.05.1.1.1.1,0,.15-.15.05-.15,0l.05-.05c-.26-.2-.2.2-.31.31l-.2-.2v.2c-.05,0-.15-.1-.1-.15-.15,0,0,.1-.15.05V4l-.05.1c0-.05-.1-.1-.05-.1-.2,0-.1.31-.26.2h0c-.15.2.1.15.05.41l-.36-.2.1.15a.07.07,0,0,1-.1,0c0,.15.05.05.1.15-.2-.05-.2.26-.41.1.05.1.15,0,.1.15-.2-.2-.1.15-.26.1S31.1,5,30.95,5c.1.2-.2.1-.26.2.1.15-.1.2-.2.36-.05-.05-.31.1-.46.15V5.62c.1.15-.05.2-.1.31-.05-.1-.1-.15-.05-.2l-.1.05v.15l-.05-.1c-.1.1-.1.31-.31.36.05.1.36.2.26.36-.05-.05-.15-.15-.1-.2s0,.1-.05.1V6.28c-.1,0,.05.1,0,.15-.05-.1-.1,0-.1-.1a.05.05,0,0,0,.05-.05.23.23,0,0,1-.26,0c.05.05.1.1.05.15s-.1-.05-.2-.05-.1.05,0,.2c-.05,0-.1,0-.1-.05,0,.1-.26.2-.05.31h0c-.1.26-.41.26-.56.41l-.05-.15c-.05.15-.2.2-.2.36-.05,0-.15,0-.15-.05-.05.1-.05.15-.2.15,0-.15-.1-.05.05-.1-.15.05-.2,0-.2.2-.05-.15-.2-.05-.2,0h.15c-.05.05-.1.1-.15.1l-.1-.15c-.36,0-.15.61-.51.46,0,.15.15-.05.2.1-.1.05-.36-.05-.41,0-.2.05.05.31-.15.36.05.05.15.15.1.26s-.31-.1-.26-.2h.05c0-.05.05-.1-.05-.1l.05.05c-.1,0-.2.1-.26,0-.05.1.05.1.1.1-.2.05-.2.15-.36.2a.18.18,0,0,1,.1.05c-.26.1,0,.15-.1.31-.15,0-.1-.2-.2,0-.1,0-.1-.1-.1-.15-.05.2-.26.1-.36.15l.05-.1a.11.11,0,0,1-.1.1l.1.05c-.05,0-.1.05-.1,0,0,.1.15.15.15.26s-.1.15-.2.05c.2-.1-.1-.1,0-.26,0,.05-.05.05-.1.05V9.29c-.26,0,.05.2-.1.31-.05-.1-.15-.1-.15-.05s.1.1.1.2c-.15.05-.05.15-.1.15h.1c.05.1,0,.1-.05.2-.05-.05.05-.1,0-.1.05.2-.26,0-.31.2-.1,0-.1-.1-.2-.1-.05.2-.2,0-.26.2.1.05.1.05.1.2l.15-.26v.26c.05-.05.05-.15.1-.2,0,.15,0,.1.1.15-.2-.05-.1.2-.26.2l-.41-.1c-.26,0-.15.36-.41.46h.1c.05.1-.1.1-.15.2-.05-.1-.1-.05-.2-.1.05.05-.15.1,0,.26l-.15-.05c-.2.1,0,.36-.15.46,0-.1-.1-.1-.05-.26-.05.05-.1.05-.05.1s-.05.2-.15.2.05.15,0,.15L22.47,12c.05.05-.05.1.1.15-.36-.1-.41.36-.72.31a1.55,1.55,0,0,0-.26.36c0-.05-.05-.05,0-.05-.2.05.1.31-.1.36s0-.15-.05-.15c-.26-.26-.15.2-.36.15V13c-.15,0-.1.26-.26.36a.05.05,0,0,0-.05-.05.59.59,0,0,1-.2.51c-.05-.15,0-.1-.1-.15s.15.15.05.26a.38.38,0,0,1-.31-.1l.1-.1c-.15-.1-.1.1-.2.15l-.05-.05c-.15.15,0,.31-.2.46l.05.05c.05.2-.15,0-.15.15l-.1-.15a4.82,4.82,0,0,0-.15.46c-.05-.15.05-.36.05-.46-.05.05-.2.2-.15.31,0-.05,0-.1.05-.1a.32.32,0,0,1-.15.41c-.26-.31-.36.2-.66.05-.1.31-.46.31-.66.56.31.15-.05.05.15.31-.05.05-.05.1-.1.05h-.31c-.1-.05,0-.1-.05-.15-.05.1-.05,0-.2,0,.1.05.05.15-.05.2h.2c-.05.26-.31-.05-.41.2v-.1c-.05.1-.31.31-.26.56a.11.11,0,0,1-.1-.1c-.26.15-.31.61-.56.66l-.05-.05c0,.05.05.15-.05.15a.05.05,0,0,0-.05-.05c0,.05,0,.2-.1.2v-.1c-.26.1-.15.46-.31.66-.15-.15-.36-.05-.46,0V18c-.26.2-.26.51-.46.77-.31-.05-.51.36-.87.46.05,0,.1.15.1.2s-.05.26-.15.1h0c-.15-.1-.26,0-.36.1l.15.2c-.46-.1-.46.61-.82.51,0,.1-.05.15-.1.26l-.05-.2a1.28,1.28,0,0,0-.41.36l-.05-.1c-.1.1.15.41.05.51L12.15,21c-.15.15-.46.2-.51.51,0-.05-.05-.05-.05-.1s-.41.2-.2.36c-.15-.15-.2.15-.2.31l-.1-.1c.05.2.1.26,0,.41-.05,0-.1-.05-.05-.05-.15.05,0,.15-.15.2v-.1c-.1.1-.05.1-.05.26s-.2.15-.31.05c.05.05.05.2,0,.2s-.05-.05-.05-.1c-.2.05-.1.36-.31.31l-.05-.05.2-.2c-.1-.1-.2,0-.26-.2,0,.15,0,.41-.15.46H9.86a.05.05,0,0,0-.05.05c-.05,0-.05,0-.1.05s-.15.05-.2.1c.1.1,0,.15.15.15v-.1h0l.1-.1c0,.1,0,.15-.1.15a.86.86,0,0,1,.1.26c-.2-.1-.41-.05-.51-.1-.1.2-.31.36-.2.66,0,.05-.1,0-.15,0s.05-.05,0-.1c-.05.15-.2.26-.1.41-.15.05-.05-.2-.2,0v-.05c-.51.05-.1.82-.71.82H8c-.46.2-.61.82-1.17,1-.15.05-.05.15-.05.26l-.15-.1v.2c-.05.26-.51,0-.51.36l.1.05c-.1.05-.15.26-.26.15s.05.1,0,.1l-.05-.05.1.26c-.15.1-.2-.26-.41-.05-.05.1-.05.36.05.36s.1-.05.15,0v.05H5.72a.38.38,0,0,0-.31.46l.26.15-.05.15-.1-.2c-.05.15.1.2.2.26a.19.19,0,0,0-.05.15L6,29c-.05.05-.2,0-.15.15s.1-.2.31-.05c-.05.15-.1.2.05.26a.1.1,0,0,1-.15,0c.15.1.2.31.36.31-.05.2.26.36.05.46a.88.88,0,0,1,.36.2c-.36-.05.26.41-.05.51.31,0,.41.46.66.61a.16.16,0,0,1-.1-.05,1,1,0,0,1,.05.36c.2-.1.36.1.56.15-.05.26-.26,0-.41.15.15-.1.31.2.41.1a.55.55,0,0,1-.05.31c.2-.1.1.1.31.1,0,.26-.15.15.05.36,0,.15-.2,0-.2,0,.15.2.2,0,.36,0,.2.2-.05.2-.05.36.15.15.36.15.46.26s0,.05-.05.05c.26.1.36.51.61.56v.05a.27.27,0,0,1,.2-.15c.05.1.2.1.15.2a.19.19,0,0,0-.15-.05l.1.05c-.1.2-.15-.1-.26-.05.15.15.46.31.51.46-.1.15-.31-.31-.26-.05l-.2-.15c-.1.31-.1-.15-.2.15.15.31.31.31.46.61.1,0,.1-.1.2-.1.41.31-.15.56.26.77.15,0,.36-.1.41.2l-.2.05c.2.31.36,0,.46.36-.1,0-.2-.2-.2-.15,0,.31.2.05.31.2l-.1.2c.26.31.56.56.87.87-.05,0-.15,0-.1.1a1.35,1.35,0,0,1,.26.31c.1.15.26.36.41.56s.26.41.41.61c.05.05.05.1.1.15l.15-.1a.51.51,0,0,0,.26-.2,1.53,1.53,0,0,0,.2-.41c.05-.05.15,0,.05.05.31-.15,0-.1.1-.26s.2-.1.15.05c.26-.31.31-.46.51-.66a1.07,1.07,0,0,1,.56-.41v.1c.26-.15.05-.46.31-.51V37a6.21,6.21,0,0,1,1.43-1c-.05-.2.51-.31.36-.56a1.91,1.91,0,0,0,.77-.26c.1-.05.05-.26.15-.41l.1.1.05-.26.2.05.1-.15c-.05.05-.15.05-.15,0,.15-.2.51-.31.56-.26l.36-.46c.05.05-.05.15-.05.2.1-.31.15.1.26-.2-.05,0-.05-.1-.05-.1a1,1,0,0,0,.56-.41l.05.1c.36-.26.66-.61,1-.92-.15.05-.26-.1-.15-.2l.15.1c0-.15-.15.05-.1-.15s.2.05.15.15l.1-.2c.05.05,0,.1.05.15,0-.15.41-.1.36-.31l.05.05c.36-.31.51-.46.77-.72-.1-.1.05-.2.05-.36a6.59,6.59,0,0,0,.82-.46c.15-.2,0-.15,0-.26.1.1.36-.15.26.05a5.4,5.4,0,0,0,.72-.77c-.1,0-.15,0-.15-.05s.2-.1.2-.05v.05c.31-.51,1.28-.56,1.43-1.07v.05l.26-.41c.2-.1-.05.15.15.1.26-.51.66-.51.87-.87.51.1.87-.77,1.38-.87l-.15.05c.05-.15.15-.05.2-.1s-.15,0-.1-.05a14.12,14.12,0,0,1,2.45-1.74c.31-.2-.15-.51.36-.61v.2c.46-.61,1.17-.92,1.63-1.53a.19.19,0,0,1-.05.15c.2,0,.46-.36.36-.41.1-.1.1,0,.15,0s.2-.36.36-.31v.1c.05-.1.36-.26.2-.31.26-.1.36-.36.56-.46,0-.2.41-.2.31-.41.15.2.46-.15.56-.36,0,.1.15-.05.15.1.15-.1.26-.26.15-.36.46,0,.41-.61.82-.46a8.66,8.66,0,0,1,1.12-1.23c.15.2-.41.36-.26.56.31-.36.41-.72.82-1,.1-.05,0,.1,0,.2.31-.36.77-.56,1-1a.16.16,0,0,1-.05.1c.05-.05.15-.1.1-.15l-.05.05c-.2-.05.05-.46.05-.51.05.31.41-.2.46.26a.16.16,0,0,0,0-.2c.1-.05.1,0,.1.1.2-.26.05-.26.26-.41.05.05,0,.1,0,.15A.81.81,0,0,1,40,16.5c0,.05.05.05,0,.1.31-.26.36-.61.77-.82.05.26.15-.05.31.1l.15-.2h-.15c.15-.15.2-.36.41-.41l-.05.15.31-.26-.2.1c.1-.2-.15-.15.1-.31-.05.05.15-.15.31-.1h0a.68.68,0,0,1,.26-.31c.05,0,.1.2.15.2s.05-.15.2-.31.26-.26.2-.31.1.1.15.1-.05-.1-.05-.15c.15-.05.2-.05.26,0,.36-.26-.41,0,.1-.26,0,0,.05,0,0,.05C43.21,13.74,43.21,13.74,43.26,13.69ZM10.72,23.54c0,.05.1,0,.15,0s-.05.05-.1.1S10.67,23.54,10.72,23.54Zm-.1.2h0l-.05.05C10.62,23.8,10.62,23.8,10.62,23.75Zm-.87-.46h0c0-.1,0-.1.05-.05ZM11.7,37.54l-.1-.1c.05.05.1.05.1.1Zm.2.26c.05-.05.1-.05.1,0s0,.1.05.2C12,37.89,12,37.84,11.9,37.79Zm.36-1.17c0-.05-.05-.05-.1-.1h.05A.16.16,0,0,1,12.26,36.62Z" transform="translate(-0.05)"/><path d="M12,36.52Z" transform="translate(-0.05)"/><path d="M40.19,10.88Z" transform="translate(-0.05)"/><polygon points="17.72 34.98 17.72 34.98 17.72 35.03 17.72 34.98"/><path d="M38,7.56,38,7.41C38,7.46,38,7.51,38,7.56Z" transform="translate(-0.05)"/><path d="M37.49,6.79c-.05,0-.05,0-.05.05h0Z" transform="translate(-0.05)"/><path d="M38.76,17.62Z" transform="translate(-0.05)"/><path d="M41.88,14.71c0,.05-.05.1-.05.15S41.93,14.76,41.88,14.71Z" transform="translate(-0.05)"/><polygon points="35.09 20.73 35.09 20.73 35.03 20.73 35.09 20.73"/><path d="M41.83,14.86c-.05.05-.1.05-.15.1S41.78,14.91,41.83,14.86Z" transform="translate(-0.05)"/><path d="M35,3.78Z" transform="translate(-0.05)"/><path d="M34.83,3.68l.1.05C34.88,3.73,34.88,3.68,34.83,3.68Z" transform="translate(-0.05)"/><path d="M36,5C36,5,36,4.75,35.85,4.7H35.8C35.9,4.7,35.85,5,36,5Z" transform="translate(-0.05)"/><path d="M36.46,6.59l-.15-.26c0,.05,0,.15-.1.1C36.31,6.79,36.26,6.28,36.46,6.59Z" transform="translate(-0.05)"/><path d="M37,7.35c-.1-.1-.05.05-.1.05C37.08,7.46,37.08,7.46,37,7.35Z" transform="translate(-0.05)"/><path d="M41.37,12.61c.1.1.05-.05.1-.05Z" transform="translate(-0.05)"/><path d="M43,13.23a.19.19,0,0,0-.05-.15h-.15Z" transform="translate(-0.05)"/><path d="M41.93,13.64v.05c0-.05.05-.05,0-.05Z" transform="translate(-0.05)"/><path d="M33.3,20.58l.15.1C33.5,20.63,33.4,20.48,33.3,20.58Z" transform="translate(-0.05)"/><path d="M29.31,24a1.12,1.12,0,0,0,.26-.15A.17.17,0,0,0,29.31,24Z" transform="translate(-0.05)"/><polygon points="17.93 33.15 17.98 33.04 17.82 33.2 17.93 33.15"/><path d="M33.5,3.57c0-.05-.1-.1-.1-.05l.1.15Z" transform="translate(-0.05)"/><path d="M33.09,3.63c.05-.05.1,0,.15.05s.1,0,.05-.1-.2-.05-.2.05-.1,0-.1-.05a.55.55,0,0,0,.15.36C33.15,3.78,33.2,3.83,33.09,3.63Z" transform="translate(-0.05)"/><path d="M26.25,8.73Z" transform="translate(-0.05)"/><path d="M28.7,6.74c.05.05.05,0,.1,0Z" transform="translate(-0.05)"/><path d="M32.69,4.34v0Z" transform="translate(-0.05)"/><path d="M29.83,5.67h0v0Z" transform="translate(-0.05)"/><path d="M30.74,5.16c-.05-.05-.05-.1,0-.1L30.69,5C30.64,5,30.69,5.11,30.74,5.16Z" transform="translate(-0.05)"/><path d="M24.82,9.45Z" transform="translate(-0.05)"/><path d="M17.87,15.68c.15,0,0,.26.2.26C18,15.88,18,15.68,17.87,15.68Z" transform="translate(-0.05)"/><path d="M22.57,11.8a.05.05,0,0,0-.05.05l.05-.05Z" transform="translate(-0.05)"/><path d="M21.86,12.41Z" transform="translate(-0.05)"/><path d="M9.14,25.48a.18.18,0,0,1-.1-.05C9.09,25.48,9,25.64,9.14,25.48Z" transform="translate(-0.05)"/><path d="M32.69,4.34h0v0Z" transform="translate(-0.05)"/><path d="M22.83,13.07h-.15v.05Z" transform="translate(-0.05)"/><path d="M9.81,23.44Z" transform="translate(-0.05)"/><path d="M28.86,6.69Z" transform="translate(-0.05)"/><polygon points="13.79 21.09 13.74 21.09 13.74 21.14 13.79 21.09"/><path d="M31.31,5.41a.05.05,0,0,0-.05-.05h0Z" transform="translate(-0.05)"/><path d="M25.23,10.78Z" transform="translate(-0.05)"/><path d="M26.81,8.94V9C26.86,9,26.86,9,26.81,8.94Z" transform="translate(-0.05)"/><path d="M23.29,12.67Z" transform="translate(-0.05)"/><path d="M26.71,9.14c.05,0,.05-.05.1-.05S26.76,9.09,26.71,9.14Z" transform="translate(-0.05)"/><path d="M33.09,4.09Z" transform="translate(-0.05)"/><path d="M33.09,3.93V4S33.15,4,33.09,3.93Z" transform="translate(-0.05)"/><path d="M32.38,4.6a.31.31,0,0,0,.2-.05V4.49C32.53,4.6,32.33,4.49,32.38,4.6Z" transform="translate(-0.05)"/><path d="M31.31,4.65l.15-.1c-.05,0-.15-.05-.1-.1C31.1,4.44,31.46,4.49,31.31,4.65Z" transform="translate(-0.05)"/><path d="M30.8,4.9c.05-.1-.05-.05-.05-.1C30.74,4.9,30.74,4.9,30.8,4.9Z" transform="translate(-0.05)"/><path d="M27.83,7.41l-.1-.1C27.73,7.35,27.78,7.3,27.83,7.41Z" transform="translate(-0.05)"/><polygon points="27.78 8.38 27.73 8.27 27.68 8.38 27.78 8.38"/><polygon points="26.76 7.92 26.66 8.02 26.71 7.97 26.76 7.92"/><path d="M21.91,12.21l.1.1C22,12.26,21.91,12.15,21.91,12.21Z" transform="translate(-0.05)"/><path d="M19.92,14.2c-.05-.05-.15-.05-.15.05A.19.19,0,0,0,19.92,14.2Z" transform="translate(-0.05)"/><polygon points="13.43 19.61 13.38 19.71 13.43 19.66 13.43 19.61"/><path d="M35.8,1.84l-.15-.1v.1C35.7,1.89,35.8,1.89,35.8,1.84Z" transform="translate(-0.05)"/><path d="M35.85,1.69c.05.05-.05.05,0,.15s.2-.05.15-.2c.05,0,.05.05.1.05s-.1-.26-.26-.26c.1.15.05.1.15.26Z" transform="translate(-0.05)"/><path d="M43.41,2Z" transform="translate(-0.05)"/><path d="M40.4.56l.05.05A.05.05,0,0,1,40.4.56Z" transform="translate(-0.05)"/><path d="M36.21.82v0Z" transform="translate(-0.05)"/><path d="M39.12.61h0a.05.05,0,0,0-.05.05Z" transform="translate(-0.05)"/><polygon points="36.26 1.74 36.31 1.79 36.36 1.74 36.26 1.74"/><path d="M44,2.6Z" transform="translate(-0.05)"/><path d="M45.71,9.6c.15-.05.1.2.31.1C45.91,9.7,45.81,9.55,45.71,9.6Z" transform="translate(-0.05)"/><path d="M45.86,4.55v0C45.86,4.6,45.81,4.6,45.86,4.55Z" transform="translate(-0.05)"/><polygon points="46.07 5.31 46.07 5.31 46.07 5.26 46.07 5.31"/><path d="M38.15,5.06c-.05.05-.2,0-.1.1S38.1,5.11,38.15,5.06Z" transform="translate(-0.05)"/><path d="M36.26.82h0v0Z" transform="translate(-0.05)"/><path d="M47.09,4.7a.16.16,0,0,0-.05.1h.05Z" transform="translate(-0.05)"/><path d="M47.09,9.09a9.56,9.56,0,0,1,.41-1.63c.05-.2-.46-.15-.26-.36l.15.05c-.2-.41,0-.82-.2-1.23.05,0,.1,0,.1.05.1-.1-.05-.31-.15-.31s.1-.05.15-.05-.2-.2-.1-.26a.05.05,0,0,1,.05.05c-.05-.05-.05-.26-.15-.2.05-.15-.15-.26-.1-.41-.15-.05,0-.26-.26-.2.2-.05.05-.31-.05-.36.1,0,.05-.1.15-.1s-.1-.2-.2-.1c.15-.31-.36-.26-.15-.51a8.89,8.89,0,0,1-.72-.61c.2-.15.2.26.41.1-.26-.15-.51-.15-.61-.41,0-.05.1-.05.15-.05-.26-.15-.36-.41-.61-.51h.1c-.05-.05-.05-.1-.1,0h.05c-.05.15-.36.1-.41.15.26-.15-.1-.2.2-.41a.19.19,0,0,0-.15.05c0-.05,0-.1.1-.1-.15-.05-.2.05-.31-.05.05-.05.05-.05.1-.05-.1.05-.26.05-.31-.05l.05-.05c-.2-.1-.46,0-.61-.2.15-.15-.05-.1.05-.26h-.15v.1c-.1-.05-.26,0-.31-.1l.1-.05L43.31,1l.05.1c-.15.05-.1.2-.2.1.05,0-.1-.05-.1-.2h0c-.1.05-.15.05-.2,0a.75.75,0,0,1,.1-.2c-.1.1-.26-.05-.41.05.05-.05.05-.1.1-.15l-.1.1a.1.1,0,0,1,0-.15c-.15-.1-.05.26-.15.1l.05-.05c-.15-.1-.36-.05-.51-.15,0-.2.15,0,.15-.15-.26-.05-.56.05-.77-.05l.05.05c-.1.26-.15-.15-.31-.05.05,0,.05-.15.05-.1-.15-.1-.36,0-.61.05L40.55.2a.49.49,0,0,0-.36-.1c-.05.05-.1.05-.05.15-.26-.46-.61.15-.87-.2.05,0,.1-.05.05-.05l-.26.05c0,.1.05.05.1.15s-.1.1-.15.1c.1-.1,0-.2-.05-.26v.1c-.15-.2,0,.26-.2.1V.2a.27.27,0,0,1-.2.1c-.05-.15.05-.05.05-.2-.1,0-.15.26-.26.15.05-.05.1-.05.15-.1-.1-.15-.1-.1-.2-.1h0c-.05,0-.1-.05-.2-.05l.05.05c-.05.36-.26.1-.36.36.1-.26,0-.15-.05-.31s-.15-.05-.1-.1c-.05.15-.15-.05-.2.15,0-.05-.1.05-.1-.1-.1.1.05.05.05.15s-.46-.05-.56.31c-.1.2-.05.36-.15.51-.1,0-.05-.15-.05-.15s-.15.05-.2.15c0-.05-.05-.05-.1-.1s.1.15-.05.2a.27.27,0,0,1-.1-.2.87.87,0,0,0-.05.36c-.1-.05-.05-.15-.1-.2-.05.1-.1.31,0,.41l.1-.05c0,.05-.1-.05-.1-.1s.1-.1.15-.05v.05c.26.1.1-.26.26-.31l.1.2a.31.31,0,0,0-.05-.2.23.23,0,0,1,.15.15c.15,0,0-.1.15-.05V1.07c0,.05.1.1.05.1.2,0,.1-.26.26-.15h0c.15-.15-.05-.15,0-.41a1.35,1.35,0,0,1,.26.31L37.28.77a.16.16,0,0,1,.1.05c.05-.15-.05-.05-.05-.15.15.1.26-.2.36.05,0-.1-.1-.05-.05-.15.1.26.1-.1.26,0,0,.15-.1.1.05.2,0-.26.2,0,.26-.05v0c0,.05,0,.05.05.1V.61c.05-.05.15-.05.26-.1s.26.05.41.15V.72c0-.2.15-.15.26-.2,0,.1,0,.15-.05.2h.1a.11.11,0,0,1,.1-.1V.77c.1,0,.26-.15.41-.05,0-.15-.1-.36.05-.46,0,.05,0,.2-.05.2a.07.07,0,0,1,.1,0h-.26c.05.05.05-.1.1-.1s.05.05,0,.15-.05-.05-.05,0a.23.23,0,0,1,.15.15c0-.05,0-.15.05-.15s.05.1.1.2c.05-.05.1,0,.1-.15.05,0,.05.05.05.1s.31,0,.26-.15h0c.2-.1.41.15.61.15V.72c.15-.05.26.05.36-.05s.05.1.05.15.1-.05.2.05c-.1.05,0,.1-.1.05.1.05.1.15.26.05-.1.1.05.2.1.15L41.78,1c.05,0,.1.05.15.05l-.1.15c.15.26.51-.15.56.2.1-.1-.1-.15,0-.26.1.05.1.36.1.36.1.15.26-.15.36-.05a.21.21,0,0,1,.2-.2c.1.05,0,.31-.1.31s-.05-.05,0-.05-.1,0-.1.1l.05-.05c0,.1.15.15.05.2.1,0,.1-.05.05-.1.1.15.2.1.26.26,0-.05,0-.1.05-.1.15.15.15-.05.26,0s-.15.15,0,.2-.05.15-.15.15c.15,0,.15.2.2.26h-.1c.05,0,.05,0,.1.05l.05-.1c0,.05.05.05,0,.1.1-.05.1-.2.2-.2s.15.05.1.2c-.1-.15-.1.15-.2.05.05,0,.05,0,.05.05h-.05c0,.2.15-.1.31,0-.05.05-.1.15-.05.15s.1-.15.15-.15.1.05.15.1V2.66c.1-.05.1,0,.2.05-.05.05-.1,0-.1.05.15-.05,0,.26.15.26,0,.1-.1.1-.1.2.15,0,0,.2.15.2s.05-.1.2-.1l-.2-.1h.2c-.05-.05-.15-.05-.15-.1s.1,0,.15-.1c-.05.2.2.05.2.26l-.26.2c0,.2.31.1.36.36v-.1c.1-.05.1.1.15.1-.1.05-.1.1-.15.15s.05.15.26.05l-.05.15c.05.15.36.05.41.2-.1,0-.15.1-.26.05s.05.1.1.05.2.1.1.15c.05,0,.15-.05.15.05h-.05c.05,0,.1.05.2-.05-.2.26.2.46-.05.66.05.1.1.26.15.36h-.05c-.05.15.31.05.2.2s-.1-.1-.15,0c-.31.05.05.2-.1.36h0c-.1.1.15.2.15.36h-.05a.79.79,0,0,1,.31.41c-.15-.05-.05-.05-.2-.05,0,.05.2,0,.26.1a.43.43,0,0,1-.26.15V7.1c-.2.05,0,.15-.05.2h-.1c0,.2.2.2.2.41h.05c.2.1-.1.1,0,.2h-.2a1.5,1.5,0,0,1,.2.41A.78.78,0,0,1,46.07,8c0,.05,0,.26.1.26s-.05-.05-.05-.1a.39.39,0,0,1,.2.36c-.36-.1-.15.36-.46.36.1.26-.15.46-.26.71.31,0,0,.05.31.15,0,.05,0,.1-.05.1h0c-.1.05-.15.05-.26.1s-.05-.1-.1-.1-.15,0-.26.05c.1.05.15.1.05.15l.15-.05c.05.26-.31.05-.26.26l-.05-.1c0,.1-.15.26,0,.51a.11.11,0,0,1-.1-.1c-.15.15-.1.56-.36.51L44.64,11c0,.05.05.15,0,.1a.05.05,0,0,0-.05-.05s.05.15,0,.1V11c-.05-.05-.05.05-.05.1s-.05.1-.05.15,0,.05-.05.05h-.05a1.24,1.24,0,0,0,0-.46v-.05c0-.05-.05,0-.15,0a.55.55,0,0,1-.36-.15c.05-.31-.31-.51-.41-.77,0,.05-.15.1-.2.1S43,10,43.21,9.86h0a.22.22,0,0,0-.05-.31L43,9.7c.1-.46-.56-.41-.41-.77-.1,0-.15-.05-.26-.05l.1-.1a2.13,2.13,0,0,0-.31-.41l.1-.05c-.05-.1-.41.15-.51.05l.15-.15c-.15-.15-.15-.46-.41-.51a.18.18,0,0,0,.1-.05c-.05-.1-.15-.41-.36-.2.15-.1-.15-.2-.26-.2l.1-.1c-.2.05-.26.05-.36,0a.05.05,0,0,1,.05-.05c-.05-.05-.15.05-.15-.1h.1c-.05-.1-.1-.05-.2-.05s-.1-.2,0-.31c-.05.05-.2.05-.2,0s.05-.05.1-.05c-.05-.2-.31-.1-.26-.31l.05-.05a.88.88,0,0,1,.15.2c.1-.1.05-.2.26-.26-.15,0-.41,0-.46-.15L40.14,6h0a.05.05,0,0,0-.05-.05c0-.05,0-.05-.05-.1S40,5.67,40,5.62c-.1.1-.15,0-.2.15l.05.05h.05l.1.1c-.1,0-.15,0-.15-.1-.1.05-.2.05-.26.1a4.7,4.7,0,0,0,.15-.46c-.15-.1-.31-.31-.61-.26-.05,0,0-.1.05-.15s.05.05.1.05c-.1-.05-.2-.2-.36-.15,0-.15.2-.05.05-.15H39c0-.46-.72-.15-.66-.71v.1c-.15-.46-.66-.66-.72-1.17-.05-.15-.15-.05-.26-.1l.1-.1h-.2c-.2-.1.1-.51-.2-.51L37,2.45c-.05-.1-.2-.2-.1-.26s-.1.05-.1,0l.05-.05L36.62,2c-.05-.15.26-.15.15-.36-.05-.05-.36-.05-.36,0a.19.19,0,0,1-.05.15l-.1-.05c-.2.1-.46.2-.46.46l.2.05v.05L36,2.25c-.05.1.05.1.15.1-.05.05-.1.1-.1.15h.26c-.05.05-.2.05-.15.15s.15-.15.26-.1c-.05.1-.15.15,0,.15a.16.16,0,0,1-.1.05c.1,0,.15.15.26.1-.05.15.15.15,0,.31.05,0,.2,0,.26.05-.31.05.1.2-.1.36.26-.05.26.2.46.26h-.05c.05.1,0,.15,0,.2A.61.61,0,0,1,37.49,4c-.1.2-.2.1-.36.2.1-.1.26.05.31-.05-.05.15,0,.1-.1.2.2-.15.1.05.26,0-.05.15-.15.15-.05.2s-.15.05-.15.05.2-.05.31-.1c.15.1-.05.15-.1.26.1.05.31,0,.31.05a.05.05,0,0,1-.05.05c.2,0,.2.26.41.2a.05.05,0,0,1-.05.05c.05-.05.15-.15.2-.15s.15,0,.05.1c0-.05-.05,0-.1,0h.1c-.1.15-.1-.05-.2.05.1.05.31.1.36.2-.1.1-.15-.15-.2.05l-.05-.15c-.15.26-.05-.1-.2.15.05.2.2.1.26.31.1-.05.1-.1.2-.1.31.1-.2.41.1.46.1-.05.31-.15.31.05h-.31c.1.15.31-.1.31.15a.22.22,0,0,1-.15-.05c-.05.2.15,0,.2.05l-.1.1c.15.15.36.2.51.36a.11.11,0,0,0-.1.1,1,1,0,0,1,.41.71H40a.05.05,0,0,1-.05.05c0,.1.1-.05.15-.05s0,.1-.05.1c.2.05.51.2.51.46H40.5c.05.15.36-.05.31.1h-.05c.15.31.51.46.46.82.2-.1.15.31.36.1a1.71,1.71,0,0,0,0,.51c.05.05.2-.05.31,0l-.1.1H42l-.1.15.1.05c0-.05,0-.1.05-.1s.1.31.05.36l.31.15c-.05.05-.1,0-.15,0,.2,0-.1.15.1.15,0-.05.1-.05.1-.05a.42.42,0,0,0,.2.31l-.1.05c.1.2.36.31.51.51,0-.1.15-.2.2-.15l-.1.15c.1-.05,0-.1.15-.1s-.1.15-.15.15l.1.05c-.05.05-.05.05-.1.05.1-.05,0,.26.2.2l-.05.05.26.26c.1.1.2.15.31.26.05-.1.15,0,.26-.05a2.22,2.22,0,0,1,.2.36c.05.2.2.1.36.05s.05-.15.1-.31c0,.15.26,0,.15.15a2.16,2.16,0,0,0,.36-.26,1.11,1.11,0,0,0,.31-.36c-.05,0-.1,0-.1-.05s.15-.05.15,0h0c.05-.2.26-.26.46-.36s.36-.2.31-.41h0v-.31c.1-.1.05.1.15.05-.05-.36.26-.41.2-.71.41-.05.2-.61.46-.82h-.1c-.1-.05.05-.05.1-.1C47.14,9.09,47.14,9.14,47.09,9.09ZM39.53,6.74c0-.05-.05-.05,0,0s0-.05,0,0Zm.15.15c0-.05-.05-.05-.05-.1a.16.16,0,0,1,.1-.05A.19.19,0,0,0,39.68,6.89Zm.41-1h0c.1,0,.1,0,.05.05A.05.05,0,0,1,40.09,5.87Z" transform="translate(-0.05)"/><path d="M40.91,7.15Z" transform="translate(-0.05)"/><path d="M39.94,5.92Z" transform="translate(-0.05)"/><path d="M40.35.56Z" transform="translate(-0.05)"/><path d="M41.78,9.81Z" transform="translate(-0.05)"/><path d="M37.84,0V.05h0Z" transform="translate(-0.05)"/><path d="M45.2,2h0C45.25,2,45.2,2,45.2,2Z" transform="translate(-0.05)"/><path d="M43.1,1c.05,0,.05,0,.1-.05S43.1.92,43.1,1Z" transform="translate(-0.05)"/><path d="M46.88,4.14Z" transform="translate(-0.05)"/><path d="M43.16.92a.18.18,0,0,0,.1.05A.18.18,0,0,0,43.16.92Z" transform="translate(-0.05)"/><path d="M35.9,1.23Z" transform="translate(-0.05)"/><path d="M35.9,1.28s-.05.05,0,.05Z" transform="translate(-0.05)"/><path d="M36.57.56a.31.31,0,0,0-.2.05V.66C36.36.61,36.62.66,36.57.56Z" transform="translate(-0.05)"/><path d="M37.59.72h-.15c.05.05.1.1.05.15C37.74,1,37.44.77,37.59.72Z" transform="translate(-0.05)"/><path d="M38,.66a.07.07,0,0,0,0,.1C38.1.72,38.1.72,38,.66Z" transform="translate(-0.05)"/><path d="M41.32,1c.05,0,0-.05.05-.1Z" transform="translate(-0.05)"/><polygon points="42.13 0.36 42.08 0.46 42.19 0.46 42.13 0.36"/><path d="M42.24,1.48h0Z" transform="translate(-0.05)"/><path d="M46,5.21l.15-.05C46.07,5.11,45.86,5.16,46,5.21Z" transform="translate(-0.05)"/><path d="M46.32,7.56c-.1,0-.15.1-.05.15S46.32,7.61,46.32,7.56Z" transform="translate(-0.05)"/><polygon points="43.1 9.45 43.1 9.45 43.21 9.45 43.1 9.45"/></g></g></svg>