<svg xmlns="http://www.w3.org/2000/svg" viewBox="0 0 39.4 42.8"><title>icon-upload</title><g id="Capa_2" data-name="Capa 2"><g id="CreateAccount"><path d="M17.91,7.22a.09.09,0,0,0,0,.15l.15-.1Z"/><path d="M18,7.71a.42.42,0,0,0,.34-.2c-.15,0-.15,0-.29.1a.09.09,0,0,1,0-.15s0-.1-.15,0,0,.2.2.2A.1.1,0,0,1,18,7.71Z"/><path d="M24.69,14.64h0Z"/><path d="M22.15,12l0,.1S22.2,12,22.15,12Z"/><path d="M18.89,8h0s0,0,0,0Z"/><path d="M20.93,10.93Z"/><path d="M20.15,10a.15.15,0,0,1-.1,0,.17.17,0,0,0,0,.1A.22.22,0,0,1,20.15,10Z"/><polygon points="27.33 30.74 27.38 30.74 27.38 30.65 27.33 30.74"/><path d="M25.67,16.15Z"/><path d="M32.79,23.91c0-.15.24,0,.24-.2C33,23.77,32.79,23.72,32.79,23.91Z"/><path d="M28.4,18.64s0,0,0,0l0,0Z"/><path d="M29.13,19.42h0v0Z"/><path d="M32.06,31.13a.15.15,0,0,1,0-.1C32,31.13,31.87,31.13,32.06,31.13Z"/><path d="M18.89,8Z"/><path d="M29.67,18.45v.15h0Z"/><path d="M39.38,30.35a2.89,2.89,0,0,0-.29-.2c0-.2.2,0,0-.49-.1-.15-.39-.2-.54-.34h.2l-.34-.2.15-.15-.15-.15a.09.09,0,0,1,0,.15.93.93,0,0,1-.24-.59l-.34-.2s.1,0,.15,0c-.24,0,.1-.15-.1-.2,0,0-.1,0-.1,0a.5.5,0,0,0-.24-.39l.1,0A6.93,6.93,0,0,0,37,27c0,.1-.15.2-.2.15l.1-.15c-.1,0,0,.1-.15.1s.1-.2.2-.15l-.15,0s0,0,.15,0c-.1,0,0-.29-.2-.24l0,.1c-.2-.24-.34-.29-.49-.49-.1.1-.15,0-.29,0a2.91,2.91,0,0,0-.29-.54c-.15-.1-.1,0-.24,0,.1-.1,0-.24.1-.2a2.59,2.59,0,0,0-.54-.44s0,.1,0,.1,0-.15,0-.15h0c-.39-.15-.24-.88-.63-.93h0L34.06,24c-.1-.15.15,0,.1-.15-.39-.1-.29-.44-.59-.54.15-.39-.49-.54-.49-.93l0,0c-.1,0,0-.1,0-.15s0,.1,0,.1a7.87,7.87,0,0,1-1.12-1.61c-.15-.2-.44.2-.49-.15l.2,0c-.44-.24-.63-.73-1.07-1,0,0,.1,0,.1,0,0-.15-.24-.29-.29-.2s0,0,0-.15-.29-.1-.24-.2h0c-.1,0-.2-.24-.24-.1,0-.2-.24-.2-.29-.34-.2,0-.15-.24-.34-.15.2-.15,0-.34-.24-.34.1,0,0-.1.1-.15-.1-.1-.2-.15-.24,0,0-.34-.49-.2-.29-.54a6.85,6.85,0,0,1-.88-.59c.15-.15.24.24.44.1a1.84,1.84,0,0,1-.73-.44c0-.1.1,0,.15,0-.29-.15-.39-.44-.68-.59h.1s0-.1-.15,0h0c0,.15-.39,0-.44.1.29-.15-.15-.24.24-.39a.18.18,0,0,0-.15,0s0-.1.1-.1c-.2-.1-.2,0-.34-.1,0,0,.1,0,.15,0-.15,0-.24,0-.34-.15s0,0,.1,0c-.2-.2-.49-.15-.63-.39.2-.1,0-.1.1-.24l-.15,0v.1c-.1-.1-.29-.1-.29-.2h.15l-.24-.24,0,.15c-.15,0-.15.2-.24,0,0,0-.1-.1,0-.24h0c-.1,0-.2,0-.2-.1s.15-.15.2-.15c-.15,0-.24-.2-.44-.15,0,0,.1-.1.15-.1l-.15,0a.18.18,0,0,1,0-.15c-.1-.15-.15.2-.2,0h0c-.1-.2-.34-.24-.44-.44.1-.2.15.1.2,0-.24-.2-.59-.29-.78-.49v0c-.2.15,0-.24-.24-.24,0,0,.15,0,.1,0a2,2,0,0,0-.59-.39h0c0-.15-.2-.24-.24-.34s-.1,0-.15,0c0-.54-.68-.34-.68-.83,0,0,.1,0,.1,0l-.24-.15c0,.1,0,.1,0,.2a.53.53,0,0,1-.24,0c.15,0,.15-.15.15-.2s0,0-.1.1c0-.24-.2.15-.24-.1l0,0c-.1,0-.2,0-.24-.1s.1,0,.2,0c-.1-.1-.34,0-.34-.15s.1,0,.2,0c0-.2,0-.2,0-.24h0l-.1-.2v0c-.34.15-.24-.15-.54-.15.29,0,.1,0,.2-.15s0-.15,0-.15c-.15,0,0-.2-.24-.15,0,0,0,0,0-.15-.1,0,0,.1-.1.1-.24,0-.2-.44-.54-.49s-.39,0-.59-.1c0-.1.15-.1.15-.1s-.1-.2-.24-.2c0,0,0,0,0-.1s-.15.1-.2,0,.15,0,.2-.1-.24,0-.34-.1.15,0,.2,0-.29-.15-.39-.1l0,.1s0-.1.1-.1.1.15,0,.2l-.1,0c-.1.2.29.1.39.2l-.2.1h.24a.16.16,0,0,1-.15.15c0,.15.1,0,.1.15h0l.1,0s0,.15,0,0c0,.2.34.1.29.24h0c.24.15.1-.1.39-.1l-.2.44.1-.1a.07.07,0,0,1,0,.1c.15,0,0,0,.15-.1,0,.2.29.2.2.39.1,0,0-.15.15-.1-.15.2.15.1.15.24s-.15,0-.15.1c.2-.1.15.2.24.24.15-.15.2.1.39.2,0,0,.15.29.24.44h0c.15-.1.24,0,.34.1-.1.1-.15.1-.2.1l.1.1h.2L21,11c.1.1.34.1.39.29.1-.1.15-.34.34-.29,0,0-.1.15-.2.15s.1,0,.1,0h-.15c0,.1.1,0,.15,0s0,.1,0,.15a0,0,0,0,0,0,0s.1.2,0,.24.1-.1.15,0,0,.1,0,.2.1.1.2,0,0,.1,0,.15.29.24.34,0h0c.29.1.34.44.54.59l0,0c.15,0,.24.2.44.2a.09.09,0,0,1,0,.15c.1,0,.15,0,.2.2-.15,0,0,.1-.15,0,.1.15,0,.2.24.24-.15,0,0,.2,0,.2v-.15l.15.15-.15.1c.1.34.63.15.59.54.15,0,0-.2.1-.2s0,.39,0,.44.29,0,.39.15a.15.15,0,0,1,.24-.1c.1.1,0,.29-.15.24s0,0,0,0-.1,0-.1,0l0,0c0,.1.15.24,0,.24.1,0,.1,0,0-.1,0,.2.2.2.29.39a.17.17,0,0,1,0-.1c.15.24.15,0,.29.15s-.2.1,0,.2-.1.15-.15.15c.2,0,.2.29.24.34l-.1,0a.1.1,0,0,1,.1.1l0-.1s0,.1,0,.1.1-.15.24-.15.2.1.1.24c-.1-.2-.1.15-.24,0,0,0,0,0,.1.1h0c0,.24.2,0,.34.1-.1,0-.1.15,0,.15s.1-.15.2-.1.15.1.2.15l0-.1c.1,0,.15,0,.2.1s-.1,0-.1,0c.2,0,0,.29.24.34,0,.1-.1.1-.1.2.2,0,0,.2.24.29,0-.1,0-.1.2-.1L26.74,17H27s-.2-.1-.2-.15.1,0,.15-.1c0,.2.24.1.24.29l-.2.2c0,.24.34.2.49.44v-.1c.1,0,.15.1.24.15-.1,0,0,.15-.1.2s.15.15.29,0v.2c.1.2.39,0,.49.2-.1,0-.1.15-.24.1,0,0,.1.1.15,0s.24,0,.2.15.15,0,.2,0l0,0s.15,0,.15-.1c0,.39.44.44.39.78a2.71,2.71,0,0,1,.39.29s0,0,0,0c0,.2.29-.1.34.15s-.15,0-.15,0c-.2.24.2.2.2.39h0c0,.15.29.15.39.29a0,0,0,0,0,0,0,1.08,1.08,0,0,1,.54.24c-.15,0-.1,0-.2.1s.15-.15.29,0a.36.36,0,0,1-.1.29l-.1-.1c-.1.2.15.15.15.24l0,0c.2.15.34,0,.49.24l0,0c.24,0,0,.15.2.15l-.1.15a3.36,3.36,0,0,1,.49.2,1.73,1.73,0,0,1-.49-.1s.2.24.29.2-.1,0-.1,0a.48.48,0,0,1,.44.2c-.29.24.24.39.1.68.29.15.34.54.63.78.15-.29.1.1.29-.15l.1.1h0l0,.29c0,.1-.1,0-.15,0s0,.15,0,.29c0-.1.15,0,.2,0v-.2c.29.1,0,.34.24.44h-.15c.15,0,.34.39.59.34a.1.1,0,0,1-.1.1c.2.29.63.39.68.68h-.1s.2,0,.15.1a0,0,0,0,0,0,0s.2,0,.2.15h-.1c.15.29.44.24.68.44-.15.15,0,.39,0,.49h0c.2.29.54.39.83.59,0,.29.39.63.49,1,0,0,.15-.1.2,0s.24.1.1.2v0c-.1.15,0,.24.1.39l.2-.15a.42.42,0,0,0,.2.44c.1,0,.2.1,0,.1.1,0,.1,0,.24.1l-.2,0s0,0,0,0l0,0-.15-.1a1.44,1.44,0,0,0,.29.15c.15.1.29.2.24.2l-.29-.2s-.15,0-.2,0,0,0-.1.1v-.1h-.1c-.1,0-.2,0-.15.2,0-.2-.29,0-.44.1v-.15c-.1.2-.1.24-.29.29s0,0,0-.1-.1.15-.24.1l0-.1c-.15,0-.15,0-.2.15s-.29,0-.29-.15c0,.1-.1.2-.15.15s0-.1,0-.1c-.24,0-.34.2-.49,0s0,0,0-.1h.34c0-.15-.15-.15,0-.29-.1.1-.29.34-.44.29v0h0s0,0-.1,0-.1,0-.15,0-.2,0-.24,0-.1.1,0,.24l0,0h.24c0,.1-.1.15-.2,0,0,.1,0,.2-.1.24-.1-.2-.34-.29-.34-.39-.24.1-.54.1-.68.34,0,0-.1,0-.1-.1a.15.15,0,0,1,.1,0c-.15.1-.39,0-.39.24-.15,0,.1-.2-.15-.15l0,0c-.44-.24-.68.49-1.22.15a0,0,0,0,1,0,0c-.59-.15-1.17.2-1.71,0-.15,0-.2,0-.24.15l0-.15-.15.2c-.24.15-.44-.34-.68-.1l0,.1c-.1,0-.34,0-.34,0s0,.1-.1,0v-.1l-.49.15c-.2,0,0-.29-.29-.29-.1,0-.29.24-.24.29a.1.1,0,0,1,.1.1l-.1,0V31H27l.15,0-.1,0v0c-.1,0,0,0,0,0h-.15l.2,0c-.1,0-.2,0-.24,0s.2,0,.24,0-.2,0-.1,0h-.1s0,0,.15,0c-.15,0,0,0-.2,0,0,0,.15,0,.2,0-.24,0,0,0-.29,0,.24,0,.1.1.24.15h0a.49.49,0,0,1-.15,0,.57.57,0,0,1,.34.1c-.2,0-.24,0-.39,0,.15,0,.15,0,.29,0h-.2c.24,0,0,0,.2,0-.1,0-.24,0-.15,0a.21.21,0,0,1-.15,0s.2,0,.29,0-.15,0-.24,0,.2,0,.2.1h-.1c.15,0,0,.1.2.15h.2s.1,0,0,0h0c-.15,0,0,0-.2,0,0,0,.2.1.15.1s0,0-.2,0l0,0h-.24s.1,0,0,.1h.24c.15.1-.44,0-.2.1s.34,0,.2,0h-.2s.24,0,.15.1,0,0-.1,0,.1,0,.1,0h-.15s.15.15.15.2h-.15c.1.1,0,.15-.15.24l.15,0h-.1s.1,0,.15,0h-.15c.1,0,.24.15.1.2h0s.29,0,.15.1h0c0,.1,0,.2-.15.24.2,0-.1.1.2.1a2,2,0,0,0-.29.1l.2,0h-.15l.15,0h-.2l0,0h.1s-.1.1-.2.1l.15.1s-.1,0-.1,0-.15,0,0,0h.1c-.1,0-.1,0,0,.1h-.1s0,.15,0,.2H27s-.2,0-.24,0l0,0h-.15c.1,0-.15,0,0,.1h0s0,.1,0,.15.1,0,.2,0-.15.1-.15.15.1,0,.2,0c-.15,0-.1,0-.2,0s0,.1.1.15h.1a.17.17,0,0,1-.1,0h0c.2.1-.39.2-.1.24h0l.15.1s-.1,0-.2,0c.2.1,0,.1.1.2-.39,0,0,.2-.2.24h.1c.1,0,0,0,0,0h.15c.1.15-.15.29-.2.44s.44,0,.24.1h-.15c.2.1,0,.24.15.34h-.1c-.1,0,0,.1.1.1h-.15s.15,0,0,0h0s0,0,.1,0,0,.1,0,.1c.15,0-.1,0,.15.1-.24,0-.2,0-.1.1h-.15s0,0,.15,0c-.24,0,.2.1-.15.15.1.1.2.15.24.24-.24,0,0-.1-.24-.1.1.1.29.1.24.2h-.15c.1.1,0,.15.1.2h0s0,0,0,0h0c.15,0,.29,0,.39,0-.29,0,0,0-.44,0h0a.24.24,0,0,0,.15,0h-.15c.1,0,.2,0,.15.1h0s.24.1.15.2,0,0-.24,0l0,0h.1s.15,0,0,.1h-.1l0,0,.1-.24c.1,0,.24,0,.2,0s0,0-.1,0h0a.17.17,0,0,1,.1,0H27c.15,0,0,.1.2.1H27s.24,0,.15,0h0s.1.1,0,.15,0,0-.2,0c0,0,.24.15.2.2h0c.24,0-.15,0,0,.1H27s0,.1.15.15h0s0,0,0,.1,0,0,.15,0c-.39.1.2.15-.1.24h0l0,0h.15a.17.17,0,0,1,.1,0c-.1,0-.2,0-.24,0h.1c-.2,0,.24,0,.1,0h0a.17.17,0,0,1,.1,0h-.15s.24,0,.1.1,0,0-.1,0l-.2,0h0l0,0h0c.34,0,0,0,.29.1-.2,0-.15,0-.29,0s-.1,0-.15,0-.1,0,.1,0h-.15s.1,0,.15,0-.2.1,0,.15.24,0,.34.1h-.2s0,0,0,.1H27s.2,0,.1,0h-.2s.15,0,.2,0h-.2s.1,0,.2.1H27c-.1,0,0,0,.1,0h0c.29,0,0,0,0-.1h.2l-.15,0h.2c.1,0,0,0,0,0h0l0,0h.1c.1,0-.15,0,0-.1h0s-.15,0-.34,0l.39,0h-.2c.15,0,0-.1.2-.1-.1,0-.1,0-.15,0,.24,0,0,0,0,0s0,0,.2,0c-.24,0,0,0,0-.1h-.1s0,0,0-.1.1-.1.15-.1h0c-.2,0-.15,0-.2,0h.2v0s-.1,0-.1,0h.15s-.15,0,0-.1c-.15,0-.34,0-.44,0h.24s-.1,0-.1,0h.15a.49.49,0,0,1,.15,0h-.15s.1,0,.15,0,0,0-.15,0h.1s0-.1-.2,0h0c-.15,0,.1-.15,0-.2h0s0-.1-.15-.1.1,0,.15,0-.1,0,0,0,.1,0,0,0,.1,0,0-.1c.15,0,.15,0,.1,0l-.1,0v0h.15c.2,0-.34-.15,0-.2-.1,0-.1,0-.2,0s.24,0,.24-.1-.24,0-.2-.1-.2,0-.24,0,.24,0,.29,0h0a.07.07,0,0,0,.1,0h0s0,0,.15,0-.1,0-.15,0,0,0,0-.1h-.1s-.1,0-.15,0,.2,0,.15,0,.15,0,.2,0,.1-.1.1-.1h0s0,0,0,0h-.34s0,0,.1,0c0,0,.15,0,.2,0v0h0c.15,0-.2,0-.15-.1h0s0,0,0,0h0c-.1,0-.1,0-.1,0h.1c-.15,0,.15,0,0-.1h.2c-.1,0,.1,0,0-.1h-.2l.1,0-.15,0,0,0h-.15c.2,0-.1,0,0-.1h.29c.15,0-.15-.1-.1-.15h0c-.1,0,0,0,0,0h.2s0,0-.2,0l.15,0s-.29,0-.24-.1a.37.37,0,0,1,.24,0,0,0,0,0,0,0,0s-.15,0,0,0-.15,0-.15,0h0s0,0-.2,0c.29,0,0-.15.24-.2a.15.15,0,0,1,0-.1h0c.1,0-.29,0-.2-.1s.1,0,.15,0c.29,0,0,0,.15-.1h0c.1,0-.1,0-.1-.1h0a.52.52,0,0,1-.24-.15h.2s-.2,0-.24,0a2.11,2.11,0,0,1,.24,0v0c.2,0,0,0,0,0h.1s-.2,0-.2-.1h0c-.2,0,.1,0,0,0h.2s-.2-.1-.24-.1a2,2,0,0,1,.29.1s0,0-.1-.1a0,0,0,0,1,0,0c-.1.1-.15,0-.15,0,.39,0,.1-.1.39-.15-.15-.1,0-.15,0-.24-.29,0,0,0-.29,0v0h0l.2,0H28s.15,0,.2,0-.15,0-.1,0l-.2.15c-.15,0,.24,0,.1-.1h.1s0-.1-.24-.15H28c0-.1-.24-.2-.1-.24h0s-.15,0,0,0H28s-.15,0-.1,0H28c.1,0-.2-.1-.24-.2a.47.47,0,0,0,.34-.1h0c0-.1-.2-.15-.24-.24.24,0,.1-.15.24-.24H28s-.15,0,0,0h0c.2,0,.15,0,.15-.1h-.24c.39,0-.15-.2.2-.24,0,0,0,0-.15,0h.15a.18.18,0,0,0,0-.15h.1s-.39,0-.39-.1h.2s.2-.1,0-.2h.1s.15-.1-.15-.1c.2,0,0,0,0-.1h.15c-.2,0-.2,0-.24-.1H28s-.15,0,0,0H28s0,0-.15,0,0,0,.15,0c-.1,0-.2,0-.15,0H28c.1,0-.15-.1,0-.1h.1s0,.1,0,.1c.15,0,.15,0,.34,0-.1,0-.29-.1-.24-.15h0a0,0,0,0,0,0,0c.1,0,0,0,0,0s-.1,0-.24,0h0v0s-.15,0,0,0a2.11,2.11,0,0,1-.24,0c.2,0,.29,0,.44,0-.1,0,0-.15-.29-.2H28s0,0,0,0,0-.1-.2-.1c.1,0,.15,0,.15,0h0c.29-.1-.44-.2-.1-.29h0c.15-.1-.15-.29.15-.39,0,0,0,0-.15,0H28l-.15,0s0,0,.15-.1h0a0,0,0,0,0,0,0l.1-.15c0,.1,0,.2,0,.24s-.1-.2,0-.24,0,.2.15.1a.18.18,0,0,1,0,.15c.1-.1.24,0,.24-.15.1.15.29,0,.29.15,0,0,.15-.2.24-.2-.15.24.29,0,.29.29.1-.24.39-.1.59-.24l0,0c.1,0,.15.1.2.15,0-.2.15-.24.24-.39.15.2,0,.24,0,.39,0-.15.2-.15.15-.29.1.1.1,0,.15.2,0-.24.1,0,.15-.2.15.1,0,.24.2.15s0,.15,0,.15,0-.2.1-.29.1.15.15.2.2-.24.29-.24,0,0,0,.1c.1-.15.39,0,.54-.2v0a.53.53,0,0,1,0-.24s.15-.1.15,0,0,0,0,.1l0,0c.1.15-.1,0-.1.2.15,0,.29-.2.44-.2s-.24,0-.1.2l-.2,0c.15.24-.1,0,0,.24.24,0,.24-.1.49,0,0-.1,0-.15,0-.24.29-.2.29.39.49.15s0-.34.24-.24l0,.2c.24,0,.1-.29.34-.15,0,.1-.2.1-.15.1s.1-.1.2-.15l0,.15c.24,0,.49-.2.73-.24,0,0,0,.1,0,.15a1.81,1.81,0,0,1,1,0l.1-.15s0,0,0,.1,0-.1,0-.15.1.1,0,.1a1,1,0,0,1,.83-.2l0,0c.2,0,.15-.29.39-.2l0,0a6,6,0,0,0,.93-.1,2.51,2.51,0,0,1,1,0c-.1-.1.1-.1.24-.1h.1c.1,0,.15.1.1,0Zm-5.17-.49h0v0s0,0,.1,0Zm-7.12,2.78Zm0,.1h0s.1,0,.1,0Zm.93-.1Zm-.24-1.37Zm6.73-.54h0Zm.29,0s0-.1,0-.1,0,0,.1.1Z"/><path d="M36.06,29.87Z"/><path d="M34.16,30Z"/><path d="M22.15,11.91Z"/><polygon points="38.8 29.38 38.75 29.38 38.8 29.43 38.8 29.38"/><path d="M20.69,9.81l0-.1A.15.15,0,0,1,20.69,9.81Z"/><path d="M20.3,9.37Z"/><path d="M27,15.76h0C27.08,15.81,27,15.81,27,15.76Z"/><path d="M24.84,14.05h.1S24.89,14,24.84,14.05Z"/><polygon points="29.23 17.91 29.23 17.91 29.23 17.96 29.23 17.91"/><path d="M25,14.15a.1.1,0,0,0-.1-.1S25,14.15,25,14.15Z"/><path d="M18.54,7.61Z"/><path d="M18.45,7.61s0,0,0,0Z"/><path d="M19.08,8.15c.1,0,0,.2.15.2s0-.2-.15-.2Z"/><path d="M19.52,9.47l-.1-.15s0,.15-.1.1C19.37,9.66,19.32,9.27,19.52,9.47Z"/><path d="M19.91,9.91c-.1,0,0,0-.1.1S19.91,10,19.91,9.91Z"/><path d="M23,13l-.1,0C23,13.08,23,13,23,13Z"/><polygon points="24.11 13.08 24.11 12.98 24.01 13.03 24.11 13.08"/><polygon points="23.81 14.05 23.77 14.05 23.91 14.1 23.81 14.05"/><path d="M28.89,19.37l.1-.1S28.79,19.32,28.89,19.37Z"/><path d="M31.13,21.62c0,.1,0,.2.1.15S31.18,21.62,31.13,21.62Z"/><polygon points="36.99 29.08 36.94 29.08 37.04 29.13 36.99 29.08"/><path d="M12.74,30.65l.1,0s0-.15,0-.1Z"/><path d="M12.3,30.69c0-.15.1-.1.15-.29a.1.1,0,0,1,.1.1s.1,0,.15,0-.2-.15-.29,0v-.1A.53.53,0,0,0,12.3,30.69Z"/><path d="M2.93,30.26Z"/><path d="M2.49,30.11Z"/><path d="M6.54,30.16l-.1,0C6.44,30.21,6.49,30.16,6.54,30.16Z"/><path d="M11.61,30.69a0,0,0,0,0,0,0,0,0,0,0,1,0,0Z"/><path d="M8.15,30h0a0,0,0,0,0,0,0Z"/><path d="M2.39,30Z"/><path d="M7.22,22.45c-.15,0,0-.24-.24-.2C7,22.3,7.08,22.55,7.22,22.45Z"/><path d="M3.32,28a0,0,0,0,0,0,0h0A0,0,0,0,1,3.32,28Z"/><path d="M3.9,27.13Z"/><path d="M14.35,9.61a.18.18,0,0,1,.15,0C14.35,9.56,14.4,9.42,14.35,9.61Z"/><path d="M11.57,30.69h0l0,0S11.61,30.69,11.57,30.69Z"/><path d="M2.83,26.84a.18.18,0,0,0,.15,0v0Z"/><path d="M14,11.91Z"/><path d="M6.59,30.21Z"/><polygon points="10.3 15.57 10.35 15.62 10.35 15.57 10.3 15.57"/><path d="M9.66,30.69v0h0Z"/><path d="M.49,30.6h0S.49,30.55.49,30.6Z"/><path d="M3.27,30.79s0,0-.1,0S3.27,30.84,3.27,30.79Z"/><path d="M2.44,27.38Z"/><path d="M3.07,30.84h0Z"/><path d="M12.15,30.69Z"/><path d="M12.25,30.65l0,0A0,0,0,0,0,12.25,30.65Z"/><path d="M10.39,30c-.24-.15,0,.1-.2.1l.2,0S10.3,30,10.39,30Z"/><path d="M9.56,30c.1,0,0-.1,0-.1S9.47,30,9.56,30Z"/><path d="M5.22,30.16V30S5.27,30.06,5.22,30.16Z"/><polygon points="4.54 30.89 4.54 30.79 4.44 30.84 4.54 30.89"/><polygon points="3.95 29.96 3.81 30.01 3.9 29.96 3.95 29.96"/><path d="M3.76,27.28s.15.15.15,0Z"/><path d="M5.51,24.64c.1,0,.2,0,.15-.1S5.51,24.59,5.51,24.64Z"/><polygon points="10.88 17.03 10.93 16.93 10.88 16.93 10.88 17.03"/><path d="M10.83,42.5h0Z"/><path d="M10.78,42.36a.73.73,0,0,1,.29,0,.17.17,0,0,1-.1,0s0,0,0,0,.15,0,0-.1h.1A.37.37,0,0,0,10.78,42.36Z"/><path d="M11.52,39.38Z"/><path d="M11.32,40.65l0,0S11.32,40.6,11.32,40.65Z"/><path d="M10.74,42.16Z"/><path d="M11.47,41.09Z"/><polygon points="11.18 30.4 11.18 30.4 11.27 30.4 11.18 30.4"/><path d="M11.71,39Z"/><path d="M11.57,36c-.15,0-.15,0-.29,0C11.32,36,11.47,36.06,11.57,36Z"/><path d="M11.37,38h0s0,0,0,0Z"/><path d="M11.37,37.72Z"/><path d="M10.49,31.72h.15C10.54,31.72,10.49,31.67,10.49,31.72Z"/><path d="M10.78,42.11h0S10.78,42.16,10.78,42.11Z"/><path d="M10.3,37.82s.1,0,.1,0h0Z"/><path d="M11.42,32.94Z"/><path d="M11.47,32.4Z"/><path d="M11.27,40.65Z"/><path d="M10.39,33.82Z"/><path d="M10.49,38.89Z"/><path d="M10.83,39.67h0Z"/><path d="M10.3,38Z"/><path d="M10.78,39.62s0,0,0,0Z"/><path d="M10.74,42.31Z"/><path d="M10.78,42.31Z"/><path d="M10.78,42s-.1,0,0,0h0C10.69,42.06,10.83,42,10.78,42Z"/><path d="M11.37,40.26h.15S11.47,40.26,11.37,40.26Z"/><polygon points="10.74 40.02 10.64 40.06 10.79 40.06 10.74 40.02"/><polygon points="11.61 39.87 11.61 39.87 11.56 39.82 11.61 39.87"/><path d="M11.52,37.77h0Z"/><path d="M11.32,36.84c.1,0,.15,0,0,0Z"/><path d="M11.61,34.11h0Z"/><path d="M27,40.75h0Z"/><path d="M26.94,40.65a.73.73,0,0,1,.29,0,.07.07,0,0,1-.1,0s0,0,0,0,.15,0,0,0h.1A1,1,0,0,0,26.94,40.65Z"/><path d="M27.82,38.31Z"/><path d="M27.57,39.28h0Z"/><path d="M26.94,40.5Z"/><path d="M27.67,39.67Z"/><path d="M27.91,35.57c-.15,0-.15,0-.29,0C27.72,35.57,27.86,35.62,27.91,35.57Z"/><path d="M27.72,37.18s0,0,0,0h0S27.77,37.14,27.72,37.18Z"/><path d="M27.72,36.89Z"/><path d="M26.94,32.06h.15C26.94,32.06,26.94,32,26.94,32.06Z"/><path d="M26.94,40.45h0S26.94,40.5,26.94,40.45Z"/><path d="M26.64,37h0Z"/><path d="M27.82,33.09Z"/><path d="M27.91,32.6Z"/><path d="M27.52,39.28Z"/><path d="M26.79,33.77h0Z"/><path d="M27,40h0Z"/><path d="M26.79,37.87Z"/><path d="M27.13,38.5h0Z"/><path d="M26.64,37.14Z"/><path d="M27,38.45Z"/><path d="M26.89,40.6Z"/><path d="M27,40.65Z"/><path d="M26.94,40.36l-.1,0h0S27,40.41,26.94,40.36Z"/><path d="M27.57,40.11h0s.1,0,.1,0S27.52,40.21,27.57,40.11Z"/><path d="M27.62,40h.1S27.67,40,27.62,40Z"/><path d="M27.62,39h.15S27.72,39,27.62,39Z"/><polygon points="26.99 38.8 26.94 38.8 27.04 38.8 26.99 38.8"/><path d="M27.86,38.65l0,0Z"/><path d="M27.86,36.94h-.15S27.91,37,27.86,36.94Z"/><path d="M27.72,36.21c.1,0,.15,0,0,0S27.67,36.21,27.72,36.21Z"/><path d="M28,34h0Z"/><path d="M10.3,41.53v-.15l0,0S10.25,41.58,10.3,41.53Z"/><path d="M10.35,41.53s0,0,0,0,.1.15.1,0v.1a.72.72,0,0,0,0-.34.53.53,0,0,0,0,.29S10.35,41.58,10.35,41.53Z"/><path d="M14.59,42.26Z"/><path d="M12.83,42l0,0S12.88,42,12.83,42Z"/><path d="M10.74,41.33Z"/><path d="M12.2,42.11h0v0Z"/><polygon points="27.33 41.92 27.33 41.92 27.33 42.02 27.33 41.92"/><path d="M15.08,42.46Z"/><path d="M19.37,42.41c0-.15.1-.15,0-.29C19.37,42.16,19.32,42.31,19.37,42.41Z"/><path d="M16.54,42.21Z"/><path d="M17,42.21Z"/><path d="M25.42,41.28v.15C25.47,41.33,25.52,41.28,25.42,41.28Z"/><path d="M10.78,41.33h0v0S10.78,41.33,10.78,41.33Z"/><path d="M16.88,41.09a.17.17,0,0,0,0,.1v0Z"/><path d="M23.77,42.21Z"/><path d="M27.28,41.33l0,.15v-.1l0,0c0-.1-.1,0-.1,0s0-.1,0-.1l0,.2c0-.1,0-.2,0-.24s0,.24,0,.29,0-.2,0-.1v-.1s-.1,0-.1.15c0-.15-.1,0-.1-.2a.37.37,0,0,1-.1.2c0-.24-.1,0-.1-.29,0,.24-.15.1-.24.24v0s0-.1-.1-.15c0,.2-.1.24-.1.34,0-.2,0-.24,0-.39,0,.15-.1.15-.1.29v-.24c0,.24,0,0-.1.2,0-.1,0-.24-.1-.15a.11.11,0,0,1,0-.15s0,.2,0,.29,0-.15,0-.24-.1.2-.15.2v-.1c0,.15-.15,0-.2.2v.2s0,.1,0,0a.15.15,0,0,1,0-.1l0,0c0-.15,0,0,0-.2,0,0-.15.2-.2.15s.1,0,0-.2l0,0c0-.24,0,0,0-.24-.1,0-.1.1-.2,0v.24c-.15.15-.1-.44-.2-.2s0,.34-.1.2l0-.2c-.1,0,0,.29-.15.15s0,0,0-.1,0,.1-.1.1v-.15c-.1,0-.2.15-.29.2s0-.1,0-.15-.29,0-.44-.15l-.1.15v-.1s0,.1,0,.15,0-.1,0-.15-.24.24-.34.1v0s-.1.29-.15.15v0c-.15,0-.34,0-.44-.15,0,.2-.15-.1-.2.2-.1-.15,0-.2-.2-.29s0,.2-.1.2v-.15l0,.15,0-.2,0,0a.17.17,0,0,1,0,.1s-.15-.1-.15-.2l-.15.24a.17.17,0,0,1,0-.1c-.1.15,0-.15-.1,0v.1c0-.1-.1-.1-.2,0v-.1c-.1,0-.24,0-.34,0s0,.24,0,.24v-.15c0,.1,0,0,0,.2s0-.2,0-.24l0,0v-.15c0,.1-.1-.15-.15,0v0c-.15,0-.2,0-.29,0s0,.1-.1.2a.41.41,0,0,0-.24-.15s0,.1,0,.2c0-.15-.1-.1,0-.2s-.15,0-.29.15,0,.1,0,.1,0,0,0-.1h0c-.15.2-.34-.39-.49-.1h0v.1s0-.1,0-.2c-.15.2-.2,0-.34.1-.1-.39-.29,0-.44-.2v.1c0,.1,0,0,0,0s0,.1,0,.15c-.24.1-.54-.15-.78-.2s0,.44-.2.24l0-.15c-.2.2-.39,0-.59.15,0,0,0-.1,0-.1s-.15,0-.15.1,0-.1,0-.15-.1.15-.1,0v0s-.1,0-.1.1-.15,0-.2,0-.1-.15-.1,0c0-.24-.15-.2-.15-.1s0,0,0-.15-.1,0-.1.15c-.1-.24-.2.2-.24-.15a2,2,0,0,1-.44.24c0-.24.15,0,.15-.24-.15.1-.2.29-.34.24s0-.1,0-.15c-.15.1-.24,0-.34.1a0,0,0,0,1,0,0s0,0,0,0v0c0,.15-.1.29-.1.39,0-.29-.1,0,0-.44a.21.21,0,0,0,0,.15s0,0,0-.15,0,.15-.15.15v-.15c0,.1-.1.2-.15.15v0c-.1,0-.2.24-.29.15s0,0,0-.24l0,.15,0,.1s-.1.15-.15,0l0-.1-.1,0,0,0c0,.1,0,.24,0,.2s0,0-.1-.1h0s0,.1-.1,0v-.24c0,.15-.15,0-.15.2v0s0,0,0-.15,0,.24,0,.15v0c-.1,0-.2.1-.24,0s.1,0,0-.2c-.1,0-.24.2-.39.2h0c0,.24-.1-.15-.15,0v-.1c-.1,0-.15,0-.29.15v0a.29.29,0,0,0-.2,0s0,0,0,.15c-.15-.39-.29.2-.44-.1l0,0-.1,0c0,.1,0,0,0,.15a.1.1,0,0,1-.1.1c0-.1,0-.2,0-.24v.1c0-.2,0,.24-.1.1v0s0,.1-.1.1,0,0,0-.15-.1.24-.15.1a0,0,0,0,1,0,0c0-.15,0-.1-.1-.15h0l-.1,0v0c0,.34-.15,0-.2.29.1-.2,0-.1,0-.29s0-.1,0-.15,0-.1-.1.1c0,0,0,0,0-.15,0,0,0,.1,0,.15a0,0,0,0,1,0,0h0s0,0,0-.1.1-.1.15-.15h0c-.2,0-.15,0-.2-.1h.2v0s-.1,0-.1,0h.15s-.15-.1-.1-.15c-.15,0-.34,0-.44,0H11a0,0,0,0,1,0,0h.1s-.1,0-.1,0h.15s0,0,0,0a.21.21,0,0,1,.15,0h-.15s.1,0,.15,0,0,0-.15,0a.15.15,0,0,0,.1,0s0-.1-.2,0h0c-.15,0,.1-.15,0-.24h0s0-.1-.15-.15a.49.49,0,0,1,.15,0s-.1,0,0-.1.1,0,0,0,.1,0,0-.1c.15,0,.15,0,.1,0l-.1,0v0h.15c.2-.1-.34-.15,0-.24-.1,0-.1,0-.2,0s.24-.1.24-.1-.24,0-.2-.1h-.24s.24,0,.29,0h0a.07.07,0,0,0,.1,0h0s0-.1.15,0-.1,0-.15,0,0-.1,0-.15h-.1c0-.1-.1,0-.15-.1s.2,0,.15,0,.15,0,.2,0,0-.1.1-.15l0,0a0,0,0,0,1,0,0h-.1a0,0,0,0,1,0,0h-.29s0,0,.1,0c0,0,.15,0,.2,0v0h0c.15,0-.2,0-.2-.1s.15,0,.15,0-.15,0-.2,0c.34,0,.24,0,.24,0l0,0c-.1,0-.1,0-.1,0s0,0,.1,0c-.15,0,.15-.1,0-.1a.29.29,0,0,0,.2,0c-.1,0,.1,0,0-.1h-.2l.1.1-.15,0s.1,0,0,0h-.15c.2,0-.1,0,0-.1h.29c.15,0-.15-.1-.1-.2h0c-.1,0,0,0,0-.1s.15,0,.2,0,0,0-.2,0l.15,0s-.29,0-.24-.15a.37.37,0,0,1,.24,0,0,0,0,0,0,0,0s-.15,0,0-.1-.15,0-.15,0h0s0,0-.2,0c.29,0,0-.2.24-.24a.18.18,0,0,1,0-.15h0c.1,0-.29,0-.2-.1s.1,0,.15,0c.29,0,0-.1.15-.15h0c.1,0-.1-.1-.1-.15h0a.52.52,0,0,1-.24-.15h.2s-.2,0-.24,0a2.11,2.11,0,0,1,.24,0v0c.2,0,0,0,0-.1h.1s-.2,0-.2-.15h0c-.2,0,.1,0,0,0h.2s-.2-.1-.24-.15c.15,0,.2.1.29.1s0-.1-.1-.1a0,0,0,0,1,0,0c-.15,0-.24,0-.24-.15.39,0,.1-.15.39-.2-.15-.1,0-.2,0-.29-.29,0,0,0-.29,0v0h0l.15.2h.15s.15,0,.2,0-.15,0-.1,0l-.15,0c-.15-.1.24,0,.1-.15h.1s0-.15-.24-.2h.15c0-.1-.24-.2-.1-.29h0s-.15,0,0,0h.1s-.15,0-.1,0h.1c.1-.1-.2-.15-.24-.2a.47.47,0,0,0,.34-.1h0c0-.1-.2-.2-.24-.29.24,0,.1-.2.24-.29h-.2s-.15,0,0,0h0c.2,0,.15,0,.15-.1h-.24c.39-.1-.15-.24.2-.29a.38.38,0,0,0-.15-.1h.15s0-.1,0-.2h.1s-.39,0-.39-.1h.2c0-.1.2-.15,0-.24h.1s.15-.15-.15-.15c.2,0,0-.1,0-.15h.15c-.2,0-.24,0-.24-.1h.1s-.15,0,0,0h.1s0,0-.15,0,0-.1.15-.1c-.1,0-.2,0-.15,0h.1c.1,0-.15-.1,0-.15h.1v.1c.15,0,.15,0,.34,0-.1,0-.29-.1-.24-.15h0v0a0,0,0,0,0,0,0c.1,0,0,0,0,0s-.1,0-.24,0h0v0s-.15,0,0,0a2.11,2.11,0,0,1-.24,0c.2,0,.29-.1.44-.1-.1,0,0-.15-.29-.2h.1s0,0,0,0,0-.1-.2-.15c.1,0,.15,0,.15,0h0c.29-.1-.44-.24-.1-.34h0c.15-.15-.15-.34.15-.49,0,0,0,0-.15-.1h.15l-.15,0c-.1-.1.39-.1.15-.2h-.1v0h0s0,0,0,0-.1,0,0,0h.1l-.15-.1s.2,0,.24,0v0c.1,0,0-.2.2-.1a.37.37,0,0,1-.1.2c.1,0,.2-.15.29-.2s0,.15-.1.2.29-.1.34-.2l-.1,0s0,.1,0,.15-.15,0-.15-.1l.1,0c-.1-.29-.29,0-.44,0l0-.2-.15.15a.15.15,0,0,1,0-.2c-.24,0-.24.24-.34.15v0l-.1,0s0-.15,0-.1c-.2-.1-.29.15-.39,0h0c-.24,0,0,.15-.2.29h0l-.15-.34,0,.15s-.1,0,0-.1c-.1.1,0,0,0,.15-.15-.15-.34,0-.39-.15,0,.1.15.1,0,.15,0-.24-.15,0-.29,0,0-.15.15,0,0-.2,0,.24-.24,0-.34,0a.17.17,0,0,1,0,.1.17.17,0,0,1,0-.1v-.1s0,.15,0,.2-.2,0-.34,0-.34-.1-.49-.15v0c0,.2-.2.15-.29.2s0-.15.1-.2H8.2s0,.1-.15.1l0-.15c-.15,0-.29.15-.49.1,0,.15.15.34,0,.44,0,0,0-.2,0-.2a.17.17,0,0,1-.1,0l.1-.1c-.1,0,0,.1-.1.1s0,0,0-.15a.07.07,0,0,0,.1,0c-.1,0-.2,0-.2-.15s0,.15,0,.15,0-.1-.15-.15S7,30,7,30.16s0,0,0-.1-.34,0-.29.2h0c-.24.15-.54,0-.78,0v0c-.15,0-.34,0-.44.15s-.1-.1-.1-.15a.3.3,0,0,1-.29,0c.1-.1,0,0,.1,0-.15,0-.2-.1-.34,0,0-.15-.1-.15-.2-.1l.1.1H4.49l0-.15c-.34-.2-.54.34-.78,0-.1.1.2,0,.1.2s-.29-.24-.34-.24-.15.24-.39.2c0,0,0,.2-.1.29s-.2-.24-.1-.29,0,0,0,0,.1,0,0-.1v0c-.1,0-.24,0-.24-.15s0,.1,0,.15c-.2,0-.2,0-.29,0v.1c-.1,0-.1.1-.24.15s.15-.24,0-.15.15-.15.2-.2c-.15.15,0,0,0-.1l0,0,0,0-.15.15.1-.1c-.15.1-.24.2-.49.34,0,0-.24.1,0-.1,0,0,.29-.2.39-.2h0s0,0,.1,0l0,0s-.39.2-.34.15a1.38,1.38,0,0,1,.29-.15,1.17,1.17,0,0,1-.34.15c.15-.1,0,0,0,0l-.24,0c-.15,0-.1,0-.1,0s0,0,.1,0,0,0,0-.1a.6.6,0,0,0,.15-.1c.1,0,.2,0,.24,0s.15,0,0,0-.1,0-.2-.1v.15s-.1,0-.15-.1a.07.07,0,0,0,0,.1c-.1,0,0,0-.15,0,.1,0,.1,0,.1-.1s0-.1,0-.1l.24.15c.2,0,.1-.39.29-.59l-.1,0c-.1-.1.1-.15.1-.24a.37.37,0,0,0,.2,0s.1-.15,0-.29l.2,0c.15-.15-.1-.34,0-.54,0,.1.15,0,.15.24,0,0,.1-.1,0-.15s0-.24.1-.24-.1-.1,0-.2l0,0s0-.15-.1-.15c.39,0,.34-.54.63-.54a3.87,3.87,0,0,1,.2-.44s0,0,0,0c.2-.1-.15-.24,0-.39s0,.15.1.1c.29.15.1-.24.34-.24v0c.15,0,0-.29.2-.44l0,0a.8.8,0,0,1,.1-.59c0,.1,0,.1.15.15s-.2-.1-.15-.24a.8.8,0,0,1,.34,0l-.1.15c.2,0,.1-.15.2-.2l0,0c.1-.2,0-.29.1-.54h0c-.1-.2.15,0,.1-.24l.2,0a1.25,1.25,0,0,1,.1-.54,1.66,1.66,0,0,1,0,.49s.15-.24.1-.34,0,.1,0,.1a.56.56,0,0,1,0-.49c.29.24.34-.34.63-.29,0-.34.39-.49.59-.78-.29,0,0-.1-.2-.24l0-.1H7l.29-.1c.1,0,0,.1,0,.15.1-.15.15,0,.29,0a.1.1,0,0,1,0-.2l-.2,0c0-.29.34,0,.34-.34l0,.1c0-.15.29-.39.15-.63,0,0,.15,0,.1.1.2-.24.2-.73.44-.88l0,0s0-.15,0-.2l0,0s0-.2,0-.24l0,.1c.24-.2.1-.49.2-.78a.44.44,0,0,0,.49-.15h0c.24-.29.2-.63.29-.93.29,0,.49-.54.78-.73,0,0-.15-.1-.1-.15s0-.24.15-.15h0c.2,0,.24-.1.29-.2l-.2-.15c.49,0,.34-.78.73-.78,0-.1,0-.2,0-.29l.1.1a1.25,1.25,0,0,0,.34-.49l0,.1c.1-.15-.24-.39-.15-.49l.2.1c.15-.24.44-.34.44-.68a.17.17,0,0,1,0,.1c.1-.1.39-.34.15-.44.15.1.15-.24.2-.39l.1.1c-.1-.2-.1-.24,0-.39s.1,0,0,0c.15-.1,0-.15.1-.24l0,.1c.1-.1,0-.15,0-.24s.2-.2.29-.15-.1-.2,0-.24,0,0,0,.1c.2-.15,0-.39.24-.44s0,0,.1,0c-.1.15-.2.29-.2.24s.2,0,.29.15c0-.15,0-.44,0-.54h0s0,0,0-.1l.1-.1c.1,0,.15-.1.2-.2s0-.15-.2-.15v.1h0s0,.1-.1.15,0-.15,0-.2a.67.67,0,0,0-.15-.2c.2,0,.39-.1.54,0,0-.24.24-.49.1-.73,0,0,.1,0,.15,0s0,.1,0,.1.2-.34,0-.44c.15-.1.1.15.2,0l0,0c.49-.2,0-.83.59-1.07h-.1c.44-.39.49-1,1-1.37.15-.1,0-.2,0-.29l.15,0,0-.24c0-.24.54-.15.49-.49h-.1c.1-.1.15-.29.24-.24s0-.1,0-.1l0,0,0-.29a0,0,0,0,0,0,0h0a0,0,0,0,0,0,0c.1,0,.2.15.29,0v0s0,0,.1,0,0,0-.1,0a.29.29,0,0,0,0-.2c0-.1,0,.15.15,0l0,.2a1,1,0,0,1,.34-.24.57.57,0,0,1-.29.29.33.33,0,0,0,.24-.15s0,0-.1,0A.36.36,0,0,1,18.3,6c0,.39.34.1.44.34.2-.15.44,0,.73,0-.1-.29.1,0,0-.29h.1l.2.15c0,.1,0,0,0,.15s0,.15.15.2,0-.15.1-.1l-.1-.15c.2-.15.2.24.34.1l0,.29c.1,0,.34,0,.44-.24,0,0,0,.1,0,.15.24,0,.49-.29.68-.15v.1s0-.15.15,0v.1s.1-.15.15-.1l0,.1c.24.1.34-.2.54-.29a.31.31,0,0,0,.29.29v0c.24,0,.44-.2.68-.29.15.24.54,0,.78.2,0,0,0-.15,0-.2s.15-.15.15,0h0c0,.2.15.15.24.15V6.3c.24.34.63-.2.78.15,0,0,.15,0,.2-.15v.15a.67.67,0,0,0,.44,0l0,.1c.1,0,.1-.39.2-.44l0,.2c.2,0,.39.15.59,0,0,0,0,.1,0,.1s.34.1.29-.15c0,.2.2,0,.29-.1v.15c.1-.2.1-.24.2-.29a.07.07,0,0,1,0,.1s0-.15.15,0l0,.1c.1,0,.1,0,.15-.15s.2,0,.2.15c0-.1,0-.2.1-.15v.1c.2.1.24-.2.34,0s0,0,0,.1h-.24c0,.15.1.15,0,.34.1-.1.2-.29.34-.24v0h0s0,0,0,0,0,0,.1,0,.15,0,.2,0,0-.1,0-.24l0,0h-.15s.1-.15.15,0a2.11,2.11,0,0,1,0-.24c.1.2.24.29.24.39.15-.1.39-.1.49-.34,0,0,0,0,.1.1l0,0c.1,0,.29,0,.29-.24.15,0,0,.15.1.15V6c.34.24.49-.49.88-.15a0,0,0,0,1,0,0c.44.15.83-.2,1.22,0,.1,0,.1,0,.2-.15l0,.15.1-.2c.15-.15.29.34.49.1l0-.1c.1,0,.24-.1.24,0s0-.1,0,0v.1l.2-.15c.15,0,0,.29.2.29a.52.52,0,0,0,.2-.29,0,0,0,0,1,0,0c.2,0,.34,0,.49-.15L33.87,5l.1,0V5c.1,0,0-.1,0-.15s.1,0,.15,0l-.2-.15c.1,0,.2,0,.24,0s-.2,0-.24,0,.2,0,.1-.15.1,0,.1,0,0-.2-.15-.24c.15,0,0-.24.2-.24,0,0-.15-.15-.2-.2.24.15,0-.24.29-.2-.24-.1-.1-.34-.24-.49l0,0c0-.1.1-.1.15-.15-.2,0-.24-.15-.34-.24.2-.1.24,0,.39,0-.15,0-.15-.2-.29-.15.1-.1,0,0,.2-.1-.24,0,0-.1-.2-.15.1-.1.24,0,.15-.15a.11.11,0,0,1,.15,0c0-.15-.2,0-.29-.1s.15,0,.24-.15-.2-.2-.2-.24h.1s0-.15-.1-.2v-.1s0-.1-.1-.15a0,0,0,0,0,0,0,.53.53,0,0,1-.24,0c0-.1-.1-.1,0-.15s0,0,.1,0l0,0c.15-.15,0,.1.2,0,0-.2-.2-.29-.15-.44s0,.29.2,0l0,.24c.24-.24,0,.15.24-.1,0-.39-.1-.34,0-.73-.1,0-.15.15-.24.15a.18.18,0,0,1,0-.15c-.2,0,.1-.39-.34-.24-.15.15-.24.34-.44.24,0,0,.1-.15.15-.2-.34,0-.24.29-.54.15,0-.1.24,0,.2-.1s-.2.1-.29.1V.15c-.2,0-.39.15-.63.2,0,0,0-.1,0-.15a1.2,1.2,0,0,1-.83-.1L31,.24a.07.07,0,0,1,0-.1c-.1,0,0,.1,0,.15a.09.09,0,0,1,0-.15c-.2.1-.54.24-.73.1l0,0c-.15,0-.2.29-.29.15h0c-.34,0-.68.1-.93-.15,0,.2-.34-.1-.34.2C28.5.24,28.55.2,28.3.1c0,0-.1.2-.2.2V.15L28,.29l0-.2-.1,0s0,0,0,.1a.24.24,0,0,1-.29-.2L27.33.2a.1.1,0,0,1,.1-.1c-.15.15,0-.15-.2,0V.2a.3.3,0,0,0-.34,0V0c-.24,0-.49,0-.73,0,.1,0,0,.24,0,.24l0-.15c0,.1.1,0,0,.2s0-.2,0-.24L26,.2s0,0,0-.15c0,.1-.2-.15-.24,0V0c-.24,0-.34,0-.59,0,0,.15-.1.1-.15.24a1.43,1.43,0,0,0-.49-.15c-.15,0,0,.1-.1.2,0-.15-.2-.1-.1-.2a1.27,1.27,0,0,0-.54.15s0,0,0,.1a.1.1,0,0,1-.1-.1h0c-.29.2-.73-.34-1-.1h0l-.24.15c-.1,0,0-.1,0-.2-.24.2-.44,0-.63.15-.2-.34-.63,0-.88-.2V.2c0,.1-.1,0-.1,0s0,.1,0,.15A6.19,6.19,0,0,1,19.42.15c-.2,0-.1.44-.34.24l0-.15c-.39.2-.78,0-1.17.2,0,0,0-.1,0-.1a.19.19,0,0,0-.29.1s0-.1,0-.15-.2.15-.24,0a0,0,0,0,1,0,0s-.24,0-.2.15c-.15,0-.29,0-.39,0-.1.15-.29-.1-.29.15,0-.24-.24-.15-.34,0s-.1,0,0-.15-.2,0-.2.15c-.2-.24-.39.24-.49-.1a3.4,3.4,0,0,1-.83.29c0-.24.29,0,.29-.24-.24.1-.39.29-.68.24,0,0,0-.1,0-.15-.24.1-.49,0-.73.15a0,0,0,0,1,0,0s-.1,0-.1,0l0,0c.1.15-.15.29-.2.39,0-.29-.24,0-.15-.44,0,0,0,0,0,.15s0,0,0-.15c-.15,0-.1.15-.24.15s0,0,0-.15c-.1.15-.15.24-.29.2s0,0,0,0c-.2,0-.34.29-.59.2,0-.2-.1,0-.1-.24L12,.78l0,.1c-.1,0-.2.15-.29.1l.1-.1-.2,0,.1,0c-.1.1,0,.24-.15.2a.47.47,0,0,1-.2-.1h0s-.1.15-.2.1,0-.2,0-.24c0,.15-.24,0-.34.24V1l0,.15s0,0,0-.15,0,.24-.15.15a0,0,0,0,1,0,0c-.2,0-.34.1-.54,0s.15,0,.1-.2c-.24,0-.49.24-.73.2h0c0,.24-.2-.1-.29,0s0-.15,0-.1-.34.1-.59.2l0,0c-.1,0-.24,0-.34,0s-.1,0,0,.15c-.34-.34-.59.24-.88,0,0,0,.1,0,0,0l-.24.1c0,.1,0,0,.1.15s-.1.15-.15.15,0-.2,0-.24v.1c-.15-.2,0,.24-.2.1v0a.25.25,0,0,1-.2.1c0-.15,0,0,0-.2s-.2.24-.29.15.1,0,.15-.1-.1-.1-.2-.15h0l-.15,0,0,0c-.1.34-.24.1-.39.29.15-.24,0-.15,0-.29s-.1-.1-.1-.15c0,.15-.15-.1-.24.1,0,0-.1,0-.1-.1s0,.1,0,.15-.29-.2-.49,0-.2.24-.39.34,0-.2,0-.2a.22.22,0,0,0-.24,0,.18.18,0,0,0,0-.15s0,.2-.15.1,0-.15,0-.2-.15.15-.24.2,0-.15,0-.2-.24.1-.29.24l0,0s0-.1,0-.15a.21.21,0,0,1,.2.2l0,0c.1.29.24,0,.39,0l0,.2.1-.2a.15.15,0,0,1,0,.2c.1.1.1-.1.15,0v0l.1,0s0,.15,0,.1c.15.1.24-.15.34,0H5c.2-.1,0-.15.15-.34l.15.34V1.76a0,0,0,0,1,0,0c.1-.1,0,0,0-.15.1.15.29-.1.34.15,0-.1-.1-.1,0-.15,0,.24.15,0,.24,0s-.15,0,0,.2c0-.24.2,0,.29,0s0-.1,0-.1a.17.17,0,0,1,0,.1V2s0-.15,0-.2.2,0,.29,0,.29.1.39.15V2c0-.2.15-.15.24-.2s0,.15,0,.2h.1a.1.1,0,0,1,.1-.1V2c.15,0,.24-.2.39-.1,0-.15-.15-.34,0-.44v.2a.17.17,0,0,1,.1,0l0,.1c.1,0,0-.1.1-.1s0,0,0,.15a.07.07,0,0,0-.1,0,.26.26,0,0,1,.2.15s0-.15,0-.15,0,.1.15.15.1,0,.1-.15,0,0,0,.1.29,0,.24-.2h0c.2-.15.44,0,.63,0v0c.15,0,.29,0,.34-.15s.1.1.1.15.1-.1.24,0c-.1.1,0,0-.1,0,.15,0,.15.1.29,0,0,.15.1.15.15.1l-.1-.1h.2v.15c.24.2.44-.34.63,0,0-.1-.15,0-.1-.2s.24.24.29.24.15-.24.29-.2a.24.24,0,0,1,0-.29c.1,0,.15.24.1.29s0,0,0,0-.1,0,0,.1v0s.24,0,.2.15,0-.1,0-.15c.15.1.24,0,.39,0a.15.15,0,0,1,0-.1c.34.1.2,0,.34-.1s0,.2.15.15,0,.15,0,.2c.15-.1.29,0,.34.1l0,0a.15.15,0,0,1,.1,0l0-.15s.1,0,.1,0,0-.2,0-.29.2,0,.2.1c-.2,0,0,.15-.15.2h.1v0c.2.15,0-.2.24-.2,0,.1,0,.15.1.15s0-.15,0-.2.15,0,.2,0l0,0c0-.1.1-.1.15-.1s0,0,0,.1c.1-.2.24.1.34,0s0,.15,0,.2.15.1.29,0c0-.1,0-.1,0-.2l-.24.1.15-.2c-.1,0-.15.1-.2,0s0,0,0-.15c.1.15.2-.1.34,0v.29c.2.1.29-.15.54-.1l-.1,0c0-.1.15,0,.2,0a.25.25,0,0,0,.1.2s.15,0,.2-.2l.1.15c.2,0,.2-.29.39-.29,0,.1,0,.2-.1.24,0,0,.1,0,.1,0s.15-.15.2,0,0-.15.1-.15v0s.1,0,0-.2c.2.29.49,0,.68.2a1.21,1.21,0,0,0,.44,0v0c.15.1.1-.29.29-.2s-.1.1,0,.15c0,.29.24,0,.34.15h0c.1.15.24-.1.39-.1v0a.88.88,0,0,1,.44-.29c0,.15,0,0,0,.2s0-.2.1-.24a.41.41,0,0,1,.15.24h-.15c0,.2.15,0,.24,0v.1c.2,0,.2-.24.39-.2v0c.1-.2.1.1.2,0l0,.2A2.72,2.72,0,0,1,20.15,1c0,.15-.24.24-.34.29.1,0,.24,0,.29-.1s0,0-.1,0,.2-.24.34-.24c0,.39.39.1.49.39.24-.15.54,0,.83,0-.1-.29.1,0,0-.29h.1l.29.2c0,.1,0,0,0,.15s0,.15.2.2,0-.15.15-.1l-.15-.15c.2-.15.2.24.39.1l0,.1c.1,0,.39,0,.54-.24,0,0,0,.1,0,.15.29,0,.59-.29.78-.15v.1s.1-.15.15,0v.1s.15-.15.2-.1l0,.1c.24.1.39-.2.63-.24a.31.31,0,0,0,.29.29v0a2.16,2.16,0,0,0,.78-.29c.15.15.59,0,.88.1,0,0,0-.15,0-.2s.2-.15.2,0h0c0,.2.2.15.29.15V1.17c.29.39.73-.15.88.2,0,0,.15,0,.2-.15v.15a.83.83,0,0,0,.49,0l0,.1c.15,0,.15-.39.29-.39l0,.2c.24,0,.44.2.68,0,0,0,0,.1,0,.1s.39.15.39-.15c0,.2.24,0,.34,0v.15c.1-.2.1-.24.24-.29s0,0,0,.1.1-.15.2,0l0,.1c.1,0,.1,0,.2-.15s.24,0,.24.15c0-.1.1-.2.15-.15s0,.1,0,.1c.2.1.29-.15.44,0v.1h-.24c0,.15.15.15,0,.34.1-.1.29-.29.39-.24v0h.1s0,0,.1,0,0,0,.1,0,.1-.1,0-.24h-.24s.1-.15.15,0,.1-.1.15-.15c.1.2.24.29.24.39.1-.1.15,0,.39-.29,0,0,0,.1,0,.1s0,0-.1,0a.18.18,0,0,1,.15,0,.38.38,0,0,0,.15,0c-.1.15-.15.1-.15.2l0,0c-.15.2,0,.15,0,.24a.25.25,0,0,1,.1.2.36.36,0,0,1-.1.29,0,0,0,0,1,0,0c-.15.49.15,1-.15,1.42,0,.15,0,.15.15.24l-.15,0,.15.15c.1.2-.39.34-.15.59l.1,0c0,.1,0,.24,0,.24a0,0,0,0,0,0,0l0,.2c0-.1,0-.2,0-.24s0,.2,0,.24,0-.2-.1-.1V4.49c0,.1-.15,0-.2.15,0-.15-.2,0-.2-.15,0,0-.1.2-.15.2.1-.24-.2,0-.2-.29,0,.24-.24.15-.39.24a0,0,0,0,1,0,0c-.1,0-.1-.1-.15-.1,0,.2-.1.24-.15.34-.1-.2,0-.24,0-.39,0,.15-.15.15-.1.29-.1-.1,0,0-.1-.2,0,.24,0,0-.1.2-.1-.1,0-.24-.15-.15s0-.15,0-.15,0,.2,0,.29,0-.15-.15-.2-.15.24-.2.24v-.1c-.1.15-.29,0-.34.2v0a2.11,2.11,0,0,0,0,.24s-.1.1-.1,0,0,0,0-.1l0,0c0-.15,0,0,0-.2-.1,0-.2.2-.29.15s.2,0,0-.2l.15,0c-.1-.24.1,0,0-.24-.15,0-.2.1-.34,0s0,.15,0,.24c-.24.2-.2-.39-.39-.2s0,.34-.15.24l0-.2c-.15,0,0,.29-.24.15,0-.1.1,0,.1-.1s0,.1-.15.1l0-.15c-.15,0-.34.15-.54.2,0,0,0-.1,0-.15a1.26,1.26,0,0,1-.73,0l-.1.15a.07.07,0,0,1,0-.1c-.1,0,0,.1,0,.15s0-.1,0-.15c-.15.15-.44.29-.59.15l0,0c-.15,0-.15.29-.24.2V5c-.29,0-.59.1-.83-.1,0,.2-.29-.1-.29.2-.15-.15-.15-.2-.34-.24s-.1.2-.15.2V4.93l-.1.15,0-.2,0,0s0,0,0,.1-.29-.1-.29-.15l-.54.34s0-.1.1-.15c-.15.15,0-.15-.15,0v.1c0-.1-.2-.1-.29,0V5c-.2,0-.39.1-.63.1.1,0,0,.24,0,.24l0-.15c0,.1,0,0,0,.2s0-.2,0-.24l-.15,0V5.08c0,.1-.2-.15-.24,0v0a1.73,1.73,0,0,0-.49.1c0,.15,0,.1-.1.24-.15,0-.29-.15-.44-.1s0,.1,0,.2c0-.15-.15-.1-.1-.2a2.63,2.63,0,0,0-.49.15s0,0,0,.1a.1.1,0,0,1-.1-.1h0c-.24.2-.63-.34-.83,0h0l-.2.15c-.1,0,0-.1,0-.15-.24.24-.39,0-.54.15-.15-.34-.54,0-.73-.15v.1c0,.1,0,0-.1,0s0,.1,0,.15c-.44.15-.93-.1-1.37-.15-.15,0,0,.44-.29.24l0-.15c-.34.2-.68,0-1,.2,0,0,0-.1,0-.1a.15.15,0,0,0-.24.1s0-.1,0-.15-.15.15-.2,0a0,0,0,0,1,0,0s-.2,0-.15.15c-.15,0-.24,0-.34,0,0,.15-.2,0-.24.15,0-.24-.24-.15-.29,0s0,0,0-.15a.13.13,0,0,0-.15.15c-.2-.24-.34.24-.44-.1a2.3,2.3,0,0,1-.73.29c0-.24.24,0,.24-.24-.24.1-.34.29-.59.24,0,0,0-.1,0-.15-.24.1-.44,0-.63.15a0,0,0,0,1,0,0s-.1,0-.1,0l0,0c0,.15-.15.29-.15.39,0-.29-.2,0-.1-.44,0,0,0,0,0,.15s0,0,0-.15c-.15,0-.1.15-.2.15s0,0,0-.15c0,.1-.15.2-.24.15v0c-.2,0-.29.24-.54.2,0-.2,0,0-.1-.24l-.1,0,0,.1c-.1,0-.2.15-.24.1l0-.1-.2,0,.1,0c-.1.1,0,.24-.1.2s-.1,0-.15-.1h0s-.1.15-.15.1V6.2c0,.15-.24,0-.29.2V6.25l0,.15c-.1-.2-.1-.2-.1-.29s0,.24-.1.15a0,0,0,0,1,0,0c-.15,0-.29.1-.44,0s.15,0,0-.2c-.2,0-.44.24-.63.2h0c0,.24-.15-.1-.24,0s0-.15,0-.1-.29.1-.49.15v0a.62.62,0,0,0-.29,0s-.1,0,0,.15c-.29-.39-.54.24-.78-.1a0,0,0,0,0,0,0l-.2,0c0,.1,0,0,.1.15s-.1.1-.15.15,0-.2,0-.24v.1c-.1-.2,0,.24-.15.1v0s-.1.1-.15.1,0,0,0-.15-.15.24-.24.15.1,0,.1-.1-.1-.1-.15-.15h0l-.15-.1,0,0c-.1.34-.2,0-.34.29.15-.2,0-.15,0-.29s-.1-.1-.1-.15-.1-.1-.2.1c0,0,0,0,0-.15-.1,0,0,.1,0,.15S5.17,6,5,6.25s-.2.24-.34.34c0-.1,0-.2,0-.2s-.1,0-.2,0h0v0h0c-.15,0,0,0-.2,0h0s-.2,0-.15,0,0,0,.2,0l0,0c.24,0,0,0,.24,0,0,0-.1,0,0,0H4.29c-.15,0,.39,0,.2,0h0s-.29,0-.15,0h.1c.15,0-.1,0-.1,0h.15s-.15,0-.2-.1h.15c-.1,0,0-.1.1-.15h0c-.15,0-.24,0-.1-.1h0s-.29,0-.15,0h0s-.1-.1.15-.15c-.2,0,.1,0-.2,0a2,2,0,0,0,.29-.1H4.44s.1,0,.2,0l-.15,0h.1c-.15,0,.15,0,0,0h-.1c.1,0,.1,0,0,0h.1s0,0,0-.1h0c-.1,0,.15,0,0,0h0s0,0,0-.1h-.2s.15,0,.15-.1h-.2c.15,0,.1,0,.2,0s0,0-.15,0h0c-.2,0,.34-.15.1-.15h0l-.15,0h.2c-.2,0,0,0-.1-.1.39,0,0-.1.2-.15h-.2c-.1,0,.1-.15.2-.24s-.44,0-.24,0h.15c-.2,0,0-.1-.15-.15h.1c.1,0,0,0-.1,0h.15s-.15,0,0,0h0s0,0-.15,0c0,0,0,0,0,0-.15,0,0,0-.15,0,.24,0,.2,0,0,0h.15s0,0-.15,0c.24,0-.2,0,.1-.1a.82.82,0,0,0-.24-.1c.24,0,0,0,.24,0-.1,0-.29,0-.24-.1h.15c-.1,0,0-.1-.1-.1H3.9c.29,0,0,0,.44,0h0s-.15,0-.15,0h.15c-.1,0-.2,0-.15,0h0s-.24,0-.15-.1,0,0,.24,0H4.2s-.15,0,0,0h.1l0,0H4l.1,0H4.2c-.15,0,0,0-.2,0h0s-.1,0,0-.1h.2s-.24,0-.2-.1h0c-.24,0,.15,0,0,0h.1s0,0-.15-.1h0a0,0,0,0,0,0,0H4c.39,0-.2-.1.1-.15h0l0,0H4c.2,0-.24,0-.1,0H4s-.24,0-.1,0H4c.15,0,.1,0,.15,0h0l0,0h0c-.34,0,0,0-.29,0h.44c-.1,0,.1,0-.1,0h0c-.15,0,.2,0,0-.1a.83.83,0,0,1-.34,0H4s0,0,0,0H4.2a.29.29,0,0,1-.2,0h.2s-.1,0-.2,0H4c-.29,0,0,0,0,0H3.76c-.1,0,0,0,0,0h-.1c-.1,0,.15,0,0,0h0s.15,0,.34,0l-.39,0h.2c-.15,0,0,0-.2,0h.15c-.24,0,0,0,0,0h-.2c.24,0,0,0,0,0h.1s0,0,0,0-.1,0-.15,0h0c.2,0,.15,0,.2,0H3.37s.15,0,0,0c.15,0,.34,0,.44,0H3.56a.21.21,0,0,1-.15,0h.15a.24.24,0,0,0-.15,0h0s0,0,.2,0h0c.15,0-.1,0,0,.1h0s0,0,.15,0H3.61s.1,0,0,0h0s-.1,0,0,0c-.15,0-.15,0-.1,0h.1v0H3.42c-.2,0,.34,0,0,.1.1,0,.1,0,.2,0l-.24,0c-.1,0,.24,0,.2,0h.24l-.29,0h0s0,0-.15,0h.15c-.1,0,0,0,0,0h.1s.1,0,.15,0-.2,0-.15,0h-.2c.1,0,0,0-.1,0h.34s0,0-.1,0c0,0-.15,0-.2,0h0c-.15,0,.2,0,.2,0h0s0,0,0,0h0c.15,0-.15,0,0,0h-.2c.1,0-.1,0,0,0h.2l-.1,0h.15s-.1,0,0,0h.15c-.2,0,.1,0,0,0H3.42c-.15,0,.15,0,.1.1h0c.1,0,0,0,0,0h-.2s0,0,.2,0H3.46s.29,0,.24,0h-.2s.15,0,0,0h.29c-.29,0,0,0-.24.1,0,0,0,0,.1,0h0c-.1,0,.29,0,.2,0H3.71c-.29,0,0,0-.15,0h0c-.1,0,.1,0,.1,0h0a1,1,0,0,1,.24,0h0a2.11,2.11,0,0,1-.24,0h0c-.2,0,0,0,0,0h-.1s.2,0,.2,0h0c.2,0-.1,0,0,0h-.2l.24,0a.53.53,0,0,1-.29,0s0,0,.1,0h0c.15,0,.24,0,.24,0-.39,0-.1,0-.39.1.15,0,0,.1,0,.1.29,0,0,0,.29,0h0l-.2,0H3.42s-.15,0-.2,0h.1l.15,0c.15,0-.24,0-.1,0h-.1s0,0,.24,0H3.37s.24,0,.1.1h-.1c-.1,0,.2,0,.24.1a.71.71,0,0,0-.29,0h0s.2,0,.29.1c-.24,0-.1.1-.24.15h.2s.15,0,0,0h0c-.39,0-.34.1-.34.1h.24c-.39,0,.15.1-.2.15h0s0,0,0,.1h.1s-.2.1,0,.1h-.1s-.15,0,.15,0c-.2,0,0,0,0,0h0s.15,0,0,0h0s0,0-.15,0h0c-.1,0,.15,0,0,0h-.1v0c-.15,0-.15,0-.34,0,.1,0,.29,0,.24,0h-.1c-.1,0,0,0,0,0h.54c-.2,0-.29,0-.39,0,.1,0,0,0,.29,0H3.42s0,0,.2,0c-.1,0-.15,0-.15,0h0c-.29,0,.49,0,.1.15h0a0,0,0,0,0,0,0h0v.1h.1v0c-.1,0-.24,0-.1,0h.1s0,0,0,0h.1s-.29,0-.34,0h.49a2.58,2.58,0,0,0,.63,0h0l0,0h0a.15.15,0,0,1,0,.2c.1.1,0-.1.15,0v0l.1,0s0,.15,0,.1c.15.1.24-.15.29,0h0c.2-.1,0-.15.15-.34l.1.34V6.59s0,0,0,.1c0-.1,0,0,0-.15.1.15.24,0,.29.15,0-.1-.1-.1,0-.15,0,.24.1,0,.2,0s-.1,0,0,.2c0-.24.2,0,.24,0s0-.1,0-.1,0,.1,0,.1v.1s0-.15,0-.2.15,0,.24,0,.24.1.34.15v0c0-.2.15-.15.24-.2s0,.15,0,.2h.1a.1.1,0,0,1,.1-.1v.15c.1,0,.2-.15.34-.1,0-.15-.15-.34,0-.44v.2l0,0,0,.1s0-.1.1-.1,0,0,0,.15,0,0,0,0a.16.16,0,0,1,.15.15s0-.15,0-.15,0,.1.1.15.1,0,.1-.15,0,0,0,.1.24,0,.2-.2h0c.2-.15.39,0,.59,0v0c.1,0,.24,0,.34-.15a.09.09,0,0,1,0,.15c.1,0,.1-.1.2,0-.1.1,0,.1-.1,0,.1,0,.15.1.24,0,0,.15.1.15.15.1l0,0h.15v.15c.24.2.39-.34.59,0,0-.1-.15-.1-.1-.2s.24.24.24.24.1-.24.29-.2c0,0,0-.2,0-.29s.15.24.1.29,0,0,0,0-.1,0,0,.1v0s.2,0,.15.15,0-.1,0-.15c.15.1.2,0,.34,0s0-.1,0-.1.1-.1.2-.15,0,.2.1.15,0,.15,0,.2.24,0,.29.1l0,0s0,0,.1,0l0-.1s0,0,0,0,0-.2,0-.29.15,0,.2.1c-.15,0,0,.15-.1.2H12V7c.15.15,0-.2.24-.2a.21.21,0,0,0,0,.15s0-.15,0-.2.1,0,.15,0h0c0-.1,0-.1.15-.1s0,0,0,.1c0-.15.2.15.29,0s0,.15,0,.2.15.1.24,0,0-.1,0-.2l-.2.1.15-.2s-.15.1-.2,0,0,0,0-.15c.1.15.15-.1.29,0v.29c.15.1.24-.15.49-.1l0,0c0-.1.1,0,.2,0s0,.15,0,.2.15,0,.15-.2l.1.15c.15,0,.15-.29.34-.24,0,.1,0,.2,0,.24s.1,0,.1,0,.15-.15.2,0,0-.15.1-.15v0s.1,0,0-.2c.2.29.44,0,.59.2a.9.9,0,0,1,.34-.1v0c.15.1,0-.29.24-.2s-.1.1,0,.15c0,.29.2,0,.29.15h0s0,0,.1,0,0,.1,0,.15c-.15,0-.15.24-.29.15a.31.31,0,0,1,0,.29c-.15-.24-.2.24-.39,0,.15.2-.15.39-.1.59,0,0,0,0,0,0s-.15,0-.24.1c.15.1.1.29.15.39-.24,0-.15-.2-.29-.24.15.1,0,.29.15.29-.15,0-.1,0-.24,0,.2.15,0,.1,0,.24-.2,0-.2-.1-.24.1-.1,0-.1-.15-.1-.15s.1.15.2.24-.15,0-.29,0,0,.29,0,.34,0,0,0,0c0,.2-.2.29-.15.54h0c.1,0,.15.1.24.1s0,.2-.1.15,0,0,0-.1v.1c-.2,0,0-.1-.1-.2,0,.15,0,.39-.1.44s.1-.24-.1-.2l.15-.1c-.29,0,.1-.1-.24-.15-.15.15,0,.24-.24.44,0,.1.15,0,.2.15,0,.34-.49,0-.44.29,0,.1.24.24,0,.34l-.15-.15c-.15.2.15.24-.1.39,0-.1,0-.2,0-.15s0,.15,0,.24l-.15,0c-.1.2-.15.49-.24.73,0,0,0-.1-.15-.1a1.52,1.52,0,0,1-.68.78l0,.2s-.1,0-.1,0,0,0,.1.15-.1,0-.15,0c0,.24-.15.68-.39.78v0c-.15.1.15.34,0,.39v0c-.24.29-.39.73-.73.83.15.15-.29.29,0,.44a1.15,1.15,0,0,0-.49.24s.1.2,0,.29l-.15-.1,0,.2-.2,0v.1a.09.09,0,0,1,.15,0c0,.15-.29.24-.34.2l-.1.39a.18.18,0,0,1,0-.15c0,.24-.15,0-.15.15,0,0,0,0,.1.1-.15,0-.24.2-.29.34v-.1c-.15.2-.24.49-.44.73.1,0,.24,0,.2.15l-.15,0c0,.1.1,0,.15.1s-.2,0-.2-.1l0,.1s0,0-.1-.1-.24.1-.15.24h0a6.22,6.22,0,0,1-.34.59c.1.1,0,.15.1.24a3.55,3.55,0,0,0-.44.39c0,.15,0,.1.1.2s-.2.15-.24,0a1.91,1.91,0,0,0-.24.63h.15a.09.09,0,0,1-.15,0h0c0,.39-.78.49-.73.88h0l0,.34c-.1.1,0-.1-.15-.1,0,.39-.29.39-.34.73-.44,0-.39.63-.73.73l.1,0c0,.1-.1,0-.15.1s.1,0,.15,0A5.74,5.74,0,0,1,4.49,24.2c-.15.2.29.34,0,.49l-.1-.15c-.1.49-.54.78-.63,1.27,0,0,0,0,0-.1s-.2.29-.1.34-.1,0-.15,0,0,.29-.15.24v0c0,.1-.2.24,0,.24-.15.1-.15.29-.29.39.1.15-.24.2,0,.34-.2-.15-.29.15-.29.29,0,0-.1,0-.15,0,0,.1-.1.24,0,.24-.34,0-.1.49-.44.39-.1.39-.24.68-.34,1-.2-.15.2-.29,0-.44,0,.15,0,.29-.1.44a.82.82,0,0,1-.1.24,1,1,0,0,1-.2.29c-.1.1,0-.1-.1-.15a2.77,2.77,0,0,1-.39.63,2,2,0,0,0-.29.54s0,0,0,0-.15.2,0,.1v0c.15-.1.24-.1.29,0s.1,0,.2,0c-.44.15-.34.39-.88.59,0,0,0,0,.2,0l0,0a1.44,1.44,0,0,1-.2.15H0c.44-.1.49-.2.73-.2a1.62,1.62,0,0,1-.29.15c.29-.1.59-.24.73-.2a.38.38,0,0,1-.15.1A3,3,0,0,0,1.66,31a2.08,2.08,0,0,1,.54-.1c-.2.24.1,0,.1.24l.24,0-.1-.1c.24,0,.29-.15.44-.1l-.1.1.24,0-.15,0c.15-.1,0-.24.15-.2,0,0,.15,0,.2.1h0s.15-.15.24-.1,0,.2,0,.24c0-.15.29,0,.39-.24,0,0,0,.15,0,.15l0-.15s.1,0,0,.15c.2,0,0-.24.15-.15a0,0,0,0,1,0,0c.24,0,.44-.1.63,0s-.2,0-.1.2a5.9,5.9,0,0,1,.88-.24h0c0-.24.2.1.34,0,0,0,0,.15,0,.1.2,0,.39-.1.68-.2l0,0c.1,0,.29,0,.44,0s.1,0,0-.15c.39.34.73-.24,1.07.1,0,0-.1,0,0,0l.29,0c0-.1,0,0-.1-.15a.67.67,0,0,1,.2-.15c-.15.1,0,.2,0,.24v-.1c.15.2,0-.24.24-.1v0c.1,0,.15-.1.24-.1s-.1,0-.1.15.24-.24.34-.15-.1,0-.15.1.15.1.2.15h0l.2,0,0,0c.15-.34.29,0,.49-.29-.2.2,0,.15,0,.29s.15.1.1.15.15.1.29-.1c0,0,.1,0,.1.15.1,0,0-.1,0-.15s.34,0,.54,0h0c-.15,0,0,.1-.2,0a.37.37,0,0,1,.2.1c-.24,0,0,.1-.29,0,.24,0,.1.1.24.2h0s-.1,0-.15,0a.57.57,0,0,1,.34.1c-.2,0-.24,0-.39,0,.15,0,.15,0,.29,0-.1,0,0,0-.2,0,.24,0,0,0,.2,0-.1,0-.24,0-.15,0a.21.21,0,0,1-.15,0s.2,0,.29,0-.15,0-.24,0,.2,0,.2.1h-.1c.15,0,0,.1.2.15H11s.1,0,0,0h0c-.15,0,0,0-.2,0,0,0,.2.1.15.15s0-.1-.2,0l0,0c-.24,0,0,0-.24,0,0,0,.1.1,0,.15h.24c.15.1-.44,0-.2.15s.34,0,.2.1h-.2s.24,0,.15.1,0,0-.1,0,.1,0,.1,0h-.15s.15.15.15.24h-.15c.1.1,0,.2-.15.29l.15,0h-.1s.1,0,.15,0-.1,0-.15,0,.24.2.1.24h0s.29,0,.15.1h0c0,.1,0,.24-.15.34.2,0-.1.1.2.15a.56.56,0,0,0-.29.15l.2,0h-.15l.15,0h-.2l0,0h.1s-.1.1-.2.1l.15.1s-.1,0-.1,0-.15,0,0,0h.1c-.1,0-.1.1,0,.15h-.1c0,.1,0,.15,0,.24s.24,0,.24,0h-.15c.1,0,0,0,.2,0s-.2,0-.24,0l0,0h-.15c.1,0-.15,0,0,.1h0c0,.1,0,.15,0,.2s.1,0,.2,0-.15.1-.15.2.1,0,.2,0c-.15,0-.1,0-.2,0s0,.1.15.2h.1a.17.17,0,0,1-.1,0h0c.2.1-.39.24-.1.34h0l.15.1s-.1,0-.2,0c.2.1,0,.15.1.24-.39,0,0,.2-.2.29h.1c.1,0,0,0,0,0h.15c.1.2-.15.39-.2.54s.44,0,.24.1h-.15c.2.15,0,.29.15.39h-.1c-.1,0,0,.1.1.1h-.15s.15,0,0,.1h0s0,.1.1,0,0,.1,0,.15c.15,0,0,.1.15.1-.24,0-.2.1,0,.1,0,0,0,0-.15,0s0,0,.15,0c-.24,0,.2.15-.15.2a1.29,1.29,0,0,1,.24.29c-.24,0,0-.1-.24-.1.1.1.29.15.24.24h-.15c.1.1,0,.2.1.24h0s0,0,0,0h0c.15,0,.29,0,.39,0-.29,0,0,.1-.44,0h0s.15,0,.15.1h-.15c.1,0,.2,0,.15.1h0c0,.1.24.1.15.2s0,0-.24,0l0,0h.1s.15,0,.1.1l-.1,0,0,0,0,0c.1,0,.24,0,.2,0s0,0-.1,0h0a.17.17,0,0,1,.1,0h-.24c.15,0,0,.1.2.1h-.15s.24,0,.15,0h0s.1.1,0,.2,0,0-.2,0c0,.1.24.15.2.24h0c.24,0-.15,0,0,.1h-.1s0,.1.15.2h0a.18.18,0,0,0,0,.15s0,0,.15,0c-.39.15.2.2-.1.29,0,0,0,0,0,0l0,.1c.1,0,0,0,.15,0a.17.17,0,0,1,.1,0,.21.21,0,0,0-.24,0H11c-.2,0,.24,0,.1,0h0a.17.17,0,0,1,.1,0H11s.24,0,.1.1,0,0-.1,0h0a0,0,0,0,0,0,0v0s0,0,0,0,0,0-.1,0h0l0,0h0c.29,0,.15,0,.24.1h-.24v-.1s0,.2,0,.1a.29.29,0,0,1,0-.2s-.1.15-.15.2,0-.15,0-.2-.15.1-.15.2l0,0v-.15c0-.1,0,0,0,.1l0,0c0,.2.1,0,.15,0s0,0,0,0h0v0l0-.1h0v0s-.1.1,0,.15a.17.17,0,0,0,.1,0h0s0,0,0,0,.15,0,.2,0a.24.24,0,0,1-.2,0s0,0,0,.1H11s.2,0,.1,0h-.2s.15,0,.2.1h-.2a.25.25,0,0,0,.2.1l0,0H11c-.1,0,0,0,.1,0h0c.29,0,0-.1,0-.15h.2l-.2,0s.15,0,.2,0-.1,0,0,0h0v0c.1.15,0,0,0-.1h0c.1,0-.15-.1,0-.1h0s0,0-.1,0v0h0s.1,0,.15.15c0-.1,0-.1,0-.15,0,.24,0,0,.1.1s0,0,0,.2c0-.24.1,0,.15,0s0-.1,0-.1,0,.1,0,.1v-.1s.1,0,.15,0,.15.1.2.15v0c0-.2.1-.15.15-.2s0,.15,0,.2h0a.17.17,0,0,1,0-.1v.15s.15-.15.2,0c0-.15,0-.34,0-.44v.2l0,0,0,.1s0-.1,0-.1v.15s0,0,0,0,0,.1.1.15v-.15s0,.1,0,.15,0,0,0-.15a.15.15,0,0,0,0,.1s.15,0,.1-.15h0c.1-.15.2.1.34,0v0s.15,0,.2-.15a.49.49,0,0,1,0,.15s0-.1.1,0,0,.1,0,0,.1.1.15,0c0,.15,0,.15.1.1l0-.1h.1v.15c.15.2.24-.34.34,0,0-.1,0-.1,0-.2s.1.24.15.24.1-.24.15-.2,0-.2,0-.24,0,.24,0,.29v0a.07.07,0,0,0,0,.1v0s.1,0,.1.15,0-.1,0-.15.1,0,.2,0v-.1c.1,0,0-.1.15-.15s0,.2,0,.15,0,.15,0,.2.15.1.2.1l0,0a0,0,0,0,1,0,0v-.1a0,0,0,0,1,0,0,.62.62,0,0,1,0-.29s.1,0,.1.1c-.1,0,0,.15,0,.2h0v0c.1.15,0-.2.15-.15s0,.15,0,.15,0-.15,0-.2c-.24.29-.24.15-.24.15h0c0-.1,0-.1.1-.1s0,0,0,.1c0-.15.1.15.15,0s0,.15,0,.2.1.1.15,0,0-.1,0-.2l-.2,0,.1-.15a.17.17,0,0,0-.1,0c0-.1,0,0,0-.15,0,.2.1-.1.15,0v.29c.1.15.15-.15.24,0l0,0c0-.1,0,0,.1,0s0,.15,0,.2.1,0,.1-.2l0,.15c.1,0,.1-.29.2-.24s0,.2,0,.24,0,0,0,0,.1-.15.1,0,0-.15,0-.15v0s0,0,0-.2c.1.29.24,0,.34.24a.29.29,0,0,1,.2,0v0c.1.1,0-.29.15-.2s0,.1,0,.15c0,.29.1,0,.15.15h0c0,.1.1-.1.2-.1v0a.4.4,0,0,1,.24-.24c0,.15,0,0,0,.2s0-.2,0-.24a2.11,2.11,0,0,1,0,.24h0c0,.2.1,0,.1,0v.1c.1,0,.1-.2.2-.2v0c0-.2,0,.1.1,0v.2s.15-.2.2-.24a1.62,1.62,0,0,1-.15.29s.15,0,.15-.1l0,0c0-.15.1-.24.2-.24,0,.39.2.1.24.39.15-.15.24,0,.39,0,0-.29,0,0,0-.29h0l.1.2c0,.1,0,0,0,.15s0,.15.1.2,0-.15,0-.1l0-.15c.1-.15.1.24.2.1h0s.2,0,.24-.24v.15c.15,0,.29-.24.39-.1v0s0-.15.1,0v.1s0-.15.1-.1l0,.1c.15.1.2-.2.29-.24a.45.45,0,0,0,.15.34v0c.15,0,.24-.2.39-.24.1.24.29.1.44.24a.29.29,0,0,1,0-.2s.1-.15.1,0h0c0,.2.1.15.15.15v-.24c.15.39.34-.15.44.2,0,0,.1,0,.1-.15v.15a.22.22,0,0,0,.24,0v.1s.1-.39.15-.39v.2c.1,0,.24.2.34,0,0,0,0,.1,0,.1s.2.15.2-.15c0,.2.1,0,.2,0v.15c0-.2,0-.24.15-.24v.1s0-.15.1,0l0,.1s0,0,.1-.15.1,0,.1.15c0-.1,0-.2.1-.15v.1c.1.1.15-.15.2,0v.1H24.2c0,.15,0,.15,0,.34,0-.1.15-.29.2-.24v0h0l0,0c0,.1,0,0,.1,0s0-.1,0-.24h-.15s0-.15.1,0a2.11,2.11,0,0,1,0-.24,1.65,1.65,0,0,0,.15.39c.1-.1.24,0,.29-.29,0,0,0,.1,0,.1s0,0,0,0,.15,0,.2-.2c0,.1,0,.15,0,.15v0c.2.29.29-.44.49-.1v0c.24.15.49-.15.68.1,0,0,0,0,.1-.15v.15l0-.15c.1-.15.15.34.29.15v-.1s.15,0,.15,0,0-.1,0,0v.1l.1-.15c.1,0,0,.29.1.34s.15-.24.1-.29a.21.21,0,0,1,0-.15l0,0C27.33,41.72,27.38,41.48,27.28,41.33ZM11.61,32.4s0,0,0,0h0ZM14,12.05l0,0a0,0,0,0,1,0,0v-.1ZM28.65,6h0V6s0,0,0,0S28.6,6,28.65,6ZM31.82.44s0,0-.1-.1h.1C31.87.44,31.87.49,31.82.44Zm.2-.1Zm.29.93h0v0s0,0,0,0Zm.88,3.32h0a0,0,0,0,0,0,0C33.23,4.54,33.23,4.59,33.18,4.59Zm-4.83.49h0Zm-.15,0v.1s0,0-.1-.1Zm-24,.73Zm0,0ZM3.27,6s0,0,0,0h0Zm.29.49v-.1S3.66,6.39,3.56,6.44Zm.83,0Zm0-.15Zm0,0Zm0,0Zm0,0Zm.1.34h0Zm0,0Zm0,0h0Zm-.15,0h0Zm.2,0h-.1c.1,0,0,0,.1,0Zm-.1-.1h.1S4.39,6.49,4.34,6.49Zm.15,0Zm12.1,0Zm-.15,0Zm-3.32,5.27a0,0,0,0,1,0,0h0A0,0,0,0,1,13.13,11.81ZM13,12s.1,0,0,.1-.1,0-.15,0S13,12.05,13,12ZM10.69,32.45Zm0,.15h0a.15.15,0,0,1,.1,0S10.74,32.55,10.69,32.6Zm.88-2.15Zm-.29-.2a.09.09,0,0,1,0,.15h0l0,0H11A.29.29,0,0,0,11.27,30.26Zm-.1,11.52Zm.1,0Zm.1-.34Zm-.59.15Zm0,0Zm0,.1Zm.44.2Zm0,.15,0,0a0,0,0,0,0,0,0Zm-.1-.15h0Zm13.13-.29s0,0,0-.1h0Zm0-.1Zm.15.93h0v0s0,0,0,0Z"/><path d="M24.55,42.26Z"/><path d="M12.83,42Z"/><path d="M22.45,41.24Z"/><path d="M11.57,41.38v0h0Z"/><path d="M15.32,41.24Z"/><path d="M14.2,41.58s0,0,0,0S14.2,41.48,14.2,41.58Z"/><path d="M16.59,41.09Z"/><path d="M14.3,41.53s0,0,0,0Z"/><path d="M10.54,41.33Z"/><path d="M10.49,41.38Z"/><path d="M11.61,42.16s0,0,0-.1A.07.07,0,0,0,11.61,42.16Z"/><path d="M13.37,42.21s0,0,0-.15Z"/><polygon points="13.71 41.43 13.71 41.38 13.66 41.48 13.71 41.43"/><polygon points="13.91 42.36 13.96 42.31 13.91 42.31 13.91 42.36"/><path d="M16.93,42.31v-.15S16.88,42.36,16.93,42.31Z"/><path d="M18.2,42.16c0,.1,0,.15,0,0A0,0,0,0,0,18.2,42.16Z"/><polygon points="22.06 42.5 22.11 42.45 22.11 42.45 22.06 42.5"/><path d="M10.74,6.73Z"/><path d="M11.22,6.88Z"/><path d="M8.1,6.73l0,0S8.15,6.73,8.1,6.73Z"/><path d="M6.93,6.93h0a0,0,0,0,0,0,0Z"/><path d="M12.05,7Z"/><path d="M19.62,6.54c-.1-.1.15-.15,0-.29C19.62,6.3,19.52,6.49,19.62,6.54Z"/><path d="M14.69,6.64s0,0,0,0Z"/><polygon points="15.42 6.59 15.42 6.59 15.37 6.59 15.42 6.59"/><path d="M30.16,4.73a.17.17,0,0,0,0,.1S30.3,4.73,30.16,4.73Z"/><path d="M15.13,5.51a.17.17,0,0,0,0,.1v0Z"/><path d="M27.28,5.9Z"/><path d="M28.69,5.86Z"/><path d="M8.1,6.73Z"/><polygon points="24.94 5.03 24.94 5.08 24.98 5.08 24.94 5.03"/><path d="M5.86,6.25v0h0Z"/><path d="M12.44,5.81h0S12.49,5.81,12.44,5.81Z"/><path d="M10.49,6.2a0,0,0,0,1,0,0A0,0,0,0,0,10.49,6.2Z"/><path d="M14.64,5.56Z"/><path d="M10.64,6.15s0,0-.1,0Z"/><path d="M4.59,6.2c0-.1.15.1.15,0a.11.11,0,0,0-.15,0Z"/><path d="M5.32,6.93c.2.15,0-.1.15-.1l-.15,0C5.37,6.88,5.42,6.93,5.32,6.93Z"/><path d="M5.9,6.88c-.1,0,0,.1,0,.1S6,6.93,5.9,6.88Z"/><path d="M9.08,6.93s0,0,0-.15Z"/><polygon points="9.56 6.15 9.66 6.1 9.56 6.05 9.56 6.15"/><polygon points="10.05 6.98 10 7.03 10.1 6.98 10.05 6.98"/><path d="M15.27,6.59s0,.2,0,.15Z"/><polygon points="24.45 6.34 24.4 6.29 24.35 6.39 24.45 6.34"/><path d="M3.42,1.56V1.42l-.1,0S3.37,1.56,3.42,1.56Z"/><path d="M3.76,1.61v.1a.52.52,0,0,0,0-.39,2,2,0,0,0-.1.29.1.1,0,0,1-.1-.1s-.1,0-.1.1S3.66,1.71,3.76,1.61Z"/><path d="M11.71,1.56s0,0,0,0Z"/><path d="M12.25,1.71Z"/><path d="M8.64,1.66l.1,0S8.69,1.66,8.64,1.66Z"/><path d="M4.39,1.27h0s0,0,0,0Z"/><path d="M7.32,1.85h0a0,0,0,0,0,0,0Z"/><path d="M13.18,1.85Z"/><path d="M21.91,1.42c-.1-.1.15-.15,0-.29C21.91,1.17,21.76,1.37,21.91,1.42Z"/><path d="M16.2,1.42s0,0,0,0h0S16.25,1.46,16.2,1.42Z"/><polygon points="17.08 1.42 17.08 1.37 17.03 1.37 17.08 1.42"/><path d="M34.06,1.32s-.1,0-.15.1S34.06,1.56,34.06,1.32Z"/><path d="M4.39,1.32h0s0,0,0,0Z"/><path d="M16.74.34l.1.1v0Z"/><path d="M30.74,1.07Z"/><path d="M32.35,1.12Z"/><path d="M8.64,1.61Z"/><polygon points="28.11 0.1 28.11 0.15 28.11 0.15 28.11 0.1"/><path d="M6.05,1.22v0h0Z"/><path d="M13.66.63h0S13.66.59,13.66.63Z"/><path d="M11.42,1.07a0,0,0,0,1,0,0S11.42,1,11.42,1.07Z"/><path d="M16.2.34Z"/><path d="M11.57,1a.07.07,0,0,0-.1,0S11.57,1,11.57,1Z"/><path d="M4,1.32Z"/><path d="M3.86,1.37l0,0A0,0,0,0,0,3.86,1.37Z"/><path d="M4.78,1.27s-.15-.1-.2,0v0C4.64,1.17,4.73,1.37,4.78,1.27Z"/><path d="M5.61,1.85l-.15,0s.1.1,0,.15C5.71,2.1,5.42,1.85,5.61,1.85Z"/><path d="M6.15,1.9c-.1,0,0,.1,0,.1S6.2,2,6.15,1.9Z"/><path d="M9.76,1.66v.15S9.76,1.76,9.76,1.66Z"/><polygon points="10.35 0.93 10.3 1.02 10.39 0.98 10.35 0.93"/><polygon points="10.83 1.85 10.93 1.81 10.88 1.85 10.83 1.85"/><path d="M16.88,1.37s0,.2,0,.15Z"/><path d="M19.71,1.32s-.1,0-.15,0S19.67,1.42,19.71,1.32Z"/><polygon points="27.43 1.37 27.38 1.42 27.47 1.37 27.43 1.37"/><path d="M3.81,1.71h0Z"/><path d="M3.71,1.76h.1s0,0-.1,0Z"/><path d="M3.17,3Z"/><path d="M3.37,2.49h0Z"/><path d="M4.05,1.85Z"/><path d="M3.27,2.29Z"/><path d="M3.86,6.73Z"/><path d="M3,3.17Z"/><path d="M3.17,4.44h.29S3.27,4.39,3.17,4.44Z"/><path d="M3.32,3.61Z"/><path d="M3.32,3.71Z"/><path d="M4.44,6.15h0Z"/><path d="M4,1.85Z"/><path d="M4.39,3.61h0Z"/><path d="M3.46,5.71Z"/><path d="M3.46,6Z"/><path d="M3.46,2.49Z"/><path d="M4.44,5.27h0Z"/><path d="M4,2.1H4Z"/><path d="M4.2,3.17Z"/><path d="M3.86,2.88h0Z"/><polygon points="4.39 3.51 4.39 3.51 4.39 3.56 4.39 3.51"/><path d="M4,2.88Z"/><path d="M4.05,1.81h0s0,0,0,0Z"/><path d="M4,1.76Z"/><path d="M4,1.9s.1,0,.1,0L4,1.9C4.1,1.85,3.9,1.9,4,1.9Z"/><path d="M3.37,2h-.1C3.12,2.1,3.42,2,3.37,2Z"/><path d="M3.32,2.15h0Z"/><path d="M3.37,2.64H3.22S3.27,2.68,3.37,2.64Z"/><polygon points="4 2.73 4.05 2.68 3.95 2.73 4 2.73"/><path d="M3.12,2.83h0Z"/><path d="M3.22,3.71h0Z"/><path d="M3.37,4.1h0Z"/><polygon points="3.22 5.22 3.17 5.22 3.17 5.22 3.22 5.22"/></g></g></svg>