<svg xmlns="http://www.w3.org/2000/svg" viewBox="0 0 43.91 45.77"><title>icon-new</title><g id="Capa_2" data-name="Capa 2"><g id="main"><path d="M26.57,18.54c.3.6.9.4,1.4.5.2,0,.4.1.8.1s.5-.1.8-.1c1.2,0,2.5-.1,3.7-.1s2.3-.1,3.5-.1c.9,0,1.9.1,2.8.1a5.28,5.28,0,0,1,1.3.1.1.1,0,0,0,.1.1h.1c.1,0,.2.2.2.2h.4c.1,0,.2.2.2.2h.2c.1.1.3.4.5.4s.9,1.1,1.1,1.3a.76.76,0,0,1,.2.5v.2a3.85,3.85,0,0,1-.2,1.8,5.3,5.3,0,0,1-1,1.2l-.2.2h-.2c-.1.1-.1.1-.2.1s-.3.2-.7.2c-.1,0-.5-.1-.6,0-.2.3-1.5,0-2.3,0-1.1,0-2.3.1-3.6.1-.9,0-1.9.1-2.8.1a5.24,5.24,0,0,0-1.8.2.1.1,0,0,1-.1.1c-.1,0-.1.1-.2.1h-.4a.1.1,0,0,0-.1.1c-.6.1-1.2,0-1.8.1l-.1.1c-.3.1-1,.1-1.3.4-.2,1.3-.1,2.6-.2,4,0,.3-.1.6-.1,1v1a11,11,0,0,0-.2,1.8c0,.6.2,1.3.2,2,.1,1.6-.1,3.1.1,4.4,0,.1.1.2.1.4v.2a5.57,5.57,0,0,1,.1,1.9.1.1,0,0,0-.1.1,1.42,1.42,0,0,1-.2.6,7,7,0,0,1-1.4,1.6,6.6,6.6,0,0,1-1.4-.1c-.5,0-.9.2-1.3.1s-.8-.5-1.2-.7-1-.2-1.3-.5c0-.2-.2-.3-.4-.5s0-.3-.1-.4l-.2-.1c-.2-.4-.2-1-.4-1.6a7.31,7.31,0,0,1-.4-3.1c0-.1.1-.2.1-.4,0-.6-.1-1.1-.1-1.9a17.7,17.7,0,0,0,.1-2.3,5.26,5.26,0,0,0-.4-1.7,19.8,19.8,0,0,0,.4-6,3.26,3.26,0,0,0-1.4-.4c-1.7-.1-3.4.3-5.3.1-.7-.1-1.4-.3-2.2-.4-1.1-.1-2.7.3-3.5-.2-.2-.1-.8-.2-1.2-.4s-.6-.1-.8-.2-.8-.2-1.2-.4c-.1,0,0-.1-.1-.1a.2.2,0,0,1-.2-.2h-.2c0-.1-.2-.5-.5-.5a.2.2,0,0,1-.2-.2H1l-.4-.4c-.1-.1,0-.3-.1-.5s-.2-.1-.2-.1v-.2A1.79,1.79,0,0,1,.07,21a.1.1,0,0,1,.1-.1c.1-.3.1-.7.2-1,0-.1.2-.1.2-.1v-.2l.2-.1v-.2c.1-.1.3-.1.4-.2s.1-.3.2-.4.3,0,.4,0a.1.1,0,0,1,.1-.1,8.66,8.66,0,0,1,1-.2.1.1,0,0,0,.1-.1,3.33,3.33,0,0,1,1,0c.1,0,.2-.1.4-.1a10.28,10.28,0,0,1,1.7.1h.6c.2,0,.3.1.5.1.5,0,.9-.1,1.4-.1H10c.7,0,1.3.2,1.9.2a9.63,9.63,0,0,1,1.7,0c.1,0,.2.1.4.1h2.2a6,6,0,0,0,1.9,0c.4-.2.4-.8.5-1.3.2-1,.1-2.1.2-3.2a6.75,6.75,0,0,0,.2-1.4c.2-2.8-.1-5.8.2-8.4a4.48,4.48,0,0,0,.1-1.1l.1-.1c.1-.2,0-.3.1-.5s.2-.2.2-.2,0-.2.1-.4.2-.2.2-.2,0-.2.1-.4l.2-.2c.1-.2.2-.5.4-.6h.2V.54h.2a2.3,2.3,0,0,1,1.1-.4c.2-.1.2,0,.4-.1a4.57,4.57,0,0,1,1.6.1.1.1,0,0,0,.1.1c.2,0,.3.2.5.2s.5.3.7.5.2.3.4.4h.2c.1.1.1.3.4.4a.22.22,0,0,1,.2.2c.2.2.2.6.4,1v.2c.1.1.1.3.2.7a1.42,1.42,0,0,1,.2.6c.1,1-.1,2.5-.1,3.5V9c-.1.6-.3,1.3-.4,1.9-.1.9.1,1.7,0,2.5s-.3,1.7-.4,2.5a6.15,6.15,0,0,0-.1,1.3c0,.2-.1.3-.1.6C26.47,18.34,26.57,18.34,26.57,18.54Z"/></g></g></svg>