<svg xmlns="http://www.w3.org/2000/svg" viewBox="0 0 74 68.8"><title>icon-settings</title><g id="Capa_2" data-name="Capa 2"><g id="main"><path d="M19.7,5.6c-.5.1-.8-.2-1.2-.4l-.2-.1a.35.35,0,0,1-.2.1c-.1,0-.3-.1-.4-.1h-.2L17.4,5c-.1,0-.3.1-.4-.1a.49.49,0,0,1-.3-.1h-.5a5.34,5.34,0,0,0-2,.5,3.81,3.81,0,0,1-1,.3c-.2,0-.3-.1-.5-.1a.37.37,0,0,0-.3.1,4.67,4.67,0,0,0-1,.5c-.3.1-.5.2-.8.3A14.15,14.15,0,0,0,7.5,8.5C7,9,6.6,9.5,6.1,10c-.1.1-.1.1-.1.2s-.1.2-.2.3v.1c-.1.1-.1.2-.2.4l-.1.2a.37.37,0,0,1-.1.3l-.1.1c0,.2,0,.2-.2.4a.37.37,0,0,1-.1.3l-.1.1a1.42,1.42,0,0,1-.2.6s.1,0,0,.1,0,.1,0,.2l-.1.1a.1.1,0,0,1,.1.1c0,.1-.1.2-.1.3v.5a.35.35,0,0,0-.1.2c0,.1.1.2.1.3a.6.6,0,0,0,.1.4.31.31,0,0,0,.1.2.35.35,0,0,0-.1.2c0,.1.1.2.1.3v.5c0,.2.1.5.1.8,0,.1-.1.2-.1.3l.1.1a3.71,3.71,0,0,0,.2.9s-.1,0,0,.1.2.4.2.5l.1.1a.1.1,0,0,0-.1.1l.1.1a.1.1,0,0,0-.1.1l.1.1a.1.1,0,0,0-.1.1c.1.2.2.3.3.5,0,0-.1,0,0,.1a8.79,8.79,0,0,1,.6,1c.1.1.2.2.2.3.2.4.5,1.1.8,1.6a8.65,8.65,0,0,0,.7,1c.1.2.4.6.6,1a9.25,9.25,0,0,0,.5,1,8.79,8.79,0,0,1,.6,1c.2.3.3.5.5.8a6,6,0,0,0,.8.8.31.31,0,0,0,.1.2,7.3,7.3,0,0,0,.9,1c.2.3.6.7.9,1.1s.9,1,1.3,1.5.8,1,1.2,1.6c.3.4.6.7.9,1.1.1.1.2.3.3.4.3.3.7.6,1,.9.1.1.2.3.4.5L21.5,41c.1.1.3.2.4.4a14,14,0,0,0,1.7,2,1.76,1.76,0,0,0,.4.5c.1.2.3.3.5.5s.2.1.3.2v.1c.2.3.8.7,1.1,1.1.1.1.1.2.2.3s.1,0,.2.1.3.3.5.5.1,0,.2.1a.31.31,0,0,0,.1.2c.6.6,1.3,1.2,1.9,1.8s1.2,1.2,1.9,1.8,1.2.9,1.8,1.4a5.73,5.73,0,0,1,1.1,1.1l.1.1c0,.1,0,.2.2.3s.1,0,.2.1a7.26,7.26,0,0,1,.5,1.2c.2.3.4.4.5.6a.37.37,0,0,0,.1.3,1.08,1.08,0,0,1-.2.9c-.1.2-.3.4-.4.6s-.3.4-.5.5c0,0-.1-.1-.1,0-.2.2-.6,0-.9.1-.4-.3-.9-.6-1.3-.9a10.92,10.92,0,0,1-1.7-1.3,9,9,0,0,0-1-.9c-.4-.3-.9-.6-1.3-.9s-1-1-1.6-1.6-1-.9-1.5-1.4c-.2-.2-.2-.4-.5-.6l-.1-.1c-.2,0-.6-.5-.8-.7-.5-.5-.9-1-1.4-1.5s-1.1-1-1.6-1.6a9.14,9.14,0,0,1-1.3-1.6c-.3-.4-1-.9-1.4-1.4-1.4-1.5-2.8-3-4.2-4.6a37.62,37.62,0,0,1-2.5-3.1,5.55,5.55,0,0,0-.6-.8c-.1-.1-.2-.3-.3-.4s-.3-.2-.4-.3V34c-.1-.2-.4-.4-.6-.6a.31.31,0,0,0-.1-.2c-.1-.1-.3-.2-.4-.4-.4-.7-1.4-1.6-2-2.4-.1-.1-.2-.3-.3-.4s-.3-.2-.4-.4v-.1a1.38,1.38,0,0,1-.3-.4V29l-.1-.1c0-.1-.1-.1-.2-.3v-.1c-.1-.2-.2-.3-.3-.5s-.1-.2-.2-.3l-.2-.2a.1.1,0,0,0,.1-.1l-.2-.2a.1.1,0,0,0,.1-.1l-.2-.2a.1.1,0,0,0,.1-.1c-.2-.3-.5-.7-.8-1.1-.1-.2-.3-.3-.4-.5v-.1l-.2-.3a.1.1,0,0,0,.1-.1l-.1-.1c0-.2-.2-.4-.4-.7,0,0,.1-.1,0-.1s-.1-.3-.2-.4l-.1-.1c0-.1-.1-.2-.2-.4s-.1-.2-.1-.3c-.3-.5-.7-.9-.9-1.3v-.1c-.1-.1-.1-.2-.2-.3v-.2L1,20.6a.1.1,0,0,0,.1-.1c0-.1-.1-.1-.1-.2a.35.35,0,0,0,.1-.2L1,20a.1.1,0,0,0,.1-.1L1,19.8a.6.6,0,0,0-.1-.4l-.1-.1v-.2L.7,19a3.29,3.29,0,0,0-.3-.6s.1,0,0-.1a.14.14,0,0,1,0-.2c0-.1-.1-.2-.1-.3a.35.35,0,0,0,.1-.2c0-.1-.1-.2-.1-.3a.35.35,0,0,0,.1-.2c0-.1-.1-.2-.1-.3a2,2,0,0,0-.1-.7,1.09,1.09,0,0,0-.1-.5v-.2L0,15.3c0-.1.1-.2.1-.4v-.4c0-.1.1-.1.1-.2a.35.35,0,0,1-.1-.2L.2,14a.1.1,0,0,1-.1-.1l.1-.1a.1.1,0,0,1-.1-.1l.1-.1a.1.1,0,0,1-.1-.1l.1-.1a.1.1,0,0,1-.1-.1l.1-.1a.1.1,0,0,1-.1-.1L.2,13a2.6,2.6,0,0,1,.4-1c.1-.2.2-.3.3-.5v-.1l.3-.6s-.1,0,0-.1,0-.2.1-.3a5.94,5.94,0,0,0,.4-.8c.1-.1.1-.2.2-.3s-.1-.1,0-.1L2,9.1a13,13,0,0,1,1.5-2c.1-.1,0-.1.1-.2s.4-.3.6-.5.6-.8,1-1c.1,0,.2-.1.4-.3l.2-.2c.2-.1.8-.7,1.2-1A14.62,14.62,0,0,1,9.1,2.3a3.7,3.7,0,0,1,1.1-.5s0,.1.1,0l.1-.1c.1,0,.2-.1.4-.2a2.19,2.19,0,0,0,.5-.3s.1.1.1,0l.1-.1a5.94,5.94,0,0,1,.8-.4l.2-.1c.1,0,.3-.1.4-.1h.2c.1,0,.1,0,.2-.1a.76.76,0,0,0,.4-.1h.2L14,.2a.1.1,0,0,0,.1.1c.1,0,.1-.1.2-.1a.35.35,0,0,0,.2.1c.1,0,.1-.1.2-.1s0,.1.1,0,.3,0,.4-.1.3,0,.4,0,.1-.1.2-.1h1.3c.1,0,.1.1.2.1a2.08,2.08,0,0,1,.8,0h.5c.1,0,.2.1.3.2s0-.1.1,0,.2,0,.3.1a.31.31,0,0,1,.2.1.37.37,0,0,1,.3.1c.1.1.5.1.7.2a.37.37,0,0,1,.3.1,1,1,0,0,0,.3.1h.1c.1,0,.2.1.3.2h.2c.2.1.3.2.5.3s.2.1.3.2h.2a4.67,4.67,0,0,1,1,.5s0-.1.1,0l.1.1c.1,0,.2.1.4.2a8.79,8.79,0,0,0,1,.6.76.76,0,0,1,.4.2c.1.1.2.1.3.2s.1.1.2.1.3.1.5.3.5.3.8.5l.3.3a2,2,0,0,0,.8.4l.1.1c.1,0,.1,0,.2.1l.1.1c.1,0,.1,0,.2.1a5.74,5.74,0,0,1,.9.8,5.55,5.55,0,0,0,.8.6l.3.3c.2.1.6.4.9.6.1.1.1.2.2.2s.1,0,.2.1c.4.3.7.8,1.1,1.1a.91.91,0,0,1,.5.3c.5.4,1.1.8,1.6,1.2,2.1,1.9,4.4,3.8,6.4,6a2.65,2.65,0,0,1,.5.6l.1.1c0,.2.5.6.8.9,1.7,1.7,3.6,3.4,5.2,5.2.1.1.2.1.2.2a5.77,5.77,0,0,0,.8,1,.35.35,0,0,0,.2.1c.2.2.2.3.5.6l2.4,2.4c.8.8,1.4,1.6,2.3,2.4.2.2.5.2.6.5a13.6,13.6,0,0,0,1.7,1.8c.9,1,1.8,2.1,2.7,3.2.5.6,1,1.1,1.6,1.7l.1.1a.91.91,0,0,0,.3.5,6,6,0,0,0,.8.8,18.26,18.26,0,0,1,1.3,1.6c.2.3.5.5.7.8a3.51,3.51,0,0,1,.5.8c.2.3.3.5.5.8.1.1.2.3.3.4a7.44,7.44,0,0,0,.9,1.2,6,6,0,0,0,.8.8,5.55,5.55,0,0,1,.6.8c.1.2.1.3.2.4a12,12,0,0,0,1.1,1.2A16.68,16.68,0,0,1,71.4,50a2.09,2.09,0,0,1,.4.6l.1.1c0,.1.1.2.2.4v.2c.1.2.2.2.3.4v.1c.1.1.1.1.1.2l.1.2a1.69,1.69,0,0,0,.2.5v.2c0,.1.1.1.2.2v.2l.1.1a1.69,1.69,0,0,0,.2.5v.2c0,.1.1.1.2.2v.2c0,.1.1.1.2.2s-.1,0,0,.1,0,.4,0,.6.1.1.1.2a4.05,4.05,0,0,0,0,1.1v.1c0,.1.1.1.1.2v.2c0,.1.1.1.1.2a1.7,1.7,0,0,1-.1.7,3.09,3.09,0,0,1-.2.8l-.1.1v.2a9.47,9.47,0,0,1-.9,1.7c-.3.4-.7.8-1,1.2,0,.1,0,.1-.1.2-.4.5-1.1,1-1.6,1.7l-.1.1.1.1a5.72,5.72,0,0,1-.7.8c-.1.1-.3.2-.4.3-.4.3-.8.7-1.2,1-.1.1-.3.1-.4.2-.3.2-.5.5-.9.6a5.74,5.74,0,0,0-.7.4c-.1,0-.1.1-.2.1s-.1.1-.2.1a2.93,2.93,0,0,1-.8.4s0-.1-.1,0a.37.37,0,0,0-.3.1c-.1,0-.1.1-.2.1h-.2l-.1.1c-.1,0-.1,0-.2.1s-.2.1-.3.1a.37.37,0,0,0-.3.1,3.08,3.08,0,0,1-1,.1c-.2,0-.3-.1-.5-.1s-.4.1-.6,0h-.1a2.25,2.25,0,0,0-.7-.1h-.2l-.1-.1a.76.76,0,0,1-.4-.1H59a.37.37,0,0,1-.3-.1.31.31,0,0,1-.2-.1c-.1,0-.1-.1-.2-.1h-.2c-.1,0-.1-.1-.2-.1a.35.35,0,0,1-.2.1c-.1,0-.2-.1-.3-.1s-.3-.1-.4-.1c-.3-.1-.5-.3-.8-.4s-.5-.2-.8-.3-.3-.3-.5-.4-.5-.3-.7-.5-.4-.3-.6-.5a2.09,2.09,0,0,1-.6-.4c-.2-.1-.3-.4-.5-.5s-.2-.2-.4-.3l-.2-.2c-.1,0-.2-.1-.3-.2l-.1-.1c-.1,0-.2-.2-.3-.2s-.6-.4-.9-.6-.2-.2-.4-.3-.1,0-.2-.1-.1-.2-.2-.3a8.47,8.47,0,0,0-1.9-1.4c-.3-.2-.7-.7-1-.9h-.1l-.3-.3h-.1c0-.1,0-.2-.2-.4-.5-.5-1.1-.9-1.6-1.4a1.44,1.44,0,0,0-.2-.3,1.21,1.21,0,0,0-.5-.5c-1-.8-2.3-2.2-3.4-3.3-.2-.2-.4-.3-.5-.4s-.2-.3-.4-.5-.7-.6-1-.9c-.7-.7-1.2-1.4-1.9-2.1-1.9-2-4-4.1-5.9-6.1-.8-.9-1.6-1.7-2.3-2.6,0-.1-.1-.2-.2-.3a10.63,10.63,0,0,1-.9-1.1L27,40v-.1l-.5-.5c-1.4-1.6-3.4-3.5-4.8-5.2a15,15,0,0,1-1.1-1.3c-.2-.3-.6-.9-.9-1.3,0-.1-.1-.2-.2-.3l-.3-.3v-.1a10,10,0,0,1-.8-1.4s.1,0,0-.1l-.1-.1c0-.1-.1-.2-.2-.4a.31.31,0,0,0-.1-.2c0-.1,0-.1-.1-.2s-.1-.2-.2-.4a.31.31,0,0,0-.1-.2c0-.1-.1-.2-.1-.3a1,1,0,0,1-.1-.3v-.2c0-.2-.1-.3-.1-.6,0-.1-.1-.3-.1-.4s.1-.1.1-.2v-.2a.6.6,0,0,1,.1-.4v-.4c0-.1.1-.1.1-.2s-.1-.1-.1-.2a1.88,1.88,0,0,1,.2-.8l.3-.6s-.1,0,0-.1l.1-.2a.35.35,0,0,1-.1-.2l.1-.1c.2-.4.6-.7.9-1.2,0-.1.1-.1.2-.3s.5-.5.8-.9L20,20a5.35,5.35,0,0,1,1.3-1.3c.2-.1.3-.3.5-.4h.1a1.38,1.38,0,0,1,.4-.3.35.35,0,0,1,.2-.1h.2c.1,0,.2-.1.3-.2s.2-.1.4-.1h.2a2.92,2.92,0,0,1,.9-.2c.2,0,.5.1.9.1h.4c.1,0,.1.1.2.1s.1,0,.3.1.2.1.3.1h.2c.1,0,.1,0,.2.1h.2c.1,0,.1.1.2.1h.2l.1.1a.1.1,0,0,1,.1-.1l.1.1a2.74,2.74,0,0,1,.7.4l.6.3,1.2.6c.2.1.3.2.5.3l.1.1a.1.1,0,0,1,.1-.1c.2.1.3.2.5.3s.7.4,1,.6c.1.1.2.1.3.2.6.4,1,.8,1.6,1.2.1,0,.1.1.2.2a5.07,5.07,0,0,0,.7.6h.1l.5.5h.1a.31.31,0,0,0,.1.2l.3.3c.1.1.2.1.3.2a1.44,1.44,0,0,0,.2.3,9,9,0,0,0,1,1.1l.1.1c.3,0,.8.6,1.1,1l.1.1a.1.1,0,0,0-.1.1,1.76,1.76,0,0,0,.4.5c0,.1,0,.1.1.2a7.27,7.27,0,0,0,.9.8c.3.3.5.6.8.9v.1c.5.5,1.1,1,1.7,1.6a6.47,6.47,0,0,1,.8.9v.1c.1.1.3.2.4.4a1.41,1.41,0,0,0,.6.8H45a2.09,2.09,0,0,1,.4.6v.1a1.33,1.33,0,0,0,.3.5,11,11,0,0,1,1.2,1.1,3.49,3.49,0,0,1,.6.9l.3.3a1.33,1.33,0,0,0,.3.5c.6.9,1.3,1.6,1.8,2.5.1.2.2.3.2.4v.2l.1.1a4.33,4.33,0,0,0-.1.5c0,.1.1.3.1.4a1.56,1.56,0,0,1-.6,1.2,2.19,2.19,0,0,1-.5.3c-.1,0-.2.2-.2.2-.2,0-.5.1-.8.1l-.1-.1a.1.1,0,0,1-.1.1,2.31,2.31,0,0,1-1.2-1.2l-.5-.5a2.65,2.65,0,0,1-.5-.6,15,15,0,0,0-1.1-1.3l-.6-.6v-.1s-.5-.4-.5-.5l.1-.1a2.65,2.65,0,0,1-.5-.6c-.1-.1-.1-.2-.2-.3s-.3-.2-.3-.3l.1-.1c-.4-.4-.8-.9-1.2-1.3s-.8-.9-1.2-1.3A13.07,13.07,0,0,1,39.1,33c-.3-.3-.5-.6-.9-1,0,0-.3-.2-.3-.3,0-.3-.9-1-1.2-1.3v-.1a42.72,42.72,0,0,0-3.8-3.6c-.2-.2-.4-.5-.6-.6h-.1s-.4-.5-.5-.5l-.1.1a2.65,2.65,0,0,0-.6-.5c-.1-.1-.3-.2-.5-.4-.1,0-.1,0-.2-.1l-.3-.3h-.1s-.1-.2-.2-.2-.4-.3-.6-.4a.76.76,0,0,0-.4-.2h-.2a7.93,7.93,0,0,0-.9-.4h-.1a10.08,10.08,0,0,0-1.8-.9,6.6,6.6,0,0,0-1.4-.1.37.37,0,0,0-.3.1h-.2a2.09,2.09,0,0,0-.6.4c-.4.3-1.4.8-1.7,1.4a2.51,2.51,0,0,0-.2,1c0,.1,0,.1.1.2a.76.76,0,0,0,.1.4.35.35,0,0,0-.1.2l.1.1v.2c0,.1.2.3.2.4a3.29,3.29,0,0,0,.3.6s-.1,0,0,.1a1,1,0,0,1,.1.3,5.23,5.23,0,0,0,.7,1.2,2.65,2.65,0,0,0,.5.6v.1s.2.1.2.2,0,.1.1.2l.1.1c0,.2.6.8.8,1.1l.1.1c0,.2.3.4.5.6a.31.31,0,0,0,.1.2,21,21,0,0,0,1.4,1.7,7.64,7.64,0,0,1,.9.9c.1.1.1.2.2.3h.1c.5.5,1.1,1.1,1.6,1.7a12,12,0,0,1,1.1,1.2l.9,1.2c.4.4.7.8,1.1,1.2A32,32,0,0,0,35,42.9c.1,0,.1.1.2.2s.1,0,.2.1.3.4.5.6a9.43,9.43,0,0,1,1,1c.1.1.1.2.2.3s.4.3.6.5.3.4.5.6l1.2,1.2c.8.8,1.5,1.7,2.3,2.5s1.6,1.5,2.4,2.3c1,1,2.1,2.1,3.1,3,.5.4,1.1,1.1,1.8,1.6.1-.2.1-.2.3,0l.3.3h.1l.5.5c.5.4,1.1.8,1.6,1.2a6.47,6.47,0,0,1,.9.8,2.74,2.74,0,0,0,.5.4h.1a2.65,2.65,0,0,1,.6.5H54c.1.1.3.4.5.5a.31.31,0,0,1,.2.1c.1,0,.1.1.2.2.6.4,1.4,1,2,1.4l.1.1c.1,0,.1,0,.2.1l.1.1a1.42,1.42,0,0,1,.6.2c.1,0,.2.2.2.2s.1,0,.2.1l.1.1a1.69,1.69,0,0,1,.5.2.37.37,0,0,1,.3.1h.2l.1.1a.35.35,0,0,1,.2-.1c.1,0,.1.1.2.1a.35.35,0,0,1,.2-.1l.1.1h.2a4.33,4.33,0,0,1,.5.1h.3c.1,0,.2-.1.3-.1a2.54,2.54,0,0,0,.7-.2h.1c.1,0,.2-.1.3-.2s0,.1.1,0,.2,0,.3-.1a1.47,1.47,0,0,1,.4-.2h.2c.1,0,.2-.1.3-.2s0,.1.1,0a.31.31,0,0,0,.2-.1c.1-.1.3-.1.4-.2s.1-.1.3-.2.2-.1.3-.2h.1c.2-.1.3-.3.5-.4s.7-.5,1.1-.8H67c.1-.1.2-.3.4-.4h.1a10,10,0,0,0,2.2-2.4.76.76,0,0,0,.2-.4s-.1,0,0-.1l.1-.1v-.2l.1-.1a3.4,3.4,0,0,0-.1-1,2.77,2.77,0,0,0-.3-1.3,6.22,6.22,0,0,0-1.1-1.9,8.79,8.79,0,0,1-.6-1c-.5-.7-1.1-1.4-1.6-2.1l-.1-.1V50a7.27,7.27,0,0,1-.8-.9c-.3-.4-.6-.7-1-1.2l-.1-.1v-.1a8.74,8.74,0,0,1-.8-1c-.2-.3-.3-.4-.5-.7l-.1-.1a10.14,10.14,0,0,0-.9-1.3c-.9-1-1.9-2.3-3-3.5l-.5-.5c-.5-.6-1.4-1.5-2.1-2.3-.6-.6-1-1.3-1.6-1.9a13.62,13.62,0,0,1-1.7-1.7,9,9,0,0,0-1-1.1,7.64,7.64,0,0,1-.9-.9l-1-1c-.6-.7-1.6-1.7-2.5-2.7a7,7,0,0,1-1.3-1.6c0-.1-.2-.2-.2-.2h-.1c-.6-.6-1.1-1.3-1.8-1.9a10.59,10.59,0,0,1-1.2-1c-.8-.7-1.5-1.6-2.3-2.4-.1-.1-.2-.1-.3-.2s-.1-.2-.2-.3-.3-.4-.5-.5h-.1c-1.1-.9-2.3-2.3-3.4-3.4,0,0-.3-.2-.3-.3s0-.1-.2-.2l-.3-.3c-.1-.1-.3-.1-.4-.3s0-.1-.1-.2c.2.4.1.4,0,.3a6.47,6.47,0,0,0-.9-.8c-.4-.3-.9-.8-1.4-1.2-.2-.2-.4-.3-.6-.5h-.1a2.41,2.41,0,0,0-.8-.6c-.1-.1-.2-.1-.3-.2-.5-.4-1-.9-1.5-1.3-.1,0-.1-.1-.2-.2s-.2-.1-.4-.3l-.2-.2a5.77,5.77,0,0,1-1-.8l-.2-.2h-.1c-.4-.3-.7-.7-1.1-1-.2-.2-.5-.2-.7-.4s-.2-.1-.3-.2h-.1s-.1-.2-.2-.2-.5-.4-.8-.5h-.1a2.18,2.18,0,0,0-.8-.5l-.1-.1a.37.37,0,0,1-.3-.1l-.1-.1c-.1,0-.2-.1-.4-.2s-.3-.1-.4-.2c-.3-.1-.6-.3-.9-.4s-.4-.3-.6-.4A1.27,1.27,0,0,1,19.7,5.6Z"/></g></g></svg>