<svg xmlns="http://www.w3.org/2000/svg" viewBox="0 0 68.25 35.29"><defs><style>.cls-1{stroke:#000;stroke-miterlimit:10;stroke-width:0.25px;}</style></defs><title>icon-review</title><g id="Capa_2" data-name="Capa 2"><g id="main"><path class="cls-1" d="M53,4.07c.5.3,1.1.6,1.7,1,.1.1.2.2.3.2l.3.1.1.2h.2v.1h.2v.1H56v.1h.2a2.19,2.19,0,0,0,.5.3c.1,0,.1.2.1.2H57a1.38,1.38,0,0,0,.4.3c.1.1.2.2.3.2h.1l.3.3h.2a7.69,7.69,0,0,0,1.3,1.2l.3.3h.2c.1.2.2.2.4.3s0,.1.1.1a2.09,2.09,0,0,1,.6.4c.1,0,0,.1.1.1s.5.5.8.6c.1.1.3.2.4.3.3.2.7.6,1.1.9l.3.3c.1.1.3.1.4.2l.3.3a1.27,1.27,0,0,0,.6.4c.1,0,0,.1.1.1s.2.2.3.2.4.3.6.4.2.2.3.2h.1c.1,0,.2.2.2.2H67c.2.3.5.4.8.9l.1.4H68a2.85,2.85,0,0,1,0,1.3.1.1,0,0,0-.1.1c0,.3-.2.4-.3.6s-.2.2-.2.3-.2.1-.2.2c-.1.3-.2.7-.3,1.1-.5.4-1,.9-1.5,1.3-.1.1-.3.2-.4.3a22.33,22.33,0,0,0-2.1,2.2c-.4.5-1.1,1.1-1.6,1.7s-1,.9-1.4,1.4c-.1.1,0,.2-.1.3a8.17,8.17,0,0,1-.9.8c-.1,0-.3.2-.4.3a9,9,0,0,1-1,.9c-.1,0,0,.1-.1.1s-.4.2-.4.3a1.69,1.69,0,0,0-.3.6c0,.2-.4.4-.5.5l-.3.3a2.18,2.18,0,0,1-.8.5l-.3.3c-.1.1-.2.2-.3.2s-.1.2-.2.2h-.2v.1h-.2V31h-.2v.1h-.2c-.1.2-.2.2-.4.3a4.57,4.57,0,0,1-1.4.5.1.1,0,0,1-.1.1,1.42,1.42,0,0,1-.6.2c-1.7.4-3.6,1.4-5.4,1.8a24.28,24.28,0,0,1-4,.5h-.2c-.3.1-1,.2-1.5.3a15.26,15.26,0,0,1-3,.3c-1.1.1-2.1.1-3.2.1a37.08,37.08,0,0,1-4.7-.3,5.28,5.28,0,0,1-1.2-.1h-.2v-.1c-1.1-.1-2.1-.1-3.1-.2-.1,0-.2-.1-.3-.1a11.14,11.14,0,0,1-3-.8.1.1,0,0,0-.1-.1c-.2-.1-.3-.2-.5-.2s-.3,0-.5-.1-.2-.2-.2-.2h-.3c-.1,0-.2-.2-.2-.2h-.2c-.1,0-.5-.2-.8-.3a5.36,5.36,0,0,0-1.1-.5.37.37,0,0,1-.3-.1c-.1,0-.2-.2-.2-.2-.2-.1-.5-.1-.6-.2s-.2-.2-.2-.2c-.2-.1-.4-.1-.6-.2a.1.1,0,0,0-.1-.1c-.1,0-.2-.2-.3-.2s-.3-.2-.5-.3-.3-.2-.5-.3a26,26,0,0,0-2.4-1.3.76.76,0,0,0-.4-.2c-.1,0-.2-.2-.3-.2a1.38,1.38,0,0,0-.4-.3,1.38,1.38,0,0,0-.4-.3,7,7,0,0,1-1-.8l-.3-.3c-.1-.1-.2,0-.3-.1s-.3-.4-.4-.5a5.55,5.55,0,0,0-.8-.6c-.1-.1-.2-.3-.3-.4s-.3-.1-.4-.2a17.38,17.38,0,0,1-1.3-1.5l-.2-.2c-.3-.5-1.1-1.1-1.5-1.6-.3-.3-.6-.7-1-1.1-.1-.1-.2-.3-.3-.4l-.3-.3c-.1-.1,0-.2-.1-.3s-.4-.2-.4-.4-.3-.3-.4-.4-.1-.3-.2-.4-.2-.1-.2-.2a3.33,3.33,0,0,1-.3-.6v-.3c0-.1-.1-.1-.1-.2s.1-.4,0-.4c-.4-.4-.2-1.5.1-2.1,0-.1.1,0,.1-.1s.2-.1.2-.2v-.2l.2-.1v-.2c.1-.1.3-.1.3-.3l.1-.2.3-.3c0-.1.1-.1.1-.2a.1.1,0,0,1,.1-.1,15,15,0,0,1,1.1-1.3A19,19,0,0,1,5.45,9l.3-.3h.2c0-.1.2-.4.4-.4s.2-.2.3-.3h.2a1,1,0,0,1,.5-.4l.3-.3h.2l.1-.2a3,3,0,0,1,.8-.4l.3-.3h.2l.1-.2h.2v-.1h.2s.3-.3.5-.3a6.89,6.89,0,0,1,.8-.3c.2,0,.2-.2.4-.2s.3-.2.5-.3.1-.1.2-.1l.3-.1v-.1h.2s.3-.3.5-.3a6.89,6.89,0,0,1,.8-.3,6.89,6.89,0,0,1,.8-.3.76.76,0,0,0,.4-.2c.2-.1,1.1-.3,1.4-.4h.2c.1-.1.3,0,.4-.1V3a4.33,4.33,0,0,0,.5-.1c.8-.2,2-.4,3-.6.1,0,.4.1.4,0v-.1a4.33,4.33,0,0,0,.5-.1A44.58,44.58,0,0,1,27,1c.5-.1,1-.2,1.6-.3h.3c.3-.1,1.2-.2,1.7-.3a16.58,16.58,0,0,1,3.2-.1c.2,0,.2-.1.3-.1a19.2,19.2,0,0,1,2.4,0,23.48,23.48,0,0,1,2.7.1h.5a.1.1,0,0,0,.1.1h.1c.1,0,.3.2.5.2,1.6.4,3.5.5,5.2,1,1,.2,1.8.7,2.8,1,.1,0,.2.1.3.1s.5.2.8.3a.52.52,0,0,0,.4.2,1.42,1.42,0,0,0,.6.2c.6-.5.6-.5.8-.3a2.19,2.19,0,0,0,.5.3c.1,0,0,.1.1.1s.2.2.3.2h.2v.1C52.75,3.87,52.95,3.87,53,4.07Zm-23.6,2.7c-.1.2-.2.3-.2.4a4.71,4.71,0,0,0-.3.9c0,.2-.2.3-.2.4-.3.4-.6,1.1-.8,1.4a2.61,2.61,0,0,0-.3.8v.1a.1.1,0,0,1-.1.1c-.2.5-.1,1.1-.3,1.7l-.2.2a3.93,3.93,0,0,0-.2.6,1.63,1.63,0,0,1-.3.6c-.2.2-.2.6-.3.8a5.46,5.46,0,0,0-.2,2.7c0,.5.1,1.1.1,1.5v.8a4.14,4.14,0,0,1,.1,1,8.08,8.08,0,0,1,.1,1.5c0,.3.1.8.1,1h.1v.2a13.09,13.09,0,0,0,1,2.1c.1.2.3.5.3.5l.1.3c0,.1,0,.1.1.2v.2c0,.1.2.1.2.2s.1.5.2.6.5.4.8.6a6,6,0,0,0,.8.8.32.32,0,0,1,.3.3h.2c.1.1.1.2.2.2a2.11,2.11,0,0,0,1,.4,17,17,0,0,0,2.4.1,22.55,22.55,0,0,0,2.6,0,8.87,8.87,0,0,0,1.4-.3c1.3-.3,2.9-.4,3.9-.6.1,0,.2-.1.3-.1.3-.1.3-.1.4-.2s.2-.1.3-.2a2.09,2.09,0,0,0,.4-.6c.1-.2.3-.3.3-.4a.1.1,0,0,1,.1-.1c.1-.1,0-.3.1-.4l.2-.1v-.2c0-.1.2-.1.2-.2a4,4,0,0,0,.3-.4c.1-.1.1-.2.2-.3s.1-.2.2-.3.1-.2.2-.3.1-.2.2-.3a.76.76,0,0,0,.2-.4.1.1,0,0,1,.1-.1c.1-.2,0-.5.1-.8a.1.1,0,0,0,.1-.1v-.2c.1-.3.1-.5.2-.8a.6.6,0,0,0,.1-.4,1.88,1.88,0,0,0,.2-.8v-1a.1.1,0,0,0,.1-.1v-.2c0-.2.1-.3.1-.4.1-.3,0-.6.1-.9a2.35,2.35,0,0,0,.2-.8,24.44,24.44,0,0,0-.1-2.9,14.58,14.58,0,0,0-.4-1.7v-.2c0-.1-.2-.2-.2-.2-.1-.2-.1-.5-.2-.6s-.1,0-.1-.1v-.2c0-.1-.2-.2-.2-.2a.37.37,0,0,1-.1-.3.35.35,0,0,0-.1-.2c0-.2-.2-.3-.2-.4s-.2-.1-.2-.2a2.19,2.19,0,0,0-.3-.5c0-.1-.2-.1-.2-.2a2.19,2.19,0,0,0-.3-.5,8.64,8.64,0,0,0-1.4-1.3c-.1-.1-.3-.2-.4-.3a2.62,2.62,0,0,0-.9-.5l-.1-.2a.37.37,0,0,0-.3-.1v-.1l-.3-.1a1.34,1.34,0,0,0-.9-.2.1.1,0,0,1-.1-.1c-.3-.1-.7,0-1.1-.1a.1.1,0,0,0-.1-.1h-.3a8,8,0,0,0-1.5-.3c-.9-.1-2,0-3,0a20.39,20.39,0,0,0-3.6.1C30,6.07,29.75,6.27,29.45,6.77Zm-8.7.6h-.2c-.2,0-.2,0-.3.1h-.3a.1.1,0,0,0-.1.1c-.4.1-.8.1-1.2.2a4.33,4.33,0,0,0-.5.1V8h-.2c-.4.1-.6.1-.9.2a.76.76,0,0,1-.4.1c-.2,0-.3.2-.4.2a.1.1,0,0,0-.1.1c-.2.1-.4.1-.5.2a8,8,0,0,0-1.6.8c-.1.1-.2.2-.3.2s0,.1-.1.1-.3.1-.4.2-.2.2-.3.2a.1.1,0,0,0-.1.1,6.89,6.89,0,0,1-.8.3c-.3.2-.6.3-.9.5s-.5.4-.8.6-.6.3-.9.5l-.3.3c-.1.1-.3.2-.4.3a11,11,0,0,0-1.1,1c-.1.1-.2,0-.2.1s0,.2-.1.3a4,4,0,0,1-.4.3c-.1.1,0,.5-.2.4.1.8.7,1,.9,1.7.3.2.8.4,1.1.6.1.1.1.2.2.3l1.9,1.9c.6.6,1.3,1.3,1.8,1.7v.2a1.37,1.37,0,0,0,.8.5l.3.3c.1.1.3.1.4.2s.1.2.1.2.2,0,.3.1c.3.2.8,1,1.1,1,.1,0,0,.1.1.1a2.19,2.19,0,0,1,.5.3.35.35,0,0,1,.2.1c.2,0,.2.2.3.2a1.63,1.63,0,0,1,.6.3.76.76,0,0,0,.4.2.1.1,0,0,1,.1.1c.3.1.6.1.9.2l.2.2.4.4c.1.1.2,0,.3.1s.1.2.2.2.2,0,.3.1.4.3.6.1,0-.4,0-.5a.1.1,0,0,0-.1-.1c-.1-.3,0-.4-.1-.6l-.2-.2v-.3l-.2-.2c-.1-.3-.1-.5-.2-.6v-.2a8.33,8.33,0,0,1-.4-1.5,7.52,7.52,0,0,1,0-1.5c-.1-1.5-.6-3.2-.3-4.4,0-.2.1-.5.1-.6h.1v-.2a2,2,0,0,1,.1-.5c.1-.6.2-1.2.3-1.6s.1-.5.2-.8.2-.9.3-1.3a12.09,12.09,0,0,0,.5-1.8,8.57,8.57,0,0,1,.3-1.3v-.2c.1-.3.4-.6.1-1C21,7.27,20.85,7.27,20.75,7.37ZM53.35,12c0,1.2.5,2.3.5,3.5a14.27,14.27,0,0,1-.1,3,7.89,7.89,0,0,0-.3,1.3v.5c-.1.8-.2,1.8-.3,2.5-.1.3-.3.6-.1.9.5,0,.7-.5,1-.8l.9-.9a15.93,15.93,0,0,1,1.3-1.3,34.36,34.36,0,0,0,2.7-2.7l.2-.2c.1-.1.3,0,.3-.1a3.13,3.13,0,0,0,.8-1.1c-.1-.4-.5-.5-.6-.8l-1.4-1.1-.3-.3c-.1-.1-.3-.1-.4-.2l-.3-.3c-.2-.1-.3-.1-.4-.2l-.1-.2h-.2l-.3-.3c-.1-.1-.3-.1-.4-.2l-.3-.3a2.18,2.18,0,0,0-.8-.5,1.27,1.27,0,0,0-.9-.4h-.2C53.35,11.67,53.35,11.87,53.35,12Z"/></g></g></svg>