<svg xmlns="http://www.w3.org/2000/svg" viewBox="0 0 71.29 73.01"><title>icon-search</title><g id="Capa_2" data-name="Capa 2"><g id="main"><path d="M4.45,72.27C12.55,64.54,19.84,56,27.07,47.5c2.14-2.53-1.5-6.2-3.66-3.66C16.18,52.38,8.89,60.88.79,68.62c-2.42,2.31,1.25,6,3.66,3.66Z"/><path d="M23.52,21.32c.38-5.93,6.37-11.06,11-14.06,5.88-3.81,13.95-2.14,19.81.87A21.78,21.78,0,0,1,64.64,20.32c2.26,6.27,1.44,12-2,17.58C59.11,43.78,55,47.21,48.27,49a22.3,22.3,0,0,1-16.15-1.74c-9.67-4.9-12-16-9.12-25.86,1-3.2-4-4.56-5-1.37-3.93,13.23.61,26.81,13.48,32.65,6.65,3,13.63,2.71,20.5.65C60.22,50.82,65.35,44.41,69.1,37,75.56,24.12,66.87,7.52,54.29,2.42,46.64-.69,38.13-1.24,31,3.38,25,7.29,18.82,13.83,18.35,21.32c-.21,3.33,5,3.31,5.17,0Z"/><path d="M52.72,18.19c5.37,6,4,14.63,0,21C51,42,55.44,44.61,57.21,41.8c5.33-8.46,6.09-19.49-.84-27.26-2.22-2.5-5.87,1.17-3.66,3.66Z"/></g></g></svg>