<svg xmlns="http://www.w3.org/2000/svg" viewBox="0 0 41.8 55.79"><title>icon-social</title><g id="Capa_2" data-name="Capa 2"><g id="main"><path d="M18.43,11.49c0,.15.15.22.3.3s.22.07.37.15.07.15.15.15h.15l.6.6.07.15c.07.07.15.07.3.15s.15.07.22.15.07.15.15.15h.15a1,1,0,0,0,.3.22c.07,0,0,.07.07.07a.26.26,0,0,0,.15.07c.45.22.75.75,1.2,1,.15.07.37.37.6.52s.07.07.15.07l.52.52c.07.07.07.15.15.15s.15,0,.22.07a3.46,3.46,0,0,0,.52.52,11.52,11.52,0,0,0,1,.9,1,1,0,0,0,.3.22c.07,0,.07.07.15.07l.3.3c.07.07.15,0,.22.07s.07.15.07.15c.22.15.37.3.6.45s.15.22.3.3a2.38,2.38,0,0,0,.45.37,1,1,0,0,0,.3.22c.15.07.22.22.45.37s.22.15.3.22a3.46,3.46,0,0,1,.52.52c.15.15.45.3.6.45s.15.22.22.3a.28.28,0,0,0,.22.07c.07,0,.07.07.15.07s.22,0,.3-.07a1.64,1.64,0,0,1,.37-.22c.07,0,.07-.15.15-.15s.15,0,.22-.07.15-.15.15-.15h.15c.07,0,.15-.07.22-.07a5.81,5.81,0,0,1,.67-.07s.37.07.45,0,.52-.07.67-.15h.37a8.7,8.7,0,0,1,2.7,1l.15.15h.22a.07.07,0,0,0,.07.07c.07,0,.15.15.3.15l.22.07.22.22h.15c.07.15.22.22.37.37a3.73,3.73,0,0,1,.82.75l.15.15c.07.07,0,.15.07.22s.22.15.3.3a1.64,1.64,0,0,1,.22.37c0,.07.07,0,.07.07l.07.15c0,.07.15.07.15.15s.07.3.15.45a.07.07,0,0,1,.07.07.81.81,0,0,0,.07.37c0,.07.15.15.15.15v.15a11.76,11.76,0,0,1,.22,1.2v.3a6.49,6.49,0,0,1,.15.75c0,.3-.07.6-.07,1s.07.67.07.9a3.08,3.08,0,0,1-.22.6,6.65,6.65,0,0,1-.22,1,4.78,4.78,0,0,0-.15.67.79.79,0,0,1-.15.37,9.49,9.49,0,0,1-.82,1c-.07.07-.15.22-.22.3l-.22.22v.15c-.15.07-.22.22-.37.37a1,1,0,0,1-.3.22c-.07.07-.15.07-.22.15a2.49,2.49,0,0,1-.45.22c-.15.07-.22.07-.37.15s-.15.15-.3.15a.26.26,0,0,1-.15.07c-.07,0-.15.15-.3.15a1.27,1.27,0,0,0-.37.15.45.45,0,0,0-.3.07c-.07,0-.15.15-.15.15s-.15,0-.3.07a.07.07,0,0,1-.07.07.45.45,0,0,0-.3.07c-.07,0-.15.07-.22.07s-.67.15-1,.22a5.24,5.24,0,0,1-1.87,0c-.07,0-.15-.07-.22-.07a2.19,2.19,0,0,1-.67-.15,1.06,1.06,0,0,1-.45-.15h-.15c-.07-.07-.07-.07-.15-.07l-.22-.07c-.07-.07-.22-.07-.45-.07-.6.07-1,.75-1.65,1.27-.07.07-.07.07-.15.07s-.52.52-.82.75l-.07.15h-.15c-.15.07-.22.3-.3.37H27c-.07.07-.07.15-.22.22s-.15.15-.3.22-.07.15-.15.15h-.15l-.07.15H26c-.07.07-.07.15-.22.22l-.07.07a.28.28,0,0,0-.22.07c-.07.07-.07.15-.15.22h-.15c-.07.07-.15.22-.3.3a4.16,4.16,0,0,1-.6.45c-.07,0,0,.07-.07.07l-.15.07c-.07,0-.07.15-.15.15s-.22.07-.37.15-.07.15-.15.15a1.51,1.51,0,0,1-.6.3c-.15,0-.37.22-.52.37l-.3.3c-.07.07-.22.07-.37.15s-.07.15-.15.15a.28.28,0,0,0-.22.07l-.3.3a1.64,1.64,0,0,0-.37.22A3.17,3.17,0,0,1,20,44c-.07,0-.07.15-.15.15H19.7v.07h-.15a1,1,0,0,1-.3.22c-.22.07-.45.07-.6.3.07.07-.07.37,0,.45s.07.15.15.37a.07.07,0,0,1,.07.07c0,.15.07.15.07.22v.22a10.22,10.22,0,0,1,0,2.62c0,.07-.07.07-.07.15-.07.3,0,.6-.07.82a.07.07,0,0,0-.07.07c0,.15-.07.15-.07.22a8.83,8.83,0,0,1-.82,1.42c-.07.07,0,.15-.07.22s-.15.07-.15.15a.28.28,0,0,1-.07.22l-.15.07c-.07.07,0,.15-.07.22s-.07,0-.07.07-.15.15-.15.22c-.22.45-.9.82-1.35,1.2-.07,0,0,.07-.07.07l-.15.07-.07.15h-.15l-.22.22c-.07.07-.22.22-.3.22s-.15.15-.22.15l-.15.07a5,5,0,0,1-1.57.67h-.37a.07.07,0,0,1-.07.07h-.07a6.31,6.31,0,0,1-1.35.22,12.82,12.82,0,0,1-3-.22c-.22-.07-.45-.07-.67-.15a4.32,4.32,0,0,1-1-.22H6.07v-.07H5.92a1.15,1.15,0,0,0-.45-.3c-.15-.07-.22,0-.37-.07s-.22-.07-.3-.15H4.64v-.07H4.49v-.07H4.34v-.07H4.19v-.07H4v-.07H3.9c0-.07-.22-.22-.3-.22s-.22-.15-.3-.22a3.17,3.17,0,0,1-.52-.37c-.07-.07-.3-.37-.45-.37a2.26,2.26,0,0,1-.6-.6l-.07-.07a.28.28,0,0,0-.07-.22c0-.07-.15-.07-.15-.15s-.15-.22-.22-.37A1.64,1.64,0,0,1,1,51.2c0-.07-.15-.07-.15-.15s-.07-.3-.15-.45-.07-.07-.15-.15a.39.39,0,0,1-.15-.3V50c0-.07-.15-.15-.15-.15s0-.15-.07-.37a1.52,1.52,0,0,1-.07-.37v-.15L0,48.87c0-.15.07-.45.07-.6a5.67,5.67,0,0,1,.07-1.12l.07-.07v-.45c.07-.3.15-.52.22-.82a2.72,2.72,0,0,1,.22-.52A.39.39,0,0,0,.82,45a.45.45,0,0,1,.07-.3c0-.07.07-.15.15-.3a.28.28,0,0,1,.07-.22c0-.07.15-.07.15-.15s.07-.3.15-.45.15-.07.15-.15.15-.22.22-.37A1.64,1.64,0,0,0,2,42.66c0-.07.15-.07.15-.15s.07-.3.15-.45.15-.07.15-.15,0-.15.07-.22.22-.15.37-.3.15-.22.3-.3l.07-.15c.07-.07.15-.07.3-.15s.22-.15.37-.22.45-.45.67-.6.07-.15.15-.15a1.64,1.64,0,0,1,.37-.22c.07,0,.07-.15.15-.15h.15a1.18,1.18,0,0,1,.6-.37c.15,0,.22,0,.3-.07s.07-.15.15-.15.3-.07.45-.15h.15c.07-.15.45-.15.75-.22H8c.07-.07.3-.07.52-.15a3,3,0,0,1,1.2-.07h.15c.07.15.6,0,.9,0a3.38,3.38,0,0,1,.82.22l.75.22c.07,0,.07.15.15.15h.15c0,.07.22.22.3.22s.15.22.3.22.22.15.37.22.6.07.9.15c.07.22.37.22.6.37l.07.07a.28.28,0,0,1,.22.07c.15.07.52.67,1,.6l.22-.07c.07-.07.07-.15.15-.22h.15v-.07c.07-.07.15,0,.22-.07s.15-.3.3-.37.15,0,.22-.07.15-.3.3-.3.15-.22.3-.22.3-.3.45-.37a1,1,0,0,1,.3-.22c.07,0,.07-.07.15-.07s.07-.15.15-.15.07-.07.15-.07.22-.22.45-.3.15-.07.3-.15,0-.07.07-.07h.07c.07,0,.07-.15.15-.15h.15v-.07h.15c.07-.15.3-.22.45-.37l.22-.22c.07-.07.22-.07.3-.15a6.75,6.75,0,0,0,.67-.75c.15-.15.37-.22.52-.37s.07-.22.22-.22.15-.15.3-.22a10.07,10.07,0,0,0,1-.82c.07-.07.15-.3.3-.37H25v-.07c.3-.15.67-.15.9-.3l.15-.15c.07,0,.22,0,.22-.07s.07-.22.22-.37a1.12,1.12,0,0,0-.3-.67c-.07-.07,0-.15-.07-.22s-.15-.07-.15-.15a3.12,3.12,0,0,1-.15-.45.07.07,0,0,1-.07-.07V31.5c0-.07-.15-.15-.15-.15V31.2a.07.07,0,0,0-.07-.07c-.07-.15,0-.37-.07-.52a.07.07,0,0,1-.07-.07c-.07-.15,0-.37-.07-.67a8.8,8.8,0,0,1,0-1.42s0-.3.07-.37h.07V27.9h.07v-.15a2.94,2.94,0,0,0,.3-.67c.07-.22.15-.52.22-.75a7.07,7.07,0,0,1,.22-.67c0-.07.07,0,.07-.07s.15-.22.22-.3a1.63,1.63,0,0,1,.3-.37c.07-.07.3-.22.37-.3l.15-.15c.07-.07-.07-.22.07-.22,0-.3-.22-.45-.45-.6s-.3-.3-.52-.45a3.26,3.26,0,0,0-.52-.45c-.15-.07-.3-.3-.45-.45h-.15c-.07-.07-.15-.22-.22-.3s-.15,0-.22-.07-.07-.07-.15-.15c-.45-.37-.9-.82-1.35-1.2-.15-.07-.22-.22-.37-.3l-.3-.3h-.15l-.07-.15c-.07-.07-.15,0-.22-.07s-.15-.22-.3-.3-.15-.07-.22-.15a7.19,7.19,0,0,1-1.12-1c-.6-.6-1.35-1.12-2-1.8-.07-.07-.15-.3-.3-.37s-.3-.15-.37-.22a5.45,5.45,0,0,0-.6-.67h-.15L17.15,15a1.64,1.64,0,0,0-.37-.22.3.3,0,0,0-.37-.07c-.07,0,0,.07-.07.07s-.22.15-.37.22-.07.15-.15.15-.15,0-.22.07-.07.15-.15.15-.15,0-.22.07-.15.15-.15.15-.3,0-.45.07a.07.07,0,0,1-.07.07c-.15,0-.15.07-.3.07s-.3,0-.45.07a.07.07,0,0,1-.07.07h-.22c-.07.07-.22.07-.45.15s-.75.22-1.2.3a7.82,7.82,0,0,1-1.87,0c-.67-.07-1.35,0-1.87-.07A.07.07,0,0,0,8,16.29h-.3a.07.07,0,0,0-.07-.07,3.57,3.57,0,0,1-1.35-.6c-.07,0,0-.07-.07-.07s-.15-.15-.3-.15a1.27,1.27,0,0,1-.37-.15H5.39v-.07c-.07-.07-.22,0-.3-.07S5.09,15,5,15s-.37-.52-.6-.67H4.27c-.07-.15-.3-.22-.52-.37s-.3-.3-.52-.45a5.72,5.72,0,0,1-.67-.67c-.07-.15-.3-.3-.3-.37s0-.37-.07-.67a1.76,1.76,0,0,0-.15-.6l-.22-.9a7.69,7.69,0,0,1,0-2.62V7.3a.07.07,0,0,0,.07-.07c0-.15.07-.22.15-.37a.28.28,0,0,1,.07-.22c0-.07.15-.07.15-.15L2.47,6c0-.07.15-.07.15-.15s0-.15.07-.22l.15-.07V5.43L3,5.28c.15-.22.15-.37.3-.6s.15-.15.15-.15.07-.37.15-.45l.22-.22c.15-.22.52-.52.75-.82a6,6,0,0,1,1-1c.07-.07.15-.07.22-.15l.07-.15H6c.15-.15.22-.37.37-.45h.15c.07-.07.07-.15.22-.22A3.65,3.65,0,0,1,7.27.86,2.46,2.46,0,0,0,7.72.63a3.13,3.13,0,0,0,.75-.3L8.54.26a.57.57,0,0,1,.3-.15C8.91.11,8.91,0,9,0a12,12,0,0,1,1.65,0,10.26,10.26,0,0,1,2.25.15A.07.07,0,0,0,13,.26h.3a.07.07,0,0,0,.07.07.68.68,0,0,1,.37.07.07.07,0,0,0,.07.07c.07,0,.07.15.15.15h.15l.22.22c.07,0,.07.07.15.07s.22.15.37.22l.07.15h.15l.07.15h.15c.07.07.07.15.15.22s.22.07.3.15.22.22.37.37a2,2,0,0,1,.45.37l.07.15h.15c.07.07.07.15.15.22s.15.07.22.15.15.37.3.52.15.22.3.37l.07.07c.07.07,0,.22.07.3s.15.07.15.15,0,.15.07.3a.07.07,0,0,1,.07.07c.07.22.15.37.22.6a.45.45,0,0,0,.07.3l.15.15a3.24,3.24,0,0,1,.07.37c.07.22.07.45.15.75A6.76,6.76,0,0,1,19,8.87c-.07.45-.22.82-.3,1.27S18.5,11,18.43,11.49ZM10.64,3.33l-.15.15c-.07.07-.22,0-.3.07s-.07.15-.15.22H9.89l-.07.15c-.15.07-.22.22-.37.3s-.22.3-.37.37-.15,0-.22.07-.07.15-.15.22l-.37.37c-.15.15-.75.6-.75.75s-.07.15-.15.22a.81.81,0,0,0-.07.37l-.15.07a.28.28,0,0,0-.07.22C7.12,7,7,7,7,7.07s-.15.07-.15.15-.07.22-.15.37H6.67v.15c-.07.07-.15.07-.22.15V8l-.15.15A1.51,1.51,0,0,0,6.07,9,.07.07,0,0,1,6,9.1a6.63,6.63,0,0,0,0,1.72,2.32,2.32,0,0,0,.15.52.07.07,0,0,0,.07.07,1.51,1.51,0,0,0,.3.6,1.64,1.64,0,0,1,.37.22l.22.07c.07,0,.07,0,.15.07h.15c.3.07.45,0,.82.07a10.24,10.24,0,0,0,1.42.15c.3,0,.45.07.52,0h.15a1.11,1.11,0,0,0,.52-.07l.75-.22c.15,0,.22-.07.45-.15l.75-.22a1.8,1.8,0,0,0,.6-.45c.07-.07.3-.15.3-.22a4.6,4.6,0,0,0,.52-1.35,11.63,11.63,0,0,0,.3-1.57,7.82,7.82,0,0,0,0-1.87c0-.22-.3-.52-.3-.67S14,5.43,14,5.35a3.65,3.65,0,0,0-.22-.52l-.15-.15V4.53h-.07V4.38c-.07-.15-.45-.37-.52-.45a1.32,1.32,0,0,0-.37-.3,1,1,0,0,1-.3-.22,1.23,1.23,0,0,0-.9-.15l-.07.07ZM32.51,24.9c-.15,0-.15.15-.22.22s-.22.15-.37.22-.15.22-.22.3-.15,0-.22.07l-.15.22c0,.15-.22.15-.22.3s-.15.3-.22.3v.15l-.15.15c-.07.07,0,.15-.07.22s-.15.07-.15.15-.07.45-.15.67a.07.07,0,0,0-.07.07V28a.07.07,0,0,1-.07.07c-.07.15,0,.3-.07.37a.07.07,0,0,0-.07.07v.07c0,.15-.15.22-.15.3a.07.07,0,0,1-.07.07,2.19,2.19,0,0,0-.15.67A3,3,0,0,0,30,31v.15H30v.15c0,.07.15.07.15.15s.07,0,.07.07a3.17,3.17,0,0,0,.37.52,3.17,3.17,0,0,0,.37.52,1.35,1.35,0,0,0,.67.3.07.07,0,0,1,.07.07,2.66,2.66,0,0,0,.52-.07,1.65,1.65,0,0,0,.6-.07,4.85,4.85,0,0,0,1-.3.28.28,0,0,0,.22-.07c.07,0,.07-.15.15-.15h.15a.07.07,0,0,0,.07-.07c.15-.07.22,0,.3-.07s.07-.15.15-.15a.28.28,0,0,1,.22-.07,1,1,0,0,0,.3-.22h.15c.07,0,.07-.07.15-.15l.15-.15c.07-.07,0-.15.07-.22s.15-.07.22-.15.15-.3.22-.37l.15-.15a1.59,1.59,0,0,0,.22-.52A4.37,4.37,0,0,0,37,28.27a3,3,0,0,0-.3-1v-.07a.07.07,0,0,0-.07-.07c-.15-.45-.15-.9-.3-1.2,0,0-.15-.07-.15-.15a1.64,1.64,0,0,0-.22-.37,1.56,1.56,0,0,0-1.2-.6,1.27,1.27,0,0,0-.52.07c-.07,0-.07.07-.22.07s-.15-.07-.22-.07-.6-.07-.75-.15-.3,0-.3.07S32.59,24.9,32.51,24.9ZM9.44,41.38c-.07,0,0,.07,0,0-.22.15-.3.15-.37.3H8.91l-.3.3-.45.45c-.07.07,0,.15-.07.22a1.63,1.63,0,0,1-.37.3c-.45.45-1.12.9-1.35,1.42a.28.28,0,0,1-.07.22c0,.07-.15.07-.15.15a.28.28,0,0,0-.07.22c-.15.22-.3.52-.45.75a11.25,11.25,0,0,0-.82,1.65,1.27,1.27,0,0,0-.07.52.07.07,0,0,1-.07.07,1.84,1.84,0,0,0,.07,1.12c0,.07.15.07.15.15a.28.28,0,0,1,.07.22,4,4,0,0,1,.37.82,10.11,10.11,0,0,1,.82.67c.15.15.15.3.3.45h.15l.07.15.15.07a.07.07,0,0,1,.07.07,1,1,0,0,0,.45.07c.15,0,.3.07.45.07v.07h.15c.3,0,.37.07.67.07a5.31,5.31,0,0,0,1.12-.07,6.49,6.49,0,0,0,.75-.15.57.57,0,0,0,.3-.07s.07-.15.15-.15.22,0,.3-.07.07-.15.15-.15.3-.22.37-.3.37-.3.6-.45.37-.45.67-.67l.15-.15a5.26,5.26,0,0,0,.67-.45.75.75,0,0,1,.07-.22c.07-.15.07-.3.15-.37a.57.57,0,0,0,.15-.3.07.07,0,0,1,.07-.07,2.55,2.55,0,0,0,.07-.75,2.81,2.81,0,0,0,.07-.75,2.32,2.32,0,0,0-.15-.6c-.07-.22-.07-.45-.15-.67l-.07-.07c0-.07-.07-.07-.07-.15a10.43,10.43,0,0,1-.45-1,3.65,3.65,0,0,0-.22-.52c0-.07-.07-.07-.07-.15L13,43.48v-.15c0-.07-.15-.07-.15-.15s-.07,0-.07-.07a6.08,6.08,0,0,0-.45-.6.28.28,0,0,0-.22-.07l-.07-.07c-.22-.15-.45-.15-.67-.3s-.37-.37-.6-.52-.07-.15-.15-.15-.82-.22-.9-.07S9.51,41.38,9.44,41.38Z"/></g></g></svg>