<svg xmlns="http://www.w3.org/2000/svg" viewBox="0 0 56.24 66.14"><title>icon-alert</title><g id="Capa_2" data-name="Capa 2"><g id="main"><path d="M36.14,62c-.4.1-.6.5-1,.8-.1,0,0,.1-.1.1s-.2.2-.4.2-.2.2-.4.2-.2.2-.3.3h-.2l-.2.2-.1.2h-.2c-.2.1-.2.2-.3.3s-.1.1-.2.1l-.3.1v.1h-.2a1.38,1.38,0,0,1-.4.3,4.88,4.88,0,0,1-.7.3l-.1.1c-.2.1-.6.1-.8.2a.1.1,0,0,1-.1.1h-.2v.1h-.2a.37.37,0,0,1-.3.1,12.92,12.92,0,0,1-2.3.3L27,66a14.77,14.77,0,0,1-2.1-.1.1.1,0,0,0-.1-.1,1.42,1.42,0,0,1-.6-.2,1.23,1.23,0,0,1-1,.1l-.1-.2a4.17,4.17,0,0,0-.6-.2,3.33,3.33,0,0,0-.6-.3l-.1-.1c-.1-.1-.3,0-.4-.1s-.2-.3-.3-.3a6.07,6.07,0,0,1-1-.7,3.39,3.39,0,0,0-.6-.6h-.2l-.8-.8c-.1-.1-.3-.2-.3-.3v-.2a1.7,1.7,0,0,1-.6-.6,4.81,4.81,0,0,0-.9-1.1l-.1-.2h-.2s-.4-.2-.4-.1-.2.2-.3.1a3.55,3.55,0,0,0-.7-.1,19.66,19.66,0,0,1-2.6.2c-.3,0-.7-.1-1-.1h-1.1a.1.1,0,0,0-.1-.1,12.75,12.75,0,0,1-1.9-.1c-.6-.1-1.2-.3-1.8-.4a.1.1,0,0,0-.1-.1,6,6,0,0,1-1.2-.2.1.1,0,0,0-.1-.1c-.2,0-.2,0-.3-.1l-.3-.1a1.63,1.63,0,0,0-.6-.3c-.1,0-.2-.2-.2-.2h-.2v-.1a.37.37,0,0,1-.3-.1l-.1-.2a.37.37,0,0,0-.3-.1c-.1,0-.5-.3-.7-.3s-.2-.3-.4-.3-.5-.5-.7-.7l-.2-.2c-.1-.2-.1-.5-.2-.7s-.2-.2-.2-.2a1.73,1.73,0,0,1-.2-.7A1.85,1.85,0,0,1,0,54a14.7,14.7,0,0,1,0-2.1,22.28,22.28,0,0,1,.3-2.7.76.76,0,0,1,.2-.4c0-.1.2-.2.2-.2.1-.4.1-.7.2-1.1,0-.1-.1-.3.1-.3a6,6,0,0,1,.6-1.1v-.2h.1a3,3,0,0,1,.4-.8l.3-.3c.2-.2.4-.6.6-.8s.4-.3.7-.6a4.35,4.35,0,0,1,.7-.6A10.7,10.7,0,0,0,6,41.44c.1-.1.2-.1.2-.2l.3-.6c.1-.2.3-.3.4-.4s0-.2.1-.3.2-.2.2-.2v-.3a5.39,5.39,0,0,1,.3-1v-.2a.1.1,0,0,1,.1-.1,5.65,5.65,0,0,0,0-1.3c0-.7.1-1.5.1-2.4,0-.2-.1-.4-.1-.6a3.42,3.42,0,0,0,.1-1.1c0-.3-.1-.7-.1-1.2v-.3a5.31,5.31,0,0,1-.1-1.4c0-.4-.1-.8-.1-1.1s.1-.3.1-.6v-.3a3.55,3.55,0,0,0,.1-.7c0-.2.1-.3.1-.4a5.44,5.44,0,0,1,0-1.8.1.1,0,0,1,.1-.1v-1a.1.1,0,0,0,.1-.1,9.58,9.58,0,0,1,0-1.7c0-.3.2-.5.2-.9s0-.7.1-1a.1.1,0,0,0,.1-.1c0-.3.1-.5.1-.8,0-.1-.1-.4,0-.4h.1c0-.1-.1-.4,0-.4h.1c.1-.3.1-.6.2-.9s.3-.5.3-.8,0-.7.1-1a.1.1,0,0,0,.1-.1v-.1a6.37,6.37,0,0,0,.2-.9.1.1,0,0,0,.1-.1,3.93,3.93,0,0,1,.2-.6,4.17,4.17,0,0,0,.2-.6c.1-.3.1-.5.2-.9a.1.1,0,0,0,.1-.1s0-.5.1-.6h.1c.1-.3.1-.8.2-1.1l.1-.1.1-.3c.1-.1.1-.1.1-.2l.1-.3a2.93,2.93,0,0,0,.4-.8c0-.1.1,0,.1-.1s.2-.2.2-.3a13.92,13.92,0,0,1,.6-1.3c0-.1.1,0,.1-.1s.2-.4.3-.6.2-.1.2-.2,0-.2.1-.3.3-.2.4-.3.2-.2.3-.4.1,0,.1-.1c0-.3.9-.9,1.2-1.2.1-.1.2-.4.3-.4s.2,0,.3-.1l.1-.2H16a1.61,1.61,0,0,1,.7-.4c.1,0,0-.1.1-.1s.4-.2.6-.3.2-.2.3-.2l.3-.1c.1-.1.2-.3.3-.3h.2v-.1h.2c.1-.1.2-.1.6-.2a.1.1,0,0,1,.1-.1c.2,0,.2-.1.3-.1a2.35,2.35,0,0,1,.8-.2h.2c.1-.2.9-.4,1.2-.6.1,0,0-.1.1-.1s.5,0,.6-.1,1.2-.1,1.7-.1a6.11,6.11,0,0,0,1.3-.3,12,12,0,0,1,1.9,0,8.55,8.55,0,0,1,1.6,0c.6.1,1.1.5,1.8.7a17.66,17.66,0,0,0,2,.4.1.1,0,0,0,.1.1,4.08,4.08,0,0,1,.7.2,4.88,4.88,0,0,0,.7.3c.1,0,.1.2.1.2.2.1.3,0,.6.1a3,3,0,0,1,1,.4c.4.3,1.1.9,1.6,1.3.3.3.5.6.8.9a7.27,7.27,0,0,1,.9.8v.2c.2.2.2.4.4.7.1.1.3.2.3.3s.1.1.1.2l.1.3h.1v.2a1.51,1.51,0,0,1,.4.8.76.76,0,0,0,.2.4,20,20,0,0,0,1,2.1c0,.1.1.1.1.2s.1.4.2.7a.1.1,0,0,1,.1.1v.1l.1.1c.1.4,0,.9.1,1.3s.2.7.3,1v.2c.1.1.1.1.1.2s.2.5.3.8v.2h.1a2,2,0,0,1,.1.8c.1.6.3,1.3.4,2,.1.5.1,1,.2,1.4s.4.8.4,1.2c.1.9,0,2.1,0,3.1s.1,2.2,0,3.1a11,11,0,0,0-.2,1.8,8.08,8.08,0,0,0,.7,2.2,10.28,10.28,0,0,1,.1,1.8,3.45,3.45,0,0,0,.8.9c.1.1,0,.3.1.3a4.77,4.77,0,0,1,1.3-.3c.1,0,0,.1.1.1a2.12,2.12,0,0,1,.7.3,3.19,3.19,0,0,1,.7.6c.1.1.2.3.3.4s.2,0,.3.1l.1.2c.2.1.6.1.8.2l.1.1a4.35,4.35,0,0,0,.7.4l.3.3h.2l.1.2a2.51,2.51,0,0,0,.7.4c.1.1.2.3.3.4s.3.2.4.3,0,.2.1.3.2.1.2.1v.2a3.19,3.19,0,0,1,.7.6c.1.1.1.3.2.4s.2.1.2.2a.35.35,0,0,0,.1.2c.1.1.3.2.3.3a6.37,6.37,0,0,1,.2.7c0,.1.2.2.2.2v.2a3.36,3.36,0,0,1,.4,1v.2h.1c.1.4,0,1,.1,1.6a5.63,5.63,0,0,1,.2,1v.4c0,.1.1.2.1.3,0,.4-.2.8-.2,1.2s0,.8-.1,1.2a.1.1,0,0,0-.1.1v.1c0,.1-.3.5-.3.7a3.55,3.55,0,0,1-.4.9,5.74,5.74,0,0,1-.4.7,9.43,9.43,0,0,0-1,1c-.1.1-.1.3-.2.4l-.3.3a5.5,5.5,0,0,1-.9.7.37.37,0,0,1-.3.1c-.1,0-.4.3-.7.3s-.3,0-.4.1-.2.1-.3.1-.7.4-.9.4-.3.1-.4.1a5.07,5.07,0,0,0-.9.2.1.1,0,0,1-.1.1h-.1c-.1,0-.2.1-.3.1s-.2.1-.3.1-.2.1-.3.1c-.3.1-1.3.2-1.9.3a.1.1,0,0,1-.1.1c-.3,0-.6.1-.9.1-.1,0-.4-.1-.4,0v.1a3.44,3.44,0,0,0-.9.1,5.38,5.38,0,0,1-.8.1c-.3,0-.4.1-.8.1h-.2a.7.7,0,0,1-.4.2c-.7.2-1.5.2-1.9.6a2.1,2.1,0,0,0-.4,1.1c-.1.2,0,.5-.1.7a.1.1,0,0,0-.1.1c0,.2-.2.2-.2.4l-.1.3-.2.1v.2c-.1.2-.4.3-.6.6a3.39,3.39,0,0,0-.6.6C36.44,61.54,36.14,61.74,36.14,62Zm-14-56.2h-.2v.1h-.2V6h-.2c-.1.1-.1.2-.2.2s0,.1-.1.1-.4.1-.4.2-.2.3-.3.4a7,7,0,0,0-.8,1c-.1.1,0,.2-.1.3s-.2.1-.2.2-.1.4-.2.6,0,.2-.1.3-.2.2-.2.2,0,.2-.1.3-.2.1-.2.2-.1.5-.2.7l-.3.9a5.31,5.31,0,0,1-.3,1.1v.2h-.1v.2h-.1v.2h-.1v.2h-.1v.2a1.07,1.07,0,0,0-.2.6.1.1,0,0,1-.1.1,2,2,0,0,0-.1.8.1.1,0,0,0-.1.1v.2a10.34,10.34,0,0,0-.3,1.2c0,.2-.1.2-.1.3v.1a.1.1,0,0,1-.1.1c-.1.5-.2,1-.3,1.6a4.25,4.25,0,0,0-.2,1.1c0,.2-.1.3-.1.4a4.28,4.28,0,0,0-.7,2.1c0,.5-.2,1.1-.2,1.7a11.52,11.52,0,0,1-.1,2v.2c0,.4-.1.5-.1.8a26.2,26.2,0,0,0,.1,2.8,17.18,17.18,0,0,1,0,2.3v.3c-.1,1.1,0,2.1-.1,2.9a3.75,3.75,0,0,1-.1,1.1.6.6,0,0,1-.1.4c-.1.1-.3.1-.3.2v.2l-.2.1a.6.6,0,0,0-.1.4.76.76,0,0,0-.1.4c-.2.5-.3,1.3-.4,1.6a6.37,6.37,0,0,1-.2.7.35.35,0,0,1-.1.2.1.1,0,0,1-.1.1c-.1.2,0,.3-.1.4a7.58,7.58,0,0,1-.9,1.6V43l-.3.3c-.1.2-.2.2-.3.3l-2.1,2.1a4.37,4.37,0,0,1-.8.7c-.2,0,0,.1-.1.2h-.2a5,5,0,0,0-.7.8l-.2.2v.2h-.1V48h-.1v.2H7l-.1.3a2.55,2.55,0,0,0-.2,1.3h-.1V50a4,4,0,0,0,.3,2.1v.2c.1.1.2.1.2.2s.1,0,.1.1a2.09,2.09,0,0,0,1.3.8,6,6,0,0,0,2.3.1c.4,0,.9.1,1,.1a1.63,1.63,0,0,0,.7,0c1.5,0,3-.1,4.3-.1s2.3-.3,3.3-.3c1.2-.1,2.4,0,3.4-.1.5,0,.8-.2,1.1-.2.8-.1,1.4,0,2.1-.1s1-.1,1.6-.2h.9a.1.1,0,0,1,.1-.1,3.4,3.4,0,0,1,1-.1,12.08,12.08,0,0,1,1.4-.3c.5-.1,1,.1,1.4,0a.1.1,0,0,1,.1-.1h.2a5.16,5.16,0,0,1,1.1-.2.1.1,0,0,0,.1-.1c.6-.1,1.3-.1,1.9-.2.3,0,.5-.2.8-.2a2.49,2.49,0,0,1,.8-.1.1.1,0,0,0,.1-.1,1.48,1.48,0,0,1,.7-.1.1.1,0,0,0,.1-.1,27.92,27.92,0,0,1,3.2-.4c.1,0,.2-.1.4-.1.6-.1,1.3-.3,1.7-.4h.1a.1.1,0,0,0,.1-.1h.3c.1,0,.1-.1.2-.1.4-.1.8,0,1.1-.1l.1-.1c.2-.1.6-.1.8-.2l.1-.1A3.18,3.18,0,0,1,48,49l.1-.2c.1-.1.3-.1.4-.2s.1-.3.2-.4.2-.1.2-.2a.1.1,0,0,1,.1-.1,6.89,6.89,0,0,0-.1-3.2c-.1-.1-.1-.5-.1-.6s-.2-.2-.2-.2a.37.37,0,0,1-.1-.3c-.1-.1-.2-.1-.2-.2l-.3-.6c-.1-.2-.3-.3-.4-.4-.3-.2-.5-.4-.8-.6-.1,0-.2-.2-.2-.2l-.6-.3c-.2-.1-.3-.4-.4-.4s-.5-.1-.7-.2-.1-.2-.2-.2l-.6-.3c-.2-.2-.4-.2-.6-.3s-.2-.2-.2-.2a6.73,6.73,0,0,1-1.1-.7c-.1,0-.1-.2-.2-.2-.2-.2-.4-.2-.6-.3l-.1-.1c-.1-.6-.3-.6-.3-.8s-.3-.4-.3-.4l-.6-.6v-.2l-.2-.1a4.1,4.1,0,0,1-.8-1.4.1.1,0,0,0-.1-.1v-.3l-.2-.2c-.1-.4-.1-.9-.2-1.3h-.1v-.2a2.35,2.35,0,0,1-.2-.8,1.88,1.88,0,0,1-.2-.8,19,19,0,0,1-.1-3.4c0-.9-.1-1.8-.1-2.7,0-1.8.1-3.6,0-5.3,0-.3-.2-.6-.2-1a4.1,4.1,0,0,1-.1-1.1c-.1-.6-.5-1.7-.6-2.1,0-.2,0-.2-.1-.3a.35.35,0,0,0-.1-.2,3.18,3.18,0,0,1-.3-.9c-.1-.3-.3-.5-.3-.7v-.1a.1.1,0,0,0-.1-.1c-.1-.2,0-.3-.1-.4s-.2-.2-.2-.2c-.1-.2,0-.3-.1-.4l-.1-.1a.35.35,0,0,0-.1-.2c-.1-.3-.2-.4-.2-.6s-.1-.2-.1-.3V11a.1.1,0,0,0-.1-.1c-.1-.3-.1-.6-.2-.9h-.1v-.2h-.1v-.2l-.2-.1-.1-.3c0-.1-.1,0-.1-.1-.2-.2-.2-.5-.3-.7a1.87,1.87,0,0,0-.3-.4v-.2c0-.1-.2-.1-.2-.1a5.72,5.72,0,0,0-.7-.8c-.3-.2-.9-.4-1-.6h-.2c-.1,0-.1-.2-.2-.2A.76.76,0,0,0,31,6a.1.1,0,0,1-.1-.1c-.2-.1-.4,0-.7-.1a18.94,18.94,0,0,0-1.8-.6,9.63,9.63,0,0,0-1.7,0,10.28,10.28,0,0,0-1.7-.1.1.1,0,0,0-.1.1A3,3,0,0,0,22.14,5.84Zm3.7,53.4c-.1.4.3.6.6.8a1.54,1.54,0,0,0,1.6.1l.6-.3h.2c.1,0,.2-.2.2-.2a.54.54,0,0,0,.3-.4A8.25,8.25,0,0,0,25.84,59.24Z"/></g></g></svg>