<svg xmlns="http://www.w3.org/2000/svg" viewBox="0 0 48.21 54.5"><title>icon-like</title><g id="Capa_2" data-name="Capa 2"><g id="main"><path d="M48.07,14.83c.35-.28,0-1.35-.21-1.67s.06-1,0-1.47a1.9,1.9,0,0,0-.09-.45c-.09-.23.12-.39,0-.65a.89.89,0,0,1-.12-.59c.17-.23-.37-1.09-.41-1.37s0-.95-.22-1a3.24,3.24,0,0,1-.32-1,1.78,1.78,0,0,0-.31-1.05A5.23,5.23,0,0,0,46,4.8a8.22,8.22,0,0,0-1.61-1.67c-1.15-.8-2-2-3.42-2.29-.33-.07-.6-.36-.92-.45C39.58.25,38.95.21,38.41.1a9.07,9.07,0,0,0-2.49,0,20.76,20.76,0,0,0-4.53.69c-1.34.31-2.46,1.35-3.58,2C27,3.24,26.43,4,25.61,4.37a4.79,4.79,0,0,0-.75.51c-.28.22-.75.34-1,.53-.4.34-.8.85-1.25,1.24a6.7,6.7,0,0,1-.92.67C21,7.78,21,7.13,20.33,7A6.92,6.92,0,0,0,18.61,5.9a15.21,15.21,0,0,0-2-.89,10,10,0,0,0-6.84-.3A9.85,9.85,0,0,0,5.91,7.17a8.29,8.29,0,0,0-1.5,1.7c-.14.24-.69.68-.62,1-.23.26-.31.62-.5.85a4.76,4.76,0,0,0-.77,1.47c-.22.15-.22.61-.41.82-.34.38-.26,1.1-.49,1.57A5.25,5.25,0,0,0,1,16.75a7,7,0,0,1-.32,1.17c-.09.47-.27.9-.32,1.37A19.67,19.67,0,0,0,0,22a10.26,10.26,0,0,1,0,1.75,4.46,4.46,0,0,0,.14,1c.06.35.08.66.15,1,.15.75.32,1.43.47,2.18s.53,1.41.69,2.11c.06.25.28,1.06.48,1.19a2.13,2.13,0,0,0,.56,1.22,14.32,14.32,0,0,0,2.36,4.15c.49.6.93,1.28,1.37,1.93,0,.31.54.56.61.86a2.48,2.48,0,0,0,.59.94,3.72,3.72,0,0,1,.81,1.13,3.48,3.48,0,0,0,.69.79c.15.24.47.8.76.9.05.41.74.91,1,1.25a6.89,6.89,0,0,0,.92,1.07,10,10,0,0,1,1.33,1.33c.1.32.26.14.4.36s0,.3.19.45c.37.28.6.7,1,1a5.39,5.39,0,0,1,1.38,1.52,2.09,2.09,0,0,0,.56.62c0,.57.6.59,1,.93s.32.64.58.88c.43.31.92.52,1.34.86a9.56,9.56,0,0,0,2.12.89A3.3,3.3,0,0,0,24,54a7.58,7.58,0,0,0,1.77-.84c.59-.47,1.36-.83,1.94-1.34s1-.79,1.54-1.23c.2,0,.65-.42.76-.58.25-.39.74-.46.94-.89.3,0,.42-.38.62-.54s.81-.43,1.08-.83A8.65,8.65,0,0,1,34,46.46a12.48,12.48,0,0,0,1.47-1.74,8,8,0,0,1,1.69-2.2c.37-.28.41-.76.72-1a3.65,3.65,0,0,0,.48-.73c.38-.55.76-1,1.08-1.54s1.18-1.23,1.36-2a11.13,11.13,0,0,1,.75-1.08c.13-.21.25-.63.4-.75s.24-.49.41-.68.26-.78.45-.87.22-.29.31-.5.11-.43.3-.62a3.61,3.61,0,0,0,.44-.57c.13-.18.39-2,.68-2a13.1,13.1,0,0,0,.86-1.78c.36-1.31,1.2-2.65,1.4-4,.11-.84.44-1.57.49-2.4a8.35,8.35,0,0,1,.19-.95c0-.29.33-.83.3-1.07s-.07-.5,0-.78a3.94,3.94,0,0,0,.15-1.43c-.13-.9.22-1.87.17-2.83C48.08,14.82,48.08,14.92,48.07,14.83Zm-5.83-1.66c-.24,2-.1,4-.51,6A11.89,11.89,0,0,0,41.5,21c-.23.18-.15.56-.24.82A11.64,11.64,0,0,0,40.88,23c-.08.58-.54,1.19-.55,1.74-.22.17-.24.67-.36.91a.29.29,0,0,0,0,.28c0,.23-.3.42-.41.61a14.49,14.49,0,0,0-1.35,3.25c-.11.46-.73,1.1-.56,1.56a3.82,3.82,0,0,0-1.06,1.08.45.45,0,0,0,0,.31c-.08.09-.17,0-.21.19a8.11,8.11,0,0,1-.55,1.22c-.38.39-.69,1.28-1.15,1.56-.16.1-.13.36-.26.52s-.2,0-.28.16c-.2.36-.49.7-.72,1.06s-.45.8-.71,1.18-.54.8-.87,1.22-.74,1.07-1.2,1.56a4.37,4.37,0,0,0-1.12,2A2.94,2.94,0,0,0,29,44a5.43,5.43,0,0,0-.85.67c-.54.37-1,1.19-1.59,1.49a5,5,0,0,0-.63.56,10,10,0,0,1-1.36.91c-.62.37-1.08.9-1.71,1.28s-.58.46-1.15.23a.33.33,0,0,0-.42-.19c-.19-.14-.26-.34-.43-.46s-.55-.28-.67-.6a1.64,1.64,0,0,0-.58-.69c-.24-.18-.35-.54-.58-.76-.43-.4-.72-.83-1.12-1.24-.51-.56-1-1.22-1.49-1.75-.1-.1-.21-.15-.3-.25s-.3-.5-.44-.63-.59-.4-.8-.75a2,2,0,0,0-.57-.67,1.15,1.15,0,0,0-.4-.6,2.61,2.61,0,0,0-.6-.85,6.06,6.06,0,0,0-.67-1,4,4,0,0,1-1.1-1.5,1.81,1.81,0,0,0-.51-.56c0-.37-.53-1-.74-1.22A7.45,7.45,0,0,0,9.2,34c-.48-.37-.6-1.56-1.17-1.8a4.28,4.28,0,0,1-.57-1.26c-.15-.47-.49-.76-.54-1.24-.08-.84-.65-1.66-.8-2.52A17.23,17.23,0,0,1,6,20.71c.36-1.53.75-3.07,1.1-4.58a6.5,6.5,0,0,0,.42-1.53c0-.36.37-.64.43-1a3.42,3.42,0,0,1,.77-1.4A1.24,1.24,0,0,0,9,11.52a3,3,0,0,0,.7-.7,6.65,6.65,0,0,0,.68-.84c.32,0,.47-.27.73-.41.47-.24.64-.56,1.24-.61a6.88,6.88,0,0,1,4.35,1.36,15.62,15.62,0,0,0,1.71,1,25.41,25.41,0,0,0,2.38,1.18c1.12.59,3.31-.09,4.23-.73s1.68-1.74,2.74-2.43A23.46,23.46,0,0,0,29.83,8a2.56,2.56,0,0,0,.65-.41A.82.82,0,0,0,30.71,7a1.84,1.84,0,0,0,1-.55,3.06,3.06,0,0,0,1.23-.7c.5,0,.83-.5,1.31-.57a18.65,18.65,0,0,1,3.18-.4A4.69,4.69,0,0,1,38.52,5c.3.31.73.06,1.07.47s1.71,1,1.54,1.6c-.05.2.22.62.28.84.19.65.33,1.32.49,2a10.28,10.28,0,0,1,.33,3.29Z"/></g></g></svg>